<?xml version="1.0" encoding="UTF-8" standalone="no"?>
<!-- Created with Inkscape (http://www.inkscape.org/) -->

<svg
   xmlns:dc="http://purl.org/dc/elements/1.1/"
   xmlns:cc="http://creativecommons.org/ns#"
   xmlns:rdf="http://www.w3.org/1999/02/22-rdf-syntax-ns#"
   xmlns:svg="http://www.w3.org/2000/svg"
   xmlns="http://www.w3.org/2000/svg"
   xmlns:sodipodi="http://sodipodi.sourceforge.net/DTD/sodipodi-0.dtd"
   xmlns:inkscape="http://www.inkscape.org/namespaces/inkscape"
   width="18.900007"
   height="17.999992"
   id="svg2"
   version="1.1"
   inkscape:version="0.47 r22583"
   sodipodi:docname="F-03x2.svg">
  <defs
     id="defs4">
    <inkscape:perspective
       sodipodi:type="inkscape:persp3d"
       inkscape:vp_x="0 : 526.18109 : 1"
       inkscape:vp_y="0 : 1000 : 0"
       inkscape:vp_z="744.09448 : 526.18109 : 1"
       inkscape:persp3d-origin="372.04724 : 350.78739 : 1"
       id="perspective10" />
    <inkscape:perspective
       id="perspective3046"
       inkscape:persp3d-origin="0.5 : 0.33333333 : 1"
       inkscape:vp_z="1 : 0.5 : 1"
       inkscape:vp_y="0 : 1000 : 0"
       inkscape:vp_x="0 : 0.5 : 1"
       sodipodi:type="inkscape:persp3d" />
    <inkscape:perspective
       id="perspective3422"
       inkscape:persp3d-origin="0.5 : 0.33333333 : 1"
       inkscape:vp_z="1 : 0.5 : 1"
       inkscape:vp_y="0 : 1000 : 0"
       inkscape:vp_x="0 : 0.5 : 1"
       sodipodi:type="inkscape:persp3d" />
    <inkscape:perspective
       id="perspective3756"
       inkscape:persp3d-origin="0.5 : 0.33333333 : 1"
       inkscape:vp_z="1 : 0.5 : 1"
       inkscape:vp_y="0 : 1000 : 0"
       inkscape:vp_x="0 : 0.5 : 1"
       sodipodi:type="inkscape:persp3d" />
    <inkscape:perspective
       id="perspective4481"
       inkscape:persp3d-origin="0.5 : 0.33333333 : 1"
       inkscape:vp_z="1 : 0.5 : 1"
       inkscape:vp_y="0 : 1000 : 0"
       inkscape:vp_x="0 : 0.5 : 1"
       sodipodi:type="inkscape:persp3d" />
    <inkscape:perspective
       id="perspective4895"
       inkscape:persp3d-origin="0.5 : 0.33333333 : 1"
       inkscape:vp_z="1 : 0.5 : 1"
       inkscape:vp_y="0 : 1000 : 0"
       inkscape:vp_x="0 : 0.5 : 1"
       sodipodi:type="inkscape:persp3d" />
    <inkscape:perspective
       id="perspective5349"
       inkscape:persp3d-origin="0.5 : 0.33333333 : 1"
       inkscape:vp_z="1 : 0.5 : 1"
       inkscape:vp_y="0 : 1000 : 0"
       inkscape:vp_x="0 : 0.5 : 1"
       sodipodi:type="inkscape:persp3d" />
    <inkscape:perspective
       id="perspective5843"
       inkscape:persp3d-origin="0.5 : 0.33333333 : 1"
       inkscape:vp_z="1 : 0.5 : 1"
       inkscape:vp_y="0 : 1000 : 0"
       inkscape:vp_x="0 : 0.5 : 1"
       sodipodi:type="inkscape:persp3d" />
    <inkscape:perspective
       id="perspective6377"
       inkscape:persp3d-origin="0.5 : 0.33333333 : 1"
       inkscape:vp_z="1 : 0.5 : 1"
       inkscape:vp_y="0 : 1000 : 0"
       inkscape:vp_x="0 : 0.5 : 1"
       sodipodi:type="inkscape:persp3d" />
    <inkscape:perspective
       id="perspective7112"
       inkscape:persp3d-origin="0.5 : 0.33333333 : 1"
       inkscape:vp_z="1 : 0.5 : 1"
       inkscape:vp_y="0 : 1000 : 0"
       inkscape:vp_x="0 : 0.5 : 1"
       sodipodi:type="inkscape:persp3d" />
    <inkscape:perspective
       id="perspective16910"
       inkscape:persp3d-origin="0.5 : 0.33333333 : 1"
       inkscape:vp_z="1 : 0.5 : 1"
       inkscape:vp_y="0 : 1000 : 0"
       inkscape:vp_x="0 : 0.5 : 1"
       sodipodi:type="inkscape:persp3d" />
    <inkscape:perspective
       id="perspective34186"
       inkscape:persp3d-origin="0.5 : 0.33333333 : 1"
       inkscape:vp_z="1 : 0.5 : 1"
       inkscape:vp_y="0 : 1000 : 0"
       inkscape:vp_x="0 : 0.5 : 1"
       sodipodi:type="inkscape:persp3d" />
  </defs>
  <sodipodi:namedview
     id="base"
     pagecolor="#ffffff"
     bordercolor="#666666"
     borderopacity="1.0"
     inkscape:pageopacity="0.0"
     inkscape:pageshadow="2"
     inkscape:zoom="15.839192"
     inkscape:cx="44.316687"
     inkscape:cy="18.84322"
     inkscape:document-units="in"
     inkscape:current-layer="layer1"
     showgrid="true"
     units="in"
     inkscape:window-width="1680"
     inkscape:window-height="990"
     inkscape:window-x="-4"
     inkscape:window-y="-4"
     inkscape:window-maximized="1"
     showguides="true"
     inkscape:guide-bbox="true">
    <inkscape:grid
       type="xygrid"
       id="grid2816"
       empspacing="10"
       visible="true"
       enabled="true"
       snapvisiblegridlinesonly="false"
       units="in"
       spacingx="0.01in"
       spacingy="0.01in"
       empcolor="#991800"
       empopacity="0.25098039" />
  </sodipodi:namedview>
  <metadata
     id="metadata7">
    <rdf:RDF>
      <cc:Work
         rdf:about="">
        <dc:format>image/svg+xml</dc:format>
        <dc:type
           rdf:resource="http://purl.org/dc/dcmitype/StillImage" />
        <dc:title></dc:title>
      </cc:Work>
    </rdf:RDF>
  </metadata>
  <g
     inkscape:label="Layer 1"
     inkscape:groupmode="layer"
     id="layer1"
     transform="translate(-297,-494.35971)">
    <g
       id="g35675">
      <rect
         id="rect34004"
         height="8.999382"
         width="18.900007"
         y="494.35971"
         x="297"
         style="fill:#404040" />
      <rect
         id="rect34006"
         height="3.4777443"
         width="3.5197024"
         y="497.12119"
         x="299.79703" />
      <polygon
         transform="matrix(1.2656248,0,0,1.2500878,296.99999,494.35968)"
         id="polygon34008"
         points="4.991,2.209 6.017,1.184 1.185,1.184 2.208,2.209 "
         style="fill:#2a2a29" />
      <polygon
         transform="matrix(1.2656248,0,0,1.2500878,296.99999,494.35968)"
         id="polygon34010"
         points="4.991,4.993 6.017,6.016 6.017,1.184 4.991,2.212 "
         style="fill:#474747" />
      <polygon
         transform="matrix(1.2656248,0,0,1.2500878,296.99999,494.35968)"
         id="polygon34012"
         points="2.208,4.993 1.185,6.016 6.016,6.016 4.99,4.993 "
         style="fill:#595959" />
      <polygon
         transform="matrix(1.2656248,0,0,1.2500878,296.99999,494.35968)"
         id="polygon34014"
         points="2.208,2.209 1.183,1.184 1.183,6.016 2.208,4.991 "
         style="fill:#373737" />
      <rect
         id="rect34016"
         height="3.4777443"
         width="3.5197024"
         y="497.12119"
         x="308.90955" />
      <polygon
         transform="matrix(1.2656248,0,0,1.2500878,296.99999,494.35968)"
         id="polygon34018"
         points="12.192,2.209 13.217,1.184 8.384,1.184 9.408,2.209 "
         style="fill:#2a2a29" />
      <polygon
         transform="matrix(1.2656248,0,0,1.2500878,296.99999,494.35968)"
         id="polygon34020"
         points="12.192,4.993 13.217,6.016 13.217,1.184 12.192,2.212 "
         style="fill:#474747" />
      <polygon
         transform="matrix(1.2656248,0,0,1.2500878,296.99999,494.35968)"
         id="polygon34022"
         points="9.408,4.993 8.384,6.016 13.215,6.016 12.191,4.993 "
         style="fill:#595959" />
      <polygon
         transform="matrix(1.2656248,0,0,1.2500878,296.99999,494.35968)"
         id="polygon34024"
         points="9.408,2.209 8.382,1.184 8.382,6.016 9.408,4.991 "
         style="fill:#373737" />
      <rect
         style="fill:#404040"
         x="297"
         y="503.36032"
         width="18.900007"
         height="8.999382"
         id="rect34088" />
      <rect
         x="299.79703"
         y="506.12177"
         width="3.5197024"
         height="3.4777443"
         id="rect34090" />
      <polygon
         transform="matrix(1.2656248,0,0,1.2500878,296.99999,503.36032)"
         style="fill:#2a2a29"
         points="1.185,1.184 2.208,2.209 4.991,2.209 6.017,1.184 "
         id="polygon34092" />
      <polygon
         transform="matrix(1.2656248,0,0,1.2500878,296.99999,503.36032)"
         style="fill:#474747"
         points="6.017,1.184 4.991,2.212 4.991,4.993 6.017,6.016 "
         id="polygon34094" />
      <polygon
         transform="matrix(1.2656248,0,0,1.2500878,296.99999,503.36032)"
         style="fill:#595959"
         points="6.016,6.016 4.99,4.993 2.208,4.993 1.185,6.016 "
         id="polygon34096" />
      <polygon
         transform="matrix(1.2656248,0,0,1.2500878,296.99999,503.36032)"
         style="fill:#373737"
         points="1.183,6.016 2.208,4.991 2.208,2.209 1.183,1.184 "
         id="polygon34098" />
      <rect
         x="308.90952"
         y="506.12177"
         width="3.5197024"
         height="3.4777443"
         id="rect34100" />
      <polygon
         transform="matrix(1.2656248,0,0,1.2500878,296.99999,503.36032)"
         style="fill:#2a2a29"
         points="8.384,1.184 9.408,2.209 12.192,2.209 13.217,1.184 "
         id="polygon34102" />
      <polygon
         transform="matrix(1.2656248,0,0,1.2500878,296.99999,503.36032)"
         style="fill:#474747"
         points="13.217,1.184 12.192,2.212 12.192,4.993 13.217,6.016 "
         id="polygon34104" />
      <polygon
         transform="matrix(1.2656248,0,0,1.2500878,296.99999,503.36032)"
         style="fill:#595959"
         points="13.215,6.016 12.191,4.993 9.408,4.993 8.384,6.016 "
         id="polygon34106" />
      <polygon
         transform="matrix(1.2656248,0,0,1.2500878,296.99999,503.36032)"
         style="fill:#373737"
         points="8.382,6.016 9.408,4.991 9.408,2.209 8.382,1.184 "
         id="polygon34108" />
    </g>
  </g>
</svg>
