<?xml version="1.0" encoding="UTF-8" standalone="no"?>
<!-- Created with Inkscape (http://www.inkscape.org/) -->

<svg
   xmlns:dc="http://purl.org/dc/elements/1.1/"
   xmlns:cc="http://creativecommons.org/ns#"
   xmlns:rdf="http://www.w3.org/1999/02/22-rdf-syntax-ns#"
   xmlns:svg="http://www.w3.org/2000/svg"
   xmlns="http://www.w3.org/2000/svg"
   xmlns:sodipodi="http://sodipodi.sourceforge.net/DTD/sodipodi-0.dtd"
   xmlns:inkscape="http://www.inkscape.org/namespaces/inkscape"
   width="54.900013"
   height="9.0000143"
   id="svg2"
   version="1.1"
   inkscape:version="0.47 r22583"
   sodipodi:docname="F-5x1.svg">
  <defs
     id="defs4">
    <inkscape:perspective
       sodipodi:type="inkscape:persp3d"
       inkscape:vp_x="0 : 526.18109 : 1"
       inkscape:vp_y="0 : 1000 : 0"
       inkscape:vp_z="744.09448 : 526.18109 : 1"
       inkscape:persp3d-origin="372.04724 : 350.78739 : 1"
       id="perspective10" />
    <inkscape:perspective
       id="perspective3046"
       inkscape:persp3d-origin="0.5 : 0.33333333 : 1"
       inkscape:vp_z="1 : 0.5 : 1"
       inkscape:vp_y="0 : 1000 : 0"
       inkscape:vp_x="0 : 0.5 : 1"
       sodipodi:type="inkscape:persp3d" />
    <inkscape:perspective
       id="perspective3422"
       inkscape:persp3d-origin="0.5 : 0.33333333 : 1"
       inkscape:vp_z="1 : 0.5 : 1"
       inkscape:vp_y="0 : 1000 : 0"
       inkscape:vp_x="0 : 0.5 : 1"
       sodipodi:type="inkscape:persp3d" />
    <inkscape:perspective
       id="perspective3756"
       inkscape:persp3d-origin="0.5 : 0.33333333 : 1"
       inkscape:vp_z="1 : 0.5 : 1"
       inkscape:vp_y="0 : 1000 : 0"
       inkscape:vp_x="0 : 0.5 : 1"
       sodipodi:type="inkscape:persp3d" />
    <inkscape:perspective
       id="perspective4481"
       inkscape:persp3d-origin="0.5 : 0.33333333 : 1"
       inkscape:vp_z="1 : 0.5 : 1"
       inkscape:vp_y="0 : 1000 : 0"
       inkscape:vp_x="0 : 0.5 : 1"
       sodipodi:type="inkscape:persp3d" />
  </defs>
  <sodipodi:namedview
     id="base"
     pagecolor="#ffffff"
     bordercolor="#666666"
     borderopacity="1.0"
     inkscape:pageopacity="0.0"
     inkscape:pageshadow="2"
     inkscape:zoom="22.4"
     inkscape:cx="34.819464"
     inkscape:cy="0.84331802"
     inkscape:document-units="in"
     inkscape:current-layer="layer1"
     showgrid="true"
     units="in"
     inkscape:window-width="1680"
     inkscape:window-height="990"
     inkscape:window-x="-4"
     inkscape:window-y="-4"
     inkscape:window-maximized="1">
    <inkscape:grid
       type="xygrid"
       id="grid2816"
       empspacing="10"
       visible="true"
       enabled="true"
       snapvisiblegridlinesonly="false"
       units="in"
       spacingx="0.01in"
       spacingy="0.01in"
       empcolor="#991800"
       empopacity="0.25098039" />
  </sodipodi:namedview>
  <metadata
     id="metadata7">
    <rdf:RDF>
      <cc:Work
         rdf:about="">
        <dc:format>image/svg+xml</dc:format>
        <dc:type
           rdf:resource="http://purl.org/dc/dcmitype/StillImage" />
        <dc:title></dc:title>
      </cc:Work>
    </rdf:RDF>
  </metadata>
  <g
     inkscape:label="Layer 1"
     inkscape:groupmode="layer"
     id="layer1"
     transform="translate(-297,-494.35974)">
    <g
       id="g4585">
      <rect
         id="rect4403"
         height="9.0000143"
         width="54.900013"
         y="494.35974"
         x="297"
         style="fill:#404040" />
      <rect
         id="rect4405"
         height="3.4779887"
         width="3.5341878"
         y="497.12143"
         x="299.80853" />
      <polygon
         transform="matrix(1.2708335,0,0,1.2501757,297,494.35976)"
         id="polygon4407"
         points="1.185,1.184 2.208,2.209 4.992,2.209 6.017,1.184 "
         style="fill:#2a2a29" />
      <polygon
         transform="matrix(1.2708335,0,0,1.2501757,297,494.35976)"
         id="polygon4409"
         points="6.017,1.184 4.992,2.212 4.992,4.993 6.017,6.016 "
         style="fill:#474747" />
      <polygon
         transform="matrix(1.2708335,0,0,1.2501757,297,494.35976)"
         id="polygon4411"
         points="6.016,6.016 4.991,4.993 2.208,4.993 1.185,6.016 "
         style="fill:#595959" />
      <polygon
         transform="matrix(1.2708335,0,0,1.2501757,297,494.35976)"
         id="polygon4413"
         points="1.183,6.016 2.208,4.991 2.208,2.209 1.183,1.184 "
         style="fill:#373737" />
      <rect
         id="rect4415"
         height="3.4779887"
         width="3.5341878"
         y="497.12143"
         x="308.95984" />
      <polygon
         transform="matrix(1.2708335,0,0,1.2501757,297,494.35976)"
         id="polygon4417"
         points="8.384,1.184 9.408,2.209 12.191,2.209 13.216,1.184 "
         style="fill:#2a2a29" />
      <polygon
         transform="matrix(1.2708335,0,0,1.2501757,297,494.35976)"
         id="polygon4419"
         points="13.216,1.184 12.191,2.212 12.191,4.993 13.216,6.016 "
         style="fill:#474747" />
      <polygon
         transform="matrix(1.2708335,0,0,1.2501757,297,494.35976)"
         id="polygon4421"
         points="13.215,6.016 12.19,4.993 9.408,4.993 8.384,6.016 "
         style="fill:#595959" />
      <polygon
         transform="matrix(1.2708335,0,0,1.2501757,297,494.35976)"
         id="polygon4423"
         points="8.382,6.016 9.408,4.991 9.408,2.209 8.382,1.184 "
         style="fill:#373737" />
      <rect
         id="rect4425"
         height="3.4779887"
         width="3.5341878"
         y="497.12143"
         x="318.10852" />
      <polygon
         transform="matrix(1.2708335,0,0,1.2501757,297,494.35976)"
         id="polygon4427"
         points="15.584,1.184 16.608,2.209 19.392,2.209 20.417,1.184 "
         style="fill:#2a2a29" />
      <polygon
         transform="matrix(1.2708335,0,0,1.2501757,297,494.35976)"
         id="polygon4429"
         points="20.417,1.184 19.392,2.212 19.392,4.993 20.417,6.016 "
         style="fill:#474747" />
      <polygon
         transform="matrix(1.2708335,0,0,1.2501757,297,494.35976)"
         id="polygon4431"
         points="20.416,6.016 19.391,4.993 16.608,4.993 15.584,6.016 "
         style="fill:#595959" />
      <polygon
         transform="matrix(1.2708335,0,0,1.2501757,297,494.35976)"
         id="polygon4433"
         points="15.583,6.016 16.608,4.991 16.608,2.209 15.583,1.184 "
         style="fill:#373737" />
      <rect
         id="rect4435"
         height="3.4779887"
         width="3.5341878"
         y="497.12143"
         x="327.25983" />
      <polygon
         transform="matrix(1.2708335,0,0,1.2501757,297,494.35976)"
         id="polygon4437"
         points="22.785,1.184 23.809,2.209 26.592,2.209 27.617,1.184 "
         style="fill:#2a2a29" />
      <polygon
         transform="matrix(1.2708335,0,0,1.2501757,297,494.35976)"
         id="polygon4439"
         points="27.617,1.184 26.592,2.212 26.592,4.993 27.617,6.016 "
         style="fill:#474747" />
      <polygon
         transform="matrix(1.2708335,0,0,1.2501757,297,494.35976)"
         id="polygon4441"
         points="27.616,6.016 26.59,4.993 23.809,4.993 22.785,6.016 "
         style="fill:#595959" />
      <polygon
         transform="matrix(1.2708335,0,0,1.2501757,297,494.35976)"
         id="polygon4443"
         points="22.782,6.016 23.809,4.991 23.809,2.209 22.782,1.184 "
         style="fill:#373737" />
      <rect
         id="rect4445"
         height="3.4779887"
         width="3.5341878"
         y="497.12143"
         x="336.40854" />
      <polygon
         transform="matrix(1.2708335,0,0,1.2501757,297,494.35976)"
         id="polygon4447"
         points="29.985,1.184 31.008,2.209 33.792,2.209 34.817,1.184 "
         style="fill:#2a2a29" />
      <polygon
         transform="matrix(1.2708335,0,0,1.2501757,297,494.35976)"
         id="polygon4449"
         points="34.817,1.184 33.792,2.212 33.792,4.993 34.817,6.016 "
         style="fill:#474747" />
      <polygon
         transform="matrix(1.2708335,0,0,1.2501757,297,494.35976)"
         id="polygon4451"
         points="34.815,6.016 33.791,4.993 31.008,4.993 29.985,6.016 "
         style="fill:#595959" />
      <polygon
         transform="matrix(1.2708335,0,0,1.2501757,297,494.35976)"
         id="polygon4453"
         points="29.983,6.016 31.008,4.991 31.008,2.209 29.983,1.184 "
         style="fill:#373737" />
      <rect
         id="rect4455"
         height="3.4779887"
         width="3.5341878"
         y="497.12143"
         x="345.55856" />
      <polygon
         transform="matrix(1.2708335,0,0,1.2501757,297,494.35976)"
         id="polygon4457"
         points="37.184,1.184 38.208,2.209 40.992,2.209 42.016,1.184 "
         style="fill:#2a2a29" />
      <polygon
         transform="matrix(1.2708335,0,0,1.2501757,297,494.35976)"
         id="polygon4459"
         points="42.016,1.184 40.992,2.212 40.992,4.993 42.016,6.016 "
         style="fill:#474747" />
      <polygon
         transform="matrix(1.2708335,0,0,1.2501757,297,494.35976)"
         id="polygon4461"
         points="42.016,6.016 40.991,4.993 38.208,4.993 37.184,6.016 "
         style="fill:#595959" />
      <polygon
         transform="matrix(1.2708335,0,0,1.2501757,297,494.35976)"
         id="polygon4463"
         points="37.182,6.016 38.208,4.991 38.208,2.209 37.182,1.184 "
         style="fill:#373737" />
    </g>
  </g>
</svg>
