<?xml version="1.0" encoding="UTF-8" standalone="no"?>
<!-- Created with Inkscape (http://www.inkscape.org/) -->

<svg
   xmlns:dc="http://purl.org/dc/elements/1.1/"
   xmlns:cc="http://creativecommons.org/ns#"
   xmlns:rdf="http://www.w3.org/1999/02/22-rdf-syntax-ns#"
   xmlns:svg="http://www.w3.org/2000/svg"
   xmlns="http://www.w3.org/2000/svg"
   xmlns:sodipodi="http://sodipodi.sourceforge.net/DTD/sodipodi-0.dtd"
   xmlns:inkscape="http://www.inkscape.org/namespaces/inkscape"
   width="72.899994"
   height="17.99999"
   id="svg2"
   version="1.1"
   inkscape:version="0.47 r22583"
   sodipodi:docname="F-20x1.svg">
  <defs
     id="defs4">
    <inkscape:perspective
       sodipodi:type="inkscape:persp3d"
       inkscape:vp_x="0 : 526.18109 : 1"
       inkscape:vp_y="0 : 1000 : 0"
       inkscape:vp_z="744.09448 : 526.18109 : 1"
       inkscape:persp3d-origin="372.04724 : 350.78739 : 1"
       id="perspective10" />
    <inkscape:perspective
       id="perspective3046"
       inkscape:persp3d-origin="0.5 : 0.33333333 : 1"
       inkscape:vp_z="1 : 0.5 : 1"
       inkscape:vp_y="0 : 1000 : 0"
       inkscape:vp_x="0 : 0.5 : 1"
       sodipodi:type="inkscape:persp3d" />
    <inkscape:perspective
       id="perspective3422"
       inkscape:persp3d-origin="0.5 : 0.33333333 : 1"
       inkscape:vp_z="1 : 0.5 : 1"
       inkscape:vp_y="0 : 1000 : 0"
       inkscape:vp_x="0 : 0.5 : 1"
       sodipodi:type="inkscape:persp3d" />
    <inkscape:perspective
       id="perspective3756"
       inkscape:persp3d-origin="0.5 : 0.33333333 : 1"
       inkscape:vp_z="1 : 0.5 : 1"
       inkscape:vp_y="0 : 1000 : 0"
       inkscape:vp_x="0 : 0.5 : 1"
       sodipodi:type="inkscape:persp3d" />
    <inkscape:perspective
       id="perspective4481"
       inkscape:persp3d-origin="0.5 : 0.33333333 : 1"
       inkscape:vp_z="1 : 0.5 : 1"
       inkscape:vp_y="0 : 1000 : 0"
       inkscape:vp_x="0 : 0.5 : 1"
       sodipodi:type="inkscape:persp3d" />
    <inkscape:perspective
       id="perspective4895"
       inkscape:persp3d-origin="0.5 : 0.33333333 : 1"
       inkscape:vp_z="1 : 0.5 : 1"
       inkscape:vp_y="0 : 1000 : 0"
       inkscape:vp_x="0 : 0.5 : 1"
       sodipodi:type="inkscape:persp3d" />
    <inkscape:perspective
       id="perspective5349"
       inkscape:persp3d-origin="0.5 : 0.33333333 : 1"
       inkscape:vp_z="1 : 0.5 : 1"
       inkscape:vp_y="0 : 1000 : 0"
       inkscape:vp_x="0 : 0.5 : 1"
       sodipodi:type="inkscape:persp3d" />
    <inkscape:perspective
       id="perspective5843"
       inkscape:persp3d-origin="0.5 : 0.33333333 : 1"
       inkscape:vp_z="1 : 0.5 : 1"
       inkscape:vp_y="0 : 1000 : 0"
       inkscape:vp_x="0 : 0.5 : 1"
       sodipodi:type="inkscape:persp3d" />
    <inkscape:perspective
       id="perspective6377"
       inkscape:persp3d-origin="0.5 : 0.33333333 : 1"
       inkscape:vp_z="1 : 0.5 : 1"
       inkscape:vp_y="0 : 1000 : 0"
       inkscape:vp_x="0 : 0.5 : 1"
       sodipodi:type="inkscape:persp3d" />
    <inkscape:perspective
       id="perspective7112"
       inkscape:persp3d-origin="0.5 : 0.33333333 : 1"
       inkscape:vp_z="1 : 0.5 : 1"
       inkscape:vp_y="0 : 1000 : 0"
       inkscape:vp_x="0 : 0.5 : 1"
       sodipodi:type="inkscape:persp3d" />
    <inkscape:perspective
       id="perspective16910"
       inkscape:persp3d-origin="0.5 : 0.33333333 : 1"
       inkscape:vp_z="1 : 0.5 : 1"
       inkscape:vp_y="0 : 1000 : 0"
       inkscape:vp_x="0 : 0.5 : 1"
       sodipodi:type="inkscape:persp3d" />
    <inkscape:perspective
       id="perspective34186"
       inkscape:persp3d-origin="0.5 : 0.33333333 : 1"
       inkscape:vp_z="1 : 0.5 : 1"
       inkscape:vp_y="0 : 1000 : 0"
       inkscape:vp_x="0 : 0.5 : 1"
       sodipodi:type="inkscape:persp3d" />
  </defs>
  <sodipodi:namedview
     id="base"
     pagecolor="#ffffff"
     bordercolor="#666666"
     borderopacity="1.0"
     inkscape:pageopacity="0.0"
     inkscape:pageshadow="2"
     inkscape:zoom="15.839192"
     inkscape:cx="44.316697"
     inkscape:cy="18.843217"
     inkscape:document-units="in"
     inkscape:current-layer="layer1"
     showgrid="true"
     units="in"
     inkscape:window-width="1680"
     inkscape:window-height="990"
     inkscape:window-x="-4"
     inkscape:window-y="-4"
     inkscape:window-maximized="1">
    <inkscape:grid
       type="xygrid"
       id="grid2816"
       empspacing="10"
       visible="true"
       enabled="true"
       snapvisiblegridlinesonly="false"
       units="in"
       spacingx="0.01in"
       spacingy="0.01in"
       empcolor="#991800"
       empopacity="0.25098039" />
  </sodipodi:namedview>
  <metadata
     id="metadata7">
    <rdf:RDF>
      <cc:Work
         rdf:about="">
        <dc:format>image/svg+xml</dc:format>
        <dc:type
           rdf:resource="http://purl.org/dc/dcmitype/StillImage" />
        <dc:title></dc:title>
      </cc:Work>
    </rdf:RDF>
  </metadata>
  <g
     inkscape:label="Layer 1"
     inkscape:groupmode="layer"
     id="layer1"
     transform="translate(-296.99999,-494.35971)">
    <g
       id="g34704">
      <rect
         id="rect34004"
         height="8.999382"
         width="72.899986"
         y="494.35971"
         x="297"
         style="fill:#404040" />
      <rect
         id="rect34006"
         height="3.4777443"
         width="3.5197024"
         y="497.12119"
         x="299.79703" />
      <polygon
         transform="matrix(1.2656248,0,0,1.2500878,296.99999,494.35968)"
         id="polygon34008"
         points="6.017,1.184 1.185,1.184 2.208,2.209 4.991,2.209 "
         style="fill:#2a2a29" />
      <polygon
         transform="matrix(1.2656248,0,0,1.2500878,296.99999,494.35968)"
         id="polygon34010"
         points="6.017,6.016 6.017,1.184 4.991,2.212 4.991,4.993 "
         style="fill:#474747" />
      <polygon
         transform="matrix(1.2656248,0,0,1.2500878,296.99999,494.35968)"
         id="polygon34012"
         points="1.185,6.016 6.016,6.016 4.99,4.993 2.208,4.993 "
         style="fill:#595959" />
      <polygon
         transform="matrix(1.2656248,0,0,1.2500878,296.99999,494.35968)"
         id="polygon34014"
         points="1.183,1.184 1.183,6.016 2.208,4.991 2.208,2.209 "
         style="fill:#373737" />
      <rect
         id="rect34016"
         height="3.4777443"
         width="3.5197024"
         y="497.12119"
         x="308.90955" />
      <polygon
         transform="matrix(1.2656248,0,0,1.2500878,296.99999,494.35968)"
         id="polygon34018"
         points="13.217,1.184 8.384,1.184 9.408,2.209 12.192,2.209 "
         style="fill:#2a2a29" />
      <polygon
         transform="matrix(1.2656248,0,0,1.2500878,296.99999,494.35968)"
         id="polygon34020"
         points="13.217,6.016 13.217,1.184 12.192,2.212 12.192,4.993 "
         style="fill:#474747" />
      <polygon
         transform="matrix(1.2656248,0,0,1.2500878,296.99999,494.35968)"
         id="polygon34022"
         points="8.384,6.016 13.215,6.016 12.191,4.993 9.408,4.993 "
         style="fill:#595959" />
      <polygon
         transform="matrix(1.2656248,0,0,1.2500878,296.99999,494.35968)"
         id="polygon34024"
         points="8.382,1.184 8.382,6.016 9.408,4.991 9.408,2.209 "
         style="fill:#373737" />
      <rect
         id="rect34026"
         height="3.4777443"
         width="3.5197024"
         y="497.12119"
         x="318.02328" />
      <polygon
         transform="matrix(1.2656248,0,0,1.2500878,296.99999,494.35968)"
         id="polygon34028"
         points="20.416,1.184 15.584,1.184 16.609,2.209 19.392,2.209 "
         style="fill:#2a2a29" />
      <polygon
         transform="matrix(1.2656248,0,0,1.2500878,296.99999,494.35968)"
         id="polygon34030"
         points="20.416,6.016 20.416,1.184 19.392,2.212 19.392,4.993 "
         style="fill:#474747" />
      <polygon
         transform="matrix(1.2656248,0,0,1.2500878,296.99999,494.35968)"
         id="polygon34032"
         points="15.584,6.016 20.415,6.016 19.391,4.993 16.609,4.993 "
         style="fill:#595959" />
      <polygon
         transform="matrix(1.2656248,0,0,1.2500878,296.99999,494.35968)"
         id="polygon34034"
         points="15.582,1.184 15.582,6.016 16.609,4.991 16.609,2.209 "
         style="fill:#373737" />
      <rect
         id="rect34036"
         height="3.4777443"
         width="3.5197024"
         y="497.12119"
         x="327.1358" />
      <polygon
         transform="matrix(1.2656248,0,0,1.2500878,296.99999,494.35968)"
         id="polygon34038"
         points="27.616,1.184 22.784,1.184 23.809,2.209 26.592,2.209 "
         style="fill:#2a2a29" />
      <polygon
         transform="matrix(1.2656248,0,0,1.2500878,296.99999,494.35968)"
         id="polygon34040"
         points="27.616,6.016 27.616,1.184 26.592,2.212 26.592,4.993 "
         style="fill:#474747" />
      <polygon
         transform="matrix(1.2656248,0,0,1.2500878,296.99999,494.35968)"
         id="polygon34042"
         points="22.784,6.016 27.615,6.016 26.59,4.993 23.809,4.993 "
         style="fill:#595959" />
      <polygon
         transform="matrix(1.2656248,0,0,1.2500878,296.99999,494.35968)"
         id="polygon34044"
         points="22.782,1.184 22.782,6.016 23.809,4.991 23.809,2.209 "
         style="fill:#373737" />
      <rect
         id="rect34046"
         height="3.4777443"
         width="3.5197024"
         y="497.12119"
         x="336.24704" />
      <polygon
         transform="matrix(1.2656248,0,0,1.2500878,296.99999,494.35968)"
         id="polygon34048"
         points="34.817,1.184 29.985,1.184 31.008,2.209 33.791,2.209 "
         style="fill:#2a2a29" />
      <polygon
         transform="matrix(1.2656248,0,0,1.2500878,296.99999,494.35968)"
         id="polygon34050"
         points="34.817,6.016 34.817,1.184 33.791,2.212 33.791,4.993 "
         style="fill:#474747" />
      <polygon
         transform="matrix(1.2656248,0,0,1.2500878,296.99999,494.35968)"
         id="polygon34052"
         points="29.985,6.016 34.816,6.016 33.79,4.993 31.008,4.993 "
         style="fill:#595959" />
      <polygon
         transform="matrix(1.2656248,0,0,1.2500878,296.99999,494.35968)"
         id="polygon34054"
         points="29.983,1.184 29.983,6.016 31.008,4.991 31.008,2.209 "
         style="fill:#373737" />
      <rect
         id="rect34056"
         height="3.4777443"
         width="3.5197024"
         y="497.12119"
         x="345.35953" />
      <polygon
         transform="matrix(1.2656248,0,0,1.2500878,296.99999,494.35968)"
         id="polygon34058"
         points="42.017,1.184 37.185,1.184 38.208,2.209 40.991,2.209 "
         style="fill:#2a2a29" />
      <polygon
         transform="matrix(1.2656248,0,0,1.2500878,296.99999,494.35968)"
         id="polygon34060"
         points="42.017,6.016 42.017,1.184 40.991,2.212 40.991,4.993 "
         style="fill:#474747" />
      <polygon
         transform="matrix(1.2656248,0,0,1.2500878,296.99999,494.35968)"
         id="polygon34062"
         points="37.185,6.016 42.016,6.016 40.99,4.993 38.208,4.993 "
         style="fill:#595959" />
      <polygon
         transform="matrix(1.2656248,0,0,1.2500878,296.99999,494.35968)"
         id="polygon34064"
         points="37.183,1.184 37.183,6.016 38.208,4.991 38.208,2.209 "
         style="fill:#373737" />
      <rect
         id="rect34066"
         height="3.4777443"
         width="3.5197024"
         y="497.12119"
         x="354.47202" />
      <polygon
         transform="matrix(1.2656248,0,0,1.2500878,296.99999,494.35968)"
         id="polygon34068"
         points="49.217,1.184 44.384,1.184 45.408,2.209 48.192,2.209 "
         style="fill:#2a2a29" />
      <polygon
         transform="matrix(1.2656248,0,0,1.2500878,296.99999,494.35968)"
         id="polygon34070"
         points="49.217,6.016 49.217,1.184 48.192,2.212 48.192,4.993 "
         style="fill:#474747" />
      <polygon
         transform="matrix(1.2656248,0,0,1.2500878,296.99999,494.35968)"
         id="polygon34072"
         points="44.384,6.016 49.215,6.016 48.191,4.993 45.408,4.993 "
         style="fill:#595959" />
      <polygon
         transform="matrix(1.2656248,0,0,1.2500878,296.99999,494.35968)"
         id="polygon34074"
         points="44.382,1.184 44.382,6.016 45.408,4.991 45.408,2.209 "
         style="fill:#373737" />
      <rect
         id="rect34076"
         height="3.4777443"
         width="3.5197024"
         y="497.12119"
         x="363.58578" />
      <polygon
         transform="matrix(1.2656248,0,0,1.2500878,296.99999,494.35968)"
         id="polygon34078"
         points="56.416,1.184 51.584,1.184 52.609,2.209 55.392,2.209 "
         style="fill:#2a2a29" />
      <polygon
         transform="matrix(1.2656248,0,0,1.2500878,296.99999,494.35968)"
         id="polygon34080"
         points="56.416,6.016 56.416,1.184 55.392,2.212 55.392,4.993 "
         style="fill:#474747" />
      <polygon
         transform="matrix(1.2656248,0,0,1.2500878,296.99999,494.35968)"
         id="polygon34082"
         points="51.584,6.016 56.415,6.016 55.391,4.993 52.609,4.993 "
         style="fill:#595959" />
      <polygon
         transform="matrix(1.2656248,0,0,1.2500878,296.99999,494.35968)"
         id="polygon34084"
         points="51.582,1.184 51.582,6.016 52.609,4.991 52.609,2.209 "
         style="fill:#373737" />
      <g
         id="g34086"
         transform="matrix(1.2656248,0,0,1.2500878,296.99999,503.36032)">
        <rect
           id="rect34088"
           height="7.1989999"
           width="57.599998"
           y="0"
           x="0"
           style="fill:#404040" />
        <rect
           id="rect34090"
           height="2.7820001"
           width="2.7809999"
           y="2.2090001"
           x="2.21" />
        <polygon
           id="polygon34092"
           points="6.017,1.184 1.185,1.184 2.208,2.209 4.991,2.209 "
           style="fill:#2a2a29" />
        <polygon
           id="polygon34094"
           points="6.017,6.016 6.017,1.184 4.991,2.212 4.991,4.993 "
           style="fill:#474747" />
        <polygon
           id="polygon34096"
           points="1.185,6.016 6.016,6.016 4.99,4.993 2.208,4.993 "
           style="fill:#595959" />
        <polygon
           id="polygon34098"
           points="1.183,1.184 1.183,6.016 2.208,4.991 2.208,2.209 "
           style="fill:#373737" />
        <rect
           id="rect34100"
           height="2.7820001"
           width="2.7809999"
           y="2.2090001"
           x="9.4099998" />
        <polygon
           id="polygon34102"
           points="13.217,1.184 8.384,1.184 9.408,2.209 12.192,2.209 "
           style="fill:#2a2a29" />
        <polygon
           id="polygon34104"
           points="13.217,6.016 13.217,1.184 12.192,2.212 12.192,4.993 "
           style="fill:#474747" />
        <polygon
           id="polygon34106"
           points="8.384,6.016 13.215,6.016 12.191,4.993 9.408,4.993 "
           style="fill:#595959" />
        <polygon
           id="polygon34108"
           points="8.382,1.184 8.382,6.016 9.408,4.991 9.408,2.209 "
           style="fill:#373737" />
        <rect
           id="rect34110"
           height="2.7820001"
           width="2.7809999"
           y="2.2090001"
           x="16.611" />
        <polygon
           id="polygon34112"
           points="20.416,1.184 15.584,1.184 16.609,2.209 19.392,2.209 "
           style="fill:#2a2a29" />
        <polygon
           id="polygon34114"
           points="20.416,6.016 20.416,1.184 19.392,2.212 19.392,4.993 "
           style="fill:#474747" />
        <polygon
           id="polygon34116"
           points="15.584,6.016 20.415,6.016 19.391,4.993 16.609,4.993 "
           style="fill:#595959" />
        <polygon
           id="polygon34118"
           points="15.582,1.184 15.582,6.016 16.609,4.991 16.609,2.209 "
           style="fill:#373737" />
        <rect
           id="rect34120"
           height="2.7820001"
           width="2.7809999"
           y="2.2090001"
           x="23.811001" />
        <polygon
           id="polygon34122"
           points="27.616,1.184 22.784,1.184 23.809,2.209 26.592,2.209 "
           style="fill:#2a2a29" />
        <polygon
           id="polygon34124"
           points="27.616,6.016 27.616,1.184 26.592,2.212 26.592,4.993 "
           style="fill:#474747" />
        <polygon
           id="polygon34126"
           points="22.784,6.016 27.615,6.016 26.59,4.993 23.809,4.993 "
           style="fill:#595959" />
        <polygon
           id="polygon34128"
           points="22.782,1.184 22.782,6.016 23.809,4.991 23.809,2.209 "
           style="fill:#373737" />
        <rect
           id="rect34130"
           height="2.7820001"
           width="2.7809999"
           y="2.2090001"
           x="31.01" />
        <polygon
           id="polygon34132"
           points="34.817,1.184 29.985,1.184 31.008,2.209 33.791,2.209 "
           style="fill:#2a2a29" />
        <polygon
           id="polygon34134"
           points="34.817,6.016 34.817,1.184 33.791,2.212 33.791,4.993 "
           style="fill:#474747" />
        <polygon
           id="polygon34136"
           points="29.985,6.016 34.816,6.016 33.79,4.993 31.008,4.993 "
           style="fill:#595959" />
        <polygon
           id="polygon34138"
           points="29.983,1.184 29.983,6.016 31.008,4.991 31.008,2.209 "
           style="fill:#373737" />
        <rect
           id="rect34140"
           height="2.7820001"
           width="2.7809999"
           y="2.2090001"
           x="38.209999" />
        <polygon
           id="polygon34142"
           points="42.017,1.184 37.185,1.184 38.208,2.209 40.991,2.209 "
           style="fill:#2a2a29" />
        <polygon
           id="polygon34144"
           points="42.017,6.016 42.017,1.184 40.991,2.212 40.991,4.993 "
           style="fill:#474747" />
        <polygon
           id="polygon34146"
           points="37.185,6.016 42.016,6.016 40.99,4.993 38.208,4.993 "
           style="fill:#595959" />
        <polygon
           id="polygon34148"
           points="37.183,1.184 37.183,6.016 38.208,4.991 38.208,2.209 "
           style="fill:#373737" />
        <rect
           id="rect34150"
           height="2.7820001"
           width="2.7809999"
           y="2.2090001"
           x="45.41" />
        <polygon
           id="polygon34152"
           points="49.217,1.184 44.384,1.184 45.408,2.209 48.192,2.209 "
           style="fill:#2a2a29" />
        <polygon
           id="polygon34154"
           points="49.217,6.016 49.217,1.184 48.192,2.212 48.192,4.993 "
           style="fill:#474747" />
        <polygon
           id="polygon34156"
           points="44.384,6.016 49.215,6.016 48.191,4.993 45.408,4.993 "
           style="fill:#595959" />
        <polygon
           id="polygon34158"
           points="44.382,1.184 44.382,6.016 45.408,4.991 45.408,2.209 "
           style="fill:#373737" />
        <rect
           id="rect34160"
           height="2.7820001"
           width="2.7809999"
           y="2.2090001"
           x="52.611" />
        <polygon
           id="polygon34162"
           points="56.416,1.184 51.584,1.184 52.609,2.209 55.392,2.209 "
           style="fill:#2a2a29" />
        <polygon
           id="polygon34164"
           points="56.416,6.016 56.416,1.184 55.392,2.212 55.392,4.993 "
           style="fill:#474747" />
        <polygon
           id="polygon34166"
           points="51.584,6.016 56.415,6.016 55.391,4.993 52.609,4.993 "
           style="fill:#595959" />
        <polygon
           id="polygon34168"
           points="51.582,1.184 51.582,6.016 52.609,4.991 52.609,2.209 "
           style="fill:#373737" />
      </g>
    </g>
  </g>
</svg>
