<?xml version="1.0" encoding="UTF-8" standalone="no"?>
<!-- Created with Inkscape (http://www.inkscape.org/) -->

<svg
   xmlns:dc="http://purl.org/dc/elements/1.1/"
   xmlns:cc="http://creativecommons.org/ns#"
   xmlns:rdf="http://www.w3.org/1999/02/22-rdf-syntax-ns#"
   xmlns:svg="http://www.w3.org/2000/svg"
   xmlns="http://www.w3.org/2000/svg"
   xmlns:sodipodi="http://sodipodi.sourceforge.net/DTD/sodipodi-0.dtd"
   xmlns:inkscape="http://www.inkscape.org/namespaces/inkscape"
   width="72.899994"
   height="9.0000029"
   id="svg2"
   version="1.1"
   inkscape:version="0.47 r22583"
   sodipodi:docname="F-7x1.svg">
  <defs
     id="defs4">
    <inkscape:perspective
       sodipodi:type="inkscape:persp3d"
       inkscape:vp_x="0 : 526.18109 : 1"
       inkscape:vp_y="0 : 1000 : 0"
       inkscape:vp_z="744.09448 : 526.18109 : 1"
       inkscape:persp3d-origin="372.04724 : 350.78739 : 1"
       id="perspective10" />
    <inkscape:perspective
       id="perspective3046"
       inkscape:persp3d-origin="0.5 : 0.33333333 : 1"
       inkscape:vp_z="1 : 0.5 : 1"
       inkscape:vp_y="0 : 1000 : 0"
       inkscape:vp_x="0 : 0.5 : 1"
       sodipodi:type="inkscape:persp3d" />
    <inkscape:perspective
       id="perspective3422"
       inkscape:persp3d-origin="0.5 : 0.33333333 : 1"
       inkscape:vp_z="1 : 0.5 : 1"
       inkscape:vp_y="0 : 1000 : 0"
       inkscape:vp_x="0 : 0.5 : 1"
       sodipodi:type="inkscape:persp3d" />
    <inkscape:perspective
       id="perspective3756"
       inkscape:persp3d-origin="0.5 : 0.33333333 : 1"
       inkscape:vp_z="1 : 0.5 : 1"
       inkscape:vp_y="0 : 1000 : 0"
       inkscape:vp_x="0 : 0.5 : 1"
       sodipodi:type="inkscape:persp3d" />
    <inkscape:perspective
       id="perspective4481"
       inkscape:persp3d-origin="0.5 : 0.33333333 : 1"
       inkscape:vp_z="1 : 0.5 : 1"
       inkscape:vp_y="0 : 1000 : 0"
       inkscape:vp_x="0 : 0.5 : 1"
       sodipodi:type="inkscape:persp3d" />
    <inkscape:perspective
       id="perspective4895"
       inkscape:persp3d-origin="0.5 : 0.33333333 : 1"
       inkscape:vp_z="1 : 0.5 : 1"
       inkscape:vp_y="0 : 1000 : 0"
       inkscape:vp_x="0 : 0.5 : 1"
       sodipodi:type="inkscape:persp3d" />
    <inkscape:perspective
       id="perspective5349"
       inkscape:persp3d-origin="0.5 : 0.33333333 : 1"
       inkscape:vp_z="1 : 0.5 : 1"
       inkscape:vp_y="0 : 1000 : 0"
       inkscape:vp_x="0 : 0.5 : 1"
       sodipodi:type="inkscape:persp3d" />
  </defs>
  <sodipodi:namedview
     id="base"
     pagecolor="#ffffff"
     bordercolor="#666666"
     borderopacity="1.0"
     inkscape:pageopacity="0.0"
     inkscape:pageshadow="2"
     inkscape:zoom="15.839192"
     inkscape:cx="48.738508"
     inkscape:cy="0.84330658"
     inkscape:document-units="in"
     inkscape:current-layer="layer1"
     showgrid="true"
     units="in"
     inkscape:window-width="1680"
     inkscape:window-height="990"
     inkscape:window-x="-4"
     inkscape:window-y="-4"
     inkscape:window-maximized="1">
    <inkscape:grid
       type="xygrid"
       id="grid2816"
       empspacing="10"
       visible="true"
       enabled="true"
       snapvisiblegridlinesonly="false"
       units="in"
       spacingx="0.01in"
       spacingy="0.01in"
       empcolor="#991800"
       empopacity="0.25098039" />
  </sodipodi:namedview>
  <metadata
     id="metadata7">
    <rdf:RDF>
      <cc:Work
         rdf:about="">
        <dc:format>image/svg+xml</dc:format>
        <dc:type
           rdf:resource="http://purl.org/dc/dcmitype/StillImage" />
        <dc:title></dc:title>
      </cc:Work>
    </rdf:RDF>
  </metadata>
  <g
     inkscape:label="Layer 1"
     inkscape:groupmode="layer"
     id="layer1"
     transform="translate(-297,-494.35974)">
    <g
       id="g5483">
      <rect
         id="rect5251"
         height="9.0000029"
         width="72.899994"
         y="494.35974"
         x="297"
         style="fill:#404040" />
      <rect
         id="rect5253"
         height="3.4779842"
         width="3.5197027"
         y="497.1214"
         x="299.79703" />
      <polygon
         transform="matrix(1.2656249,0,0,1.250174,297,494.35975)"
         id="polygon5255"
         points="1.185,1.184 2.208,2.209 4.991,2.209 6.017,1.184 "
         style="fill:#2a2a29" />
      <polygon
         transform="matrix(1.2656249,0,0,1.250174,297,494.35975)"
         id="polygon5257"
         points="6.017,1.184 4.991,2.212 4.991,4.993 6.017,6.016 "
         style="fill:#474747" />
      <polygon
         transform="matrix(1.2656249,0,0,1.250174,297,494.35975)"
         id="polygon5259"
         points="6.016,6.016 4.99,4.993 2.208,4.993 1.185,6.016 "
         style="fill:#595959" />
      <polygon
         transform="matrix(1.2656249,0,0,1.250174,297,494.35975)"
         id="polygon5261"
         points="1.183,6.016 2.208,4.991 2.208,2.209 1.183,1.184 "
         style="fill:#373737" />
      <rect
         id="rect5263"
         height="3.4779842"
         width="3.5197027"
         y="497.1214"
         x="308.90955" />
      <polygon
         transform="matrix(1.2656249,0,0,1.250174,297,494.35975)"
         id="polygon5265"
         points="8.384,1.184 9.408,2.209 12.192,2.209 13.217,1.184 "
         style="fill:#2a2a29" />
      <polygon
         transform="matrix(1.2656249,0,0,1.250174,297,494.35975)"
         id="polygon5267"
         points="13.217,1.184 12.192,2.212 12.192,4.993 13.217,6.016 "
         style="fill:#474747" />
      <polygon
         transform="matrix(1.2656249,0,0,1.250174,297,494.35975)"
         id="polygon5269"
         points="13.215,6.016 12.191,4.993 9.408,4.993 8.384,6.016 "
         style="fill:#595959" />
      <polygon
         transform="matrix(1.2656249,0,0,1.250174,297,494.35975)"
         id="polygon5271"
         points="8.382,6.016 9.408,4.991 9.408,2.209 8.382,1.184 "
         style="fill:#373737" />
      <rect
         id="rect5273"
         height="3.4779842"
         width="3.5197027"
         y="497.1214"
         x="318.02328" />
      <polygon
         transform="matrix(1.2656249,0,0,1.250174,297,494.35975)"
         id="polygon5275"
         points="15.584,1.184 16.609,2.209 19.392,2.209 20.416,1.184 "
         style="fill:#2a2a29" />
      <polygon
         transform="matrix(1.2656249,0,0,1.250174,297,494.35975)"
         id="polygon5277"
         points="20.416,1.184 19.392,2.212 19.392,4.993 20.416,6.016 "
         style="fill:#474747" />
      <polygon
         transform="matrix(1.2656249,0,0,1.250174,297,494.35975)"
         id="polygon5279"
         points="20.415,6.016 19.391,4.993 16.609,4.993 15.584,6.016 "
         style="fill:#595959" />
      <polygon
         transform="matrix(1.2656249,0,0,1.250174,297,494.35975)"
         id="polygon5281"
         points="15.582,6.016 16.609,4.991 16.609,2.209 15.582,1.184 "
         style="fill:#373737" />
      <rect
         id="rect5283"
         height="3.4779842"
         width="3.5197027"
         y="497.1214"
         x="327.1358" />
      <polygon
         transform="matrix(1.2656249,0,0,1.250174,297,494.35975)"
         id="polygon5285"
         points="22.784,1.184 23.809,2.209 26.592,2.209 27.616,1.184 "
         style="fill:#2a2a29" />
      <polygon
         transform="matrix(1.2656249,0,0,1.250174,297,494.35975)"
         id="polygon5287"
         points="27.616,1.184 26.592,2.212 26.592,4.993 27.616,6.016 "
         style="fill:#474747" />
      <polygon
         transform="matrix(1.2656249,0,0,1.250174,297,494.35975)"
         id="polygon5289"
         points="27.615,6.016 26.59,4.993 23.809,4.993 22.784,6.016 "
         style="fill:#595959" />
      <polygon
         transform="matrix(1.2656249,0,0,1.250174,297,494.35975)"
         id="polygon5291"
         points="22.782,6.016 23.809,4.991 23.809,2.209 22.782,1.184 "
         style="fill:#373737" />
      <rect
         id="rect5293"
         height="3.4779842"
         width="3.5197027"
         y="497.1214"
         x="336.24704" />
      <polygon
         transform="matrix(1.2656249,0,0,1.250174,297,494.35975)"
         id="polygon5295"
         points="29.985,1.184 31.008,2.209 33.791,2.209 34.817,1.184 "
         style="fill:#2a2a29" />
      <polygon
         transform="matrix(1.2656249,0,0,1.250174,297,494.35975)"
         id="polygon5297"
         points="34.817,1.184 33.791,2.212 33.791,4.993 34.817,6.016 "
         style="fill:#474747" />
      <polygon
         transform="matrix(1.2656249,0,0,1.250174,297,494.35975)"
         id="polygon5299"
         points="34.816,6.016 33.79,4.993 31.008,4.993 29.985,6.016 "
         style="fill:#595959" />
      <polygon
         transform="matrix(1.2656249,0,0,1.250174,297,494.35975)"
         id="polygon5301"
         points="29.983,6.016 31.008,4.991 31.008,2.209 29.983,1.184 "
         style="fill:#373737" />
      <rect
         id="rect5303"
         height="3.4779842"
         width="3.5197027"
         y="497.1214"
         x="345.35953" />
      <polygon
         transform="matrix(1.2656249,0,0,1.250174,297,494.35975)"
         id="polygon5305"
         points="37.185,1.184 38.208,2.209 40.991,2.209 42.017,1.184 "
         style="fill:#2a2a29" />
      <polygon
         transform="matrix(1.2656249,0,0,1.250174,297,494.35975)"
         id="polygon5307"
         points="42.017,1.184 40.991,2.212 40.991,4.993 42.017,6.016 "
         style="fill:#474747" />
      <polygon
         transform="matrix(1.2656249,0,0,1.250174,297,494.35975)"
         id="polygon5309"
         points="42.016,6.016 40.99,4.993 38.208,4.993 37.185,6.016 "
         style="fill:#595959" />
      <polygon
         transform="matrix(1.2656249,0,0,1.250174,297,494.35975)"
         id="polygon5311"
         points="37.183,6.016 38.208,4.991 38.208,2.209 37.183,1.184 "
         style="fill:#373737" />
      <rect
         id="rect5313"
         height="3.4779842"
         width="3.5197027"
         y="497.1214"
         x="354.47202" />
      <polygon
         transform="matrix(1.2656249,0,0,1.250174,297,494.35975)"
         id="polygon5315"
         points="44.384,1.184 45.408,2.209 48.192,2.209 49.217,1.184 "
         style="fill:#2a2a29" />
      <polygon
         transform="matrix(1.2656249,0,0,1.250174,297,494.35975)"
         id="polygon5317"
         points="49.217,1.184 48.192,2.212 48.192,4.993 49.217,6.016 "
         style="fill:#474747" />
      <polygon
         transform="matrix(1.2656249,0,0,1.250174,297,494.35975)"
         id="polygon5319"
         points="49.215,6.016 48.191,4.993 45.408,4.993 44.384,6.016 "
         style="fill:#595959" />
      <polygon
         transform="matrix(1.2656249,0,0,1.250174,297,494.35975)"
         id="polygon5321"
         points="44.382,6.016 45.408,4.991 45.408,2.209 44.382,1.184 "
         style="fill:#373737" />
      <rect
         id="rect5323"
         height="3.4779842"
         width="3.5197027"
         y="497.1214"
         x="363.58578" />
      <polygon
         transform="matrix(1.2656249,0,0,1.250174,297,494.35975)"
         id="polygon5325"
         points="51.584,1.184 52.609,2.209 55.392,2.209 56.416,1.184 "
         style="fill:#2a2a29" />
      <polygon
         transform="matrix(1.2656249,0,0,1.250174,297,494.35975)"
         id="polygon5327"
         points="56.416,1.184 55.392,2.212 55.392,4.993 56.416,6.016 "
         style="fill:#474747" />
      <polygon
         transform="matrix(1.2656249,0,0,1.250174,297,494.35975)"
         id="polygon5329"
         points="56.415,6.016 55.391,4.993 52.609,4.993 51.584,6.016 "
         style="fill:#595959" />
      <polygon
         transform="matrix(1.2656249,0,0,1.250174,297,494.35975)"
         id="polygon5331"
         points="51.582,6.016 52.609,4.991 52.609,2.209 51.582,1.184 "
         style="fill:#373737" />
    </g>
  </g>
</svg>
