<?xml version="1.0" encoding="UTF-8" standalone="no"?>
<!-- Created with Inkscape (http://www.inkscape.org/) -->

<svg
   xmlns:dc="http://purl.org/dc/elements/1.1/"
   xmlns:cc="http://creativecommons.org/ns#"
   xmlns:rdf="http://www.w3.org/1999/02/22-rdf-syntax-ns#"
   xmlns:svg="http://www.w3.org/2000/svg"
   xmlns="http://www.w3.org/2000/svg"
   xmlns:sodipodi="http://sodipodi.sourceforge.net/DTD/sodipodi-0.dtd"
   xmlns:inkscape="http://www.inkscape.org/namespaces/inkscape"
   width="81.89257"
   height="8.9999866"
   id="svg2"
   version="1.1"
   inkscape:version="0.47 r22583"
   sodipodi:docname="F-8x1.svg">
  <defs
     id="defs4">
    <inkscape:perspective
       sodipodi:type="inkscape:persp3d"
       inkscape:vp_x="0 : 526.18109 : 1"
       inkscape:vp_y="0 : 1000 : 0"
       inkscape:vp_z="744.09448 : 526.18109 : 1"
       inkscape:persp3d-origin="372.04724 : 350.78739 : 1"
       id="perspective10" />
    <inkscape:perspective
       id="perspective3046"
       inkscape:persp3d-origin="0.5 : 0.33333333 : 1"
       inkscape:vp_z="1 : 0.5 : 1"
       inkscape:vp_y="0 : 1000 : 0"
       inkscape:vp_x="0 : 0.5 : 1"
       sodipodi:type="inkscape:persp3d" />
    <inkscape:perspective
       id="perspective3422"
       inkscape:persp3d-origin="0.5 : 0.33333333 : 1"
       inkscape:vp_z="1 : 0.5 : 1"
       inkscape:vp_y="0 : 1000 : 0"
       inkscape:vp_x="0 : 0.5 : 1"
       sodipodi:type="inkscape:persp3d" />
    <inkscape:perspective
       id="perspective3756"
       inkscape:persp3d-origin="0.5 : 0.33333333 : 1"
       inkscape:vp_z="1 : 0.5 : 1"
       inkscape:vp_y="0 : 1000 : 0"
       inkscape:vp_x="0 : 0.5 : 1"
       sodipodi:type="inkscape:persp3d" />
    <inkscape:perspective
       id="perspective4481"
       inkscape:persp3d-origin="0.5 : 0.33333333 : 1"
       inkscape:vp_z="1 : 0.5 : 1"
       inkscape:vp_y="0 : 1000 : 0"
       inkscape:vp_x="0 : 0.5 : 1"
       sodipodi:type="inkscape:persp3d" />
    <inkscape:perspective
       id="perspective4895"
       inkscape:persp3d-origin="0.5 : 0.33333333 : 1"
       inkscape:vp_z="1 : 0.5 : 1"
       inkscape:vp_y="0 : 1000 : 0"
       inkscape:vp_x="0 : 0.5 : 1"
       sodipodi:type="inkscape:persp3d" />
    <inkscape:perspective
       id="perspective5349"
       inkscape:persp3d-origin="0.5 : 0.33333333 : 1"
       inkscape:vp_z="1 : 0.5 : 1"
       inkscape:vp_y="0 : 1000 : 0"
       inkscape:vp_x="0 : 0.5 : 1"
       sodipodi:type="inkscape:persp3d" />
    <inkscape:perspective
       id="perspective5843"
       inkscape:persp3d-origin="0.5 : 0.33333333 : 1"
       inkscape:vp_z="1 : 0.5 : 1"
       inkscape:vp_y="0 : 1000 : 0"
       inkscape:vp_x="0 : 0.5 : 1"
       sodipodi:type="inkscape:persp3d" />
  </defs>
  <sodipodi:namedview
     id="base"
     pagecolor="#ffffff"
     bordercolor="#666666"
     borderopacity="1.0"
     inkscape:pageopacity="0.0"
     inkscape:pageshadow="2"
     inkscape:zoom="15.839192"
     inkscape:cx="48.738508"
     inkscape:cy="0.84329037"
     inkscape:document-units="in"
     inkscape:current-layer="layer1"
     showgrid="true"
     units="in"
     inkscape:window-width="1680"
     inkscape:window-height="990"
     inkscape:window-x="-4"
     inkscape:window-y="-4"
     inkscape:window-maximized="1">
    <inkscape:grid
       type="xygrid"
       id="grid2816"
       empspacing="10"
       visible="true"
       enabled="true"
       snapvisiblegridlinesonly="false"
       units="in"
       spacingx="0.01in"
       spacingy="0.01in"
       empcolor="#991800"
       empopacity="0.25098039" />
  </sodipodi:namedview>
  <metadata
     id="metadata7">
    <rdf:RDF>
      <cc:Work
         rdf:about="">
        <dc:format>image/svg+xml</dc:format>
        <dc:type
           rdf:resource="http://purl.org/dc/dcmitype/StillImage" />
        <dc:title></dc:title>
      </cc:Work>
    </rdf:RDF>
  </metadata>
  <g
     inkscape:label="Layer 1"
     inkscape:groupmode="layer"
     id="layer1"
     transform="translate(-297,-494.35974)">
    <g
       id="g5992">
      <rect
         id="rect5735"
         height="8.9999866"
         width="81.89257"
         y="494.35974"
         x="297"
         style="fill:#404040" />
      <rect
         id="rect5737"
         height="3.4779782"
         width="3.5145559"
         y="497.1214"
         x="299.79291" />
      <polygon
         transform="matrix(1.2637742,0,0,1.2501718,297,494.35974)"
         id="polygon5739"
         points="4.992,2.209 6.017,1.184 1.185,1.184 2.208,2.209 "
         style="fill:#2a2a29" />
      <polygon
         transform="matrix(1.2637742,0,0,1.2501718,297,494.35974)"
         id="polygon5741"
         points="4.992,4.993 6.017,6.016 6.017,1.184 4.992,2.212 "
         style="fill:#474747" />
      <polygon
         transform="matrix(1.2637742,0,0,1.2501718,297,494.35974)"
         id="polygon5743"
         points="2.208,4.993 1.185,6.016 6.016,6.016 4.991,4.993 "
         style="fill:#595959" />
      <polygon
         transform="matrix(1.2637742,0,0,1.2501718,297,494.35974)"
         id="polygon5745"
         points="2.208,2.209 1.183,1.184 1.183,6.016 2.208,4.991 "
         style="fill:#373737" />
      <rect
         id="rect5747"
         height="3.4779782"
         width="3.5145559"
         y="497.1214"
         x="308.8934" />
      <polygon
         transform="matrix(1.2637742,0,0,1.2501718,297,494.35974)"
         id="polygon5749"
         points="12.191,2.209 13.216,1.184 8.384,1.184 9.408,2.209 "
         style="fill:#2a2a29" />
      <polygon
         transform="matrix(1.2637742,0,0,1.2501718,297,494.35974)"
         id="polygon5751"
         points="12.191,4.993 13.216,6.016 13.216,1.184 12.191,2.212 "
         style="fill:#474747" />
      <polygon
         transform="matrix(1.2637742,0,0,1.2501718,297,494.35974)"
         id="polygon5753"
         points="9.408,4.993 8.384,6.016 13.215,6.016 12.19,4.993 "
         style="fill:#595959" />
      <polygon
         transform="matrix(1.2637742,0,0,1.2501718,297,494.35974)"
         id="polygon5755"
         points="9.408,2.209 8.382,1.184 8.382,6.016 9.408,4.991 "
         style="fill:#373737" />
      <rect
         id="rect5757"
         height="3.4779782"
         width="3.5145559"
         y="497.1214"
         x="317.99127" />
      <polygon
         transform="matrix(1.2637742,0,0,1.2501718,297,494.35974)"
         id="polygon5759"
         points="19.392,2.209 20.417,1.184 15.584,1.184 16.608,2.209 "
         style="fill:#2a2a29" />
      <polygon
         transform="matrix(1.2637742,0,0,1.2501718,297,494.35974)"
         id="polygon5761"
         points="19.392,4.993 20.417,6.016 20.417,1.184 19.392,2.212 "
         style="fill:#474747" />
      <polygon
         transform="matrix(1.2637742,0,0,1.2501718,297,494.35974)"
         id="polygon5763"
         points="16.608,4.993 15.584,6.016 20.416,6.016 19.391,4.993 "
         style="fill:#595959" />
      <polygon
         transform="matrix(1.2637742,0,0,1.2501718,297,494.35974)"
         id="polygon5765"
         points="16.608,2.209 15.583,1.184 15.583,6.016 16.608,4.991 "
         style="fill:#373737" />
      <rect
         id="rect5767"
         height="3.4779782"
         width="3.5145559"
         y="497.1214"
         x="327.09174" />
      <polygon
         transform="matrix(1.2637742,0,0,1.2501718,297,494.35974)"
         id="polygon5769"
         points="26.592,2.209 27.617,1.184 22.785,1.184 23.809,2.209 "
         style="fill:#2a2a29" />
      <polygon
         transform="matrix(1.2637742,0,0,1.2501718,297,494.35974)"
         id="polygon5771"
         points="26.592,4.993 27.617,6.016 27.617,1.184 26.592,2.212 "
         style="fill:#474747" />
      <polygon
         transform="matrix(1.2637742,0,0,1.2501718,297,494.35974)"
         id="polygon5773"
         points="23.809,4.993 22.785,6.016 27.616,6.016 26.59,4.993 "
         style="fill:#595959" />
      <polygon
         transform="matrix(1.2637742,0,0,1.2501718,297,494.35974)"
         id="polygon5775"
         points="23.809,2.209 22.782,1.184 22.782,6.016 23.809,4.991 "
         style="fill:#373737" />
      <rect
         id="rect5777"
         height="3.4779782"
         width="3.5145559"
         y="497.1214"
         x="336.18964" />
      <polygon
         transform="matrix(1.2637742,0,0,1.2501718,297,494.35974)"
         id="polygon5779"
         points="33.792,2.209 34.816,1.184 29.984,1.184 31.008,2.209 "
         style="fill:#2a2a29" />
      <polygon
         transform="matrix(1.2637742,0,0,1.2501718,297,494.35974)"
         id="polygon5781"
         points="33.792,4.993 34.816,6.016 34.816,1.184 33.792,2.212 "
         style="fill:#474747" />
      <polygon
         transform="matrix(1.2637742,0,0,1.2501718,297,494.35974)"
         id="polygon5783"
         points="31.008,4.993 29.984,6.016 34.816,6.016 33.791,4.993 "
         style="fill:#595959" />
      <polygon
         transform="matrix(1.2637742,0,0,1.2501718,297,494.35974)"
         id="polygon5785"
         points="31.008,2.209 29.982,1.184 29.982,6.016 31.008,4.991 "
         style="fill:#373737" />
      <rect
         id="rect5787"
         height="3.4779782"
         width="3.5145559"
         y="497.1214"
         x="345.28879" />
      <polygon
         transform="matrix(1.2637742,0,0,1.2501718,297,494.35974)"
         id="polygon5789"
         points="40.992,2.209 42.017,1.184 37.185,1.184 38.208,2.209 "
         style="fill:#2a2a29" />
      <polygon
         transform="matrix(1.2637742,0,0,1.2501718,297,494.35974)"
         id="polygon5791"
         points="40.992,4.993 42.017,6.016 42.017,1.184 40.992,2.212 "
         style="fill:#474747" />
      <polygon
         transform="matrix(1.2637742,0,0,1.2501718,297,494.35974)"
         id="polygon5793"
         points="38.208,4.993 37.185,6.016 42.015,6.016 40.991,4.993 "
         style="fill:#595959" />
      <polygon
         transform="matrix(1.2637742,0,0,1.2501718,297,494.35974)"
         id="polygon5795"
         points="38.208,2.209 37.183,1.184 37.183,6.016 38.208,4.991 "
         style="fill:#373737" />
      <rect
         id="rect5797"
         height="3.4779782"
         width="3.5132926"
         y="497.1214"
         x="354.38928" />
      <polygon
         transform="matrix(1.2637742,0,0,1.2501718,297,494.35974)"
         id="polygon5799"
         points="48.191,2.209 49.216,1.184 44.384,1.184 45.408,2.209 "
         style="fill:#2a2a29" />
      <polygon
         transform="matrix(1.2637742,0,0,1.2501718,297,494.35974)"
         id="polygon5801"
         points="48.191,4.993 49.216,6.016 49.216,1.184 48.191,2.212 "
         style="fill:#474747" />
      <polygon
         transform="matrix(1.2637742,0,0,1.2501718,297,494.35974)"
         id="polygon5803"
         points="45.408,4.993 44.384,6.016 49.215,6.016 48.191,4.993 "
         style="fill:#595959" />
      <polygon
         transform="matrix(1.2637742,0,0,1.2501718,297,494.35974)"
         id="polygon5805"
         points="45.408,2.209 44.382,1.184 44.382,6.016 45.408,4.991 "
         style="fill:#373737" />
      <rect
         id="rect5807"
         height="3.4779782"
         width="3.5145559"
         y="497.1214"
         x="363.4884" />
      <polygon
         transform="matrix(1.2637742,0,0,1.2501718,297,494.35974)"
         id="polygon5809"
         points="55.392,2.209 56.417,1.184 51.584,1.184 52.609,2.209 "
         style="fill:#2a2a29" />
      <polygon
         transform="matrix(1.2637742,0,0,1.2501718,297,494.35974)"
         id="polygon5811"
         points="55.392,4.993 56.417,6.016 56.417,1.184 55.392,2.212 "
         style="fill:#474747" />
      <polygon
         transform="matrix(1.2637742,0,0,1.2501718,297,494.35974)"
         id="polygon5813"
         points="52.609,4.993 51.584,6.016 56.416,6.016 55.39,4.993 "
         style="fill:#595959" />
      <polygon
         transform="matrix(1.2637742,0,0,1.2501718,297,494.35974)"
         id="polygon5815"
         points="52.609,2.209 51.583,1.184 51.583,6.016 52.609,4.991 "
         style="fill:#373737" />
      <rect
         id="rect5817"
         height="3.4779782"
         width="3.5145559"
         y="497.1214"
         x="372.58633" />
      <polygon
         transform="matrix(1.2637742,0,0,1.2501718,297,494.35974)"
         id="polygon5819"
         points="62.591,2.209 63.617,1.184 58.785,1.184 59.808,2.209 "
         style="fill:#2a2a29" />
      <polygon
         transform="matrix(1.2637742,0,0,1.2501718,297,494.35974)"
         id="polygon5821"
         points="62.591,4.993 63.617,6.016 63.617,1.184 62.591,2.212 "
         style="fill:#474747" />
      <polygon
         transform="matrix(1.2637742,0,0,1.2501718,297,494.35974)"
         id="polygon5823"
         points="59.808,4.993 58.785,6.016 63.616,6.016 62.59,4.993 "
         style="fill:#595959" />
      <polygon
         transform="matrix(1.2637742,0,0,1.2501718,297,494.35974)"
         id="polygon5825"
         points="59.808,2.209 58.783,1.184 58.783,6.016 59.808,4.991 "
         style="fill:#373737" />
    </g>
  </g>
</svg>
