<?xml version="1.0" encoding="UTF-8" standalone="no"?>
<!-- Created with Inkscape (http://www.inkscape.org/) -->

<svg
   xmlns:dc="http://purl.org/dc/elements/1.1/"
   xmlns:cc="http://creativecommons.org/ns#"
   xmlns:rdf="http://www.w3.org/1999/02/22-rdf-syntax-ns#"
   xmlns:svg="http://www.w3.org/2000/svg"
   xmlns="http://www.w3.org/2000/svg"
   xmlns:sodipodi="http://sodipodi.sourceforge.net/DTD/sodipodi-0.dtd"
   xmlns:inkscape="http://www.inkscape.org/namespaces/inkscape"
   width="144.89998"
   height="8.9999952"
   id="svg2"
   version="1.1"
   inkscape:version="0.47 r22583"
   sodipodi:docname="F-10x1.svg">
  <defs
     id="defs4">
    <inkscape:perspective
       sodipodi:type="inkscape:persp3d"
       inkscape:vp_x="0 : 526.18109 : 1"
       inkscape:vp_y="0 : 1000 : 0"
       inkscape:vp_z="744.09448 : 526.18109 : 1"
       inkscape:persp3d-origin="372.04724 : 350.78739 : 1"
       id="perspective10" />
    <inkscape:perspective
       id="perspective3046"
       inkscape:persp3d-origin="0.5 : 0.33333333 : 1"
       inkscape:vp_z="1 : 0.5 : 1"
       inkscape:vp_y="0 : 1000 : 0"
       inkscape:vp_x="0 : 0.5 : 1"
       sodipodi:type="inkscape:persp3d" />
    <inkscape:perspective
       id="perspective3422"
       inkscape:persp3d-origin="0.5 : 0.33333333 : 1"
       inkscape:vp_z="1 : 0.5 : 1"
       inkscape:vp_y="0 : 1000 : 0"
       inkscape:vp_x="0 : 0.5 : 1"
       sodipodi:type="inkscape:persp3d" />
    <inkscape:perspective
       id="perspective3756"
       inkscape:persp3d-origin="0.5 : 0.33333333 : 1"
       inkscape:vp_z="1 : 0.5 : 1"
       inkscape:vp_y="0 : 1000 : 0"
       inkscape:vp_x="0 : 0.5 : 1"
       sodipodi:type="inkscape:persp3d" />
    <inkscape:perspective
       id="perspective4481"
       inkscape:persp3d-origin="0.5 : 0.33333333 : 1"
       inkscape:vp_z="1 : 0.5 : 1"
       inkscape:vp_y="0 : 1000 : 0"
       inkscape:vp_x="0 : 0.5 : 1"
       sodipodi:type="inkscape:persp3d" />
    <inkscape:perspective
       id="perspective4895"
       inkscape:persp3d-origin="0.5 : 0.33333333 : 1"
       inkscape:vp_z="1 : 0.5 : 1"
       inkscape:vp_y="0 : 1000 : 0"
       inkscape:vp_x="0 : 0.5 : 1"
       sodipodi:type="inkscape:persp3d" />
    <inkscape:perspective
       id="perspective5349"
       inkscape:persp3d-origin="0.5 : 0.33333333 : 1"
       inkscape:vp_z="1 : 0.5 : 1"
       inkscape:vp_y="0 : 1000 : 0"
       inkscape:vp_x="0 : 0.5 : 1"
       sodipodi:type="inkscape:persp3d" />
    <inkscape:perspective
       id="perspective5843"
       inkscape:persp3d-origin="0.5 : 0.33333333 : 1"
       inkscape:vp_z="1 : 0.5 : 1"
       inkscape:vp_y="0 : 1000 : 0"
       inkscape:vp_x="0 : 0.5 : 1"
       sodipodi:type="inkscape:persp3d" />
    <inkscape:perspective
       id="perspective6377"
       inkscape:persp3d-origin="0.5 : 0.33333333 : 1"
       inkscape:vp_z="1 : 0.5 : 1"
       inkscape:vp_y="0 : 1000 : 0"
       inkscape:vp_x="0 : 0.5 : 1"
       sodipodi:type="inkscape:persp3d" />
    <inkscape:perspective
       id="perspective7112"
       inkscape:persp3d-origin="0.5 : 0.33333333 : 1"
       inkscape:vp_z="1 : 0.5 : 1"
       inkscape:vp_y="0 : 1000 : 0"
       inkscape:vp_x="0 : 0.5 : 1"
       sodipodi:type="inkscape:persp3d" />
  </defs>
  <sodipodi:namedview
     id="base"
     pagecolor="#ffffff"
     bordercolor="#666666"
     borderopacity="1.0"
     inkscape:pageopacity="0.0"
     inkscape:pageshadow="2"
     inkscape:zoom="7.9195959"
     inkscape:cx="74.98062"
     inkscape:cy="0.84326843"
     inkscape:document-units="in"
     inkscape:current-layer="layer1"
     showgrid="true"
     units="in"
     inkscape:window-width="1680"
     inkscape:window-height="990"
     inkscape:window-x="-4"
     inkscape:window-y="-4"
     inkscape:window-maximized="1">
    <inkscape:grid
       type="xygrid"
       id="grid2816"
       empspacing="10"
       visible="true"
       enabled="true"
       snapvisiblegridlinesonly="false"
       units="in"
       spacingx="0.01in"
       spacingy="0.01in"
       empcolor="#991800"
       empopacity="0.25098039" />
  </sodipodi:namedview>
  <metadata
     id="metadata7">
    <rdf:RDF>
      <cc:Work
         rdf:about="">
        <dc:format>image/svg+xml</dc:format>
        <dc:type
           rdf:resource="http://purl.org/dc/dcmitype/StillImage" />
        <dc:title></dc:title>
      </cc:Work>
    </rdf:RDF>
  </metadata>
  <g
     inkscape:label="Layer 1"
     inkscape:groupmode="layer"
     id="layer1"
     transform="translate(-297,-494.35971)">
    <g
       id="g7366">
      <rect
         id="rect6934"
         height="8.9999952"
         width="144.89998"
         x="297"
         y="494.35971"
         style="fill:#404040" />
      <rect
         id="rect6936"
         height="3.4774983"
         width="3.4979761"
         y="497.12097"
         x="299.77975" />
      <polygon
         transform="matrix(1.2578124,0,0,1.2499993,297,494.35972)"
         id="polygon6938"
         points="6.017,1.184 1.185,1.184 2.208,2.209 4.992,2.209 "
         style="fill:#2a2a29" />
      <polygon
         transform="matrix(1.2578124,0,0,1.2499993,297,494.35972)"
         id="polygon6940"
         points="6.017,6.016 6.017,1.184 4.992,2.212 4.992,4.993 "
         style="fill:#474747" />
      <polygon
         transform="matrix(1.2578124,0,0,1.2499993,297,494.35972)"
         id="polygon6942"
         points="1.185,6.016 6.016,6.016 4.991,4.993 2.208,4.993 "
         style="fill:#595959" />
      <polygon
         transform="matrix(1.2578124,0,0,1.2499993,297,494.35972)"
         id="polygon6944"
         points="1.183,1.184 1.183,6.016 2.208,4.991 2.208,2.209 "
         style="fill:#373737" />
      <rect
         id="rect6946"
         height="3.4774983"
         width="3.4979761"
         y="497.12097"
         x="308.83728" />
      <polygon
         transform="matrix(1.2578124,0,0,1.2499993,297,494.35972)"
         id="polygon6948"
         points="13.216,1.184 8.384,1.184 9.408,2.209 12.191,2.209 "
         style="fill:#2a2a29" />
      <polygon
         transform="matrix(1.2578124,0,0,1.2499993,297,494.35972)"
         id="polygon6950"
         points="13.216,6.016 13.216,1.184 12.191,2.212 12.191,4.993 "
         style="fill:#474747" />
      <polygon
         transform="matrix(1.2578124,0,0,1.2499993,297,494.35972)"
         id="polygon6952"
         points="8.384,6.016 13.215,6.016 12.19,4.993 9.408,4.993 "
         style="fill:#595959" />
      <polygon
         transform="matrix(1.2578124,0,0,1.2499993,297,494.35972)"
         id="polygon6954"
         points="8.382,1.184 8.382,6.016 9.408,4.991 9.408,2.209 "
         style="fill:#373737" />
      <rect
         id="rect6956"
         height="3.4774983"
         width="3.4979761"
         y="497.12097"
         x="317.89224" />
      <polygon
         transform="matrix(1.2578124,0,0,1.2499993,297,494.35972)"
         id="polygon6958"
         points="20.417,1.184 15.584,1.184 16.608,2.209 19.392,2.209 "
         style="fill:#2a2a29" />
      <polygon
         transform="matrix(1.2578124,0,0,1.2499993,297,494.35972)"
         id="polygon6960"
         points="20.417,6.016 20.417,1.184 19.392,2.212 19.392,4.993 "
         style="fill:#474747" />
      <polygon
         transform="matrix(1.2578124,0,0,1.2499993,297,494.35972)"
         id="polygon6962"
         points="15.584,6.016 20.416,6.016 19.391,4.993 16.608,4.993 "
         style="fill:#595959" />
      <polygon
         transform="matrix(1.2578124,0,0,1.2499993,297,494.35972)"
         id="polygon6964"
         points="15.583,1.184 15.583,6.016 16.608,4.991 16.608,2.209 "
         style="fill:#373737" />
      <rect
         id="rect6966"
         height="3.4774983"
         width="3.4979761"
         y="497.12097"
         x="326.94977" />
      <polygon
         transform="matrix(1.2578124,0,0,1.2499993,297,494.35972)"
         id="polygon6968"
         points="27.617,1.184 22.785,1.184 23.809,2.209 26.592,2.209 "
         style="fill:#2a2a29" />
      <polygon
         transform="matrix(1.2578124,0,0,1.2499993,297,494.35972)"
         id="polygon6970"
         points="27.617,6.016 27.617,1.184 26.592,2.212 26.592,4.993 "
         style="fill:#474747" />
      <polygon
         transform="matrix(1.2578124,0,0,1.2499993,297,494.35972)"
         id="polygon6972"
         points="22.785,6.016 27.616,6.016 26.59,4.993 23.809,4.993 "
         style="fill:#595959" />
      <polygon
         transform="matrix(1.2578124,0,0,1.2499993,297,494.35972)"
         id="polygon6974"
         points="22.782,1.184 22.782,6.016 23.809,4.991 23.809,2.209 "
         style="fill:#373737" />
      <rect
         id="rect6976"
         height="3.4774983"
         width="3.4979761"
         y="497.12097"
         x="336.00476" />
      <polygon
         transform="matrix(1.2578124,0,0,1.2499993,297,494.35972)"
         id="polygon6978"
         points="34.816,1.184 29.984,1.184 31.008,2.209 33.792,2.209 "
         style="fill:#2a2a29" />
      <polygon
         transform="matrix(1.2578124,0,0,1.2499993,297,494.35972)"
         id="polygon6980"
         points="34.816,6.016 34.816,1.184 33.792,2.212 33.792,4.993 "
         style="fill:#474747" />
      <polygon
         transform="matrix(1.2578124,0,0,1.2499993,297,494.35972)"
         id="polygon6982"
         points="29.984,6.016 34.815,6.016 33.791,4.993 31.008,4.993 "
         style="fill:#595959" />
      <polygon
         transform="matrix(1.2578124,0,0,1.2499993,297,494.35972)"
         id="polygon6984"
         points="29.982,1.184 29.982,6.016 31.008,4.991 31.008,2.209 "
         style="fill:#373737" />
      <rect
         id="rect6986"
         height="3.4774983"
         width="3.4979761"
         y="497.12097"
         x="345.06226" />
      <polygon
         transform="matrix(1.2578124,0,0,1.2499993,297,494.35972)"
         id="polygon6988"
         points="42.018,1.184 37.186,1.184 38.209,2.209 40.992,2.209 "
         style="fill:#2a2a29" />
      <polygon
         transform="matrix(1.2578124,0,0,1.2499993,297,494.35972)"
         id="polygon6990"
         points="42.018,6.016 42.018,1.184 40.992,2.212 40.992,4.993 "
         style="fill:#474747" />
      <polygon
         transform="matrix(1.2578124,0,0,1.2499993,297,494.35972)"
         id="polygon6992"
         points="37.186,6.016 42.016,6.016 40.99,4.993 38.209,4.993 "
         style="fill:#595959" />
      <polygon
         transform="matrix(1.2578124,0,0,1.2499993,297,494.35972)"
         id="polygon6994"
         points="37.184,1.184 37.184,6.016 38.209,4.991 38.209,2.209 "
         style="fill:#373737" />
      <rect
         id="rect6996"
         height="3.4774983"
         width="3.4979761"
         y="497.12097"
         x="354.11728" />
      <polygon
         transform="matrix(1.2578124,0,0,1.2499993,297,494.35972)"
         id="polygon6998"
         points="49.217,1.184 44.385,1.184 45.408,2.209 48.191,2.209 "
         style="fill:#2a2a29" />
      <polygon
         transform="matrix(1.2578124,0,0,1.2499993,297,494.35972)"
         id="polygon7000"
         points="49.217,6.016 49.217,1.184 48.191,2.212 48.191,4.993 "
         style="fill:#474747" />
      <polygon
         transform="matrix(1.2578124,0,0,1.2499993,297,494.35972)"
         id="polygon7002"
         points="44.385,6.016 49.215,6.016 48.189,4.993 45.408,4.993 "
         style="fill:#595959" />
      <polygon
         transform="matrix(1.2578124,0,0,1.2499993,297,494.35972)"
         id="polygon7004"
         points="44.383,1.184 44.383,6.016 45.408,4.991 45.408,2.209 "
         style="fill:#373737" />
      <rect
         id="rect7006"
         height="3.4774983"
         width="3.4979761"
         y="497.12097"
         x="363.17227" />
      <polygon
         transform="matrix(1.2578124,0,0,1.2499993,297,494.35972)"
         id="polygon7008"
         points="56.416,1.184 51.584,1.184 52.607,2.209 55.393,2.209 "
         style="fill:#2a2a29" />
      <polygon
         transform="matrix(1.2578124,0,0,1.2499993,297,494.35972)"
         id="polygon7010"
         points="56.416,6.016 56.416,1.184 55.393,2.212 55.393,4.993 "
         style="fill:#474747" />
      <polygon
         transform="matrix(1.2578124,0,0,1.2499993,297,494.35972)"
         id="polygon7012"
         points="51.584,6.016 56.416,6.016 55.391,4.993 52.607,4.993 "
         style="fill:#595959" />
      <polygon
         transform="matrix(1.2578124,0,0,1.2499993,297,494.35972)"
         id="polygon7014"
         points="51.582,1.184 51.582,6.016 52.607,4.991 52.607,2.209 "
         style="fill:#373737" />
      <rect
         id="rect7016"
         height="3.4774983"
         width="3.4979761"
         y="497.12097"
         x="372.23102" />
      <polygon
         transform="matrix(1.2578124,0,0,1.2499993,297,494.35972)"
         id="polygon7018"
         points="63.617,1.184 58.785,1.184 59.809,2.209 62.592,2.209 "
         style="fill:#2a2a29" />
      <polygon
         transform="matrix(1.2578124,0,0,1.2499993,297,494.35972)"
         id="polygon7020"
         points="63.617,6.016 63.617,1.184 62.592,2.212 62.592,4.993 "
         style="fill:#474747" />
      <polygon
         transform="matrix(1.2578124,0,0,1.2499993,297,494.35972)"
         id="polygon7022"
         points="58.785,6.016 63.615,6.016 62.59,4.993 59.809,4.993 "
         style="fill:#595959" />
      <polygon
         transform="matrix(1.2578124,0,0,1.2499993,297,494.35972)"
         id="polygon7024"
         points="58.782,1.184 58.782,6.016 59.809,4.991 59.809,2.209 "
         style="fill:#373737" />
      <rect
         id="rect7026"
         height="3.4774983"
         width="3.4979761"
         y="497.12097"
         x="381.28601" />
      <polygon
         transform="matrix(1.2578124,0,0,1.2499993,297,494.35972)"
         id="polygon7028"
         points="70.816,1.184 65.984,1.184 67.008,2.209 69.791,2.209 "
         style="fill:#2a2a29" />
      <polygon
         transform="matrix(1.2578124,0,0,1.2499993,297,494.35972)"
         id="polygon7030"
         points="70.816,6.016 70.816,1.184 69.791,2.212 69.791,4.993 "
         style="fill:#474747" />
      <polygon
         transform="matrix(1.2578124,0,0,1.2499993,297,494.35972)"
         id="polygon7032"
         points="65.984,6.016 70.814,6.016 69.791,4.993 67.008,4.993 "
         style="fill:#595959" />
      <polygon
         transform="matrix(1.2578124,0,0,1.2499993,297,494.35972)"
         id="polygon7034"
         points="65.982,1.184 65.982,6.016 67.008,4.991 67.008,2.209 "
         style="fill:#373737" />
      <rect
         id="rect7036"
         height="3.4774983"
         width="3.4979761"
         y="497.12097"
         x="390.34604" />
      <polygon
         transform="matrix(1.2578124,0,0,1.2499993,297,494.35972)"
         id="polygon7038"
         points="78.019,1.184 73.187,1.184 74.211,2.209 76.994,2.209 "
         style="fill:#2a2a29" />
      <polygon
         transform="matrix(1.2578124,0,0,1.2499993,297,494.35972)"
         id="polygon7040"
         points="78.019,6.016 78.019,1.184 76.994,2.212 76.994,4.993 "
         style="fill:#474747" />
      <polygon
         transform="matrix(1.2578124,0,0,1.2499993,297,494.35972)"
         id="polygon7042"
         points="73.187,6.016 78.018,6.016 76.994,4.993 74.211,4.993 "
         style="fill:#595959" />
      <polygon
         transform="matrix(1.2578124,0,0,1.2499993,297,494.35972)"
         id="polygon7044"
         points="73.185,1.184 73.185,6.016 74.211,4.991 74.211,2.209 "
         style="fill:#373737" />
      <rect
         id="rect7046"
         height="3.4774983"
         width="3.4979761"
         y="497.12097"
         x="399.40353" />
      <polygon
         transform="matrix(1.2578124,0,0,1.2499993,297,494.35972)"
         id="polygon7048"
         points="85.221,1.184 80.389,1.184 81.412,2.209 84.195,2.209 "
         style="fill:#2a2a29" />
      <polygon
         transform="matrix(1.2578124,0,0,1.2499993,297,494.35972)"
         id="polygon7050"
         points="85.221,6.016 85.221,1.184 84.195,2.212 84.195,4.993 "
         style="fill:#474747" />
      <polygon
         transform="matrix(1.2578124,0,0,1.2499993,297,494.35972)"
         id="polygon7052"
         points="80.389,6.016 85.219,6.016 84.193,4.993 81.412,4.993 "
         style="fill:#595959" />
      <polygon
         transform="matrix(1.2578124,0,0,1.2499993,297,494.35972)"
         id="polygon7054"
         points="80.387,1.184 80.387,6.016 81.412,4.991 81.412,2.209 "
         style="fill:#373737" />
      <rect
         id="rect7056"
         height="3.4774983"
         width="3.4979761"
         y="497.12097"
         x="408.45853" />
      <polygon
         transform="matrix(1.2578124,0,0,1.2499993,297,494.35972)"
         id="polygon7058"
         points="92.42,1.184 87.588,1.184 88.611,2.209 91.395,2.209 "
         style="fill:#2a2a29" />
      <polygon
         transform="matrix(1.2578124,0,0,1.2499993,297,494.35972)"
         id="polygon7060"
         points="92.42,6.016 92.42,1.184 91.395,2.212 91.395,4.993 "
         style="fill:#474747" />
      <polygon
         transform="matrix(1.2578124,0,0,1.2499993,297,494.35972)"
         id="polygon7062"
         points="87.588,6.016 92.418,6.016 91.393,4.993 88.611,4.993 "
         style="fill:#595959" />
      <polygon
         transform="matrix(1.2578124,0,0,1.2499993,297,494.35972)"
         id="polygon7064"
         points="87.586,1.184 87.586,6.016 88.611,4.991 88.611,2.209 "
         style="fill:#373737" />
      <rect
         id="rect7066"
         height="3.4774983"
         width="3.4979761"
         y="497.12097"
         x="417.51352" />
      <polygon
         transform="matrix(1.2578124,0,0,1.2499993,297,494.35972)"
         id="polygon7068"
         points="99.619,1.184 94.787,1.184 95.811,2.209 98.596,2.209 "
         style="fill:#2a2a29" />
      <polygon
         transform="matrix(1.2578124,0,0,1.2499993,297,494.35972)"
         id="polygon7070"
         points="99.619,6.016 99.619,1.184 98.596,2.212 98.596,4.993 "
         style="fill:#474747" />
      <polygon
         transform="matrix(1.2578124,0,0,1.2499993,297,494.35972)"
         id="polygon7072"
         points="94.787,6.016 99.619,6.016 98.594,4.993 95.811,4.993 "
         style="fill:#595959" />
      <polygon
         transform="matrix(1.2578124,0,0,1.2499993,297,494.35972)"
         id="polygon7074"
         points="94.785,1.184 94.785,6.016 95.811,4.991 95.811,2.209 "
         style="fill:#373737" />
      <rect
         id="rect7076"
         height="3.4774983"
         width="3.4979761"
         y="497.12097"
         x="426.5723" />
      <polygon
         transform="matrix(1.2578124,0,0,1.2499993,297,494.35972)"
         id="polygon7078"
         points="106.82,1.184 101.988,1.184 103.012,2.209 105.795,2.209 "
         style="fill:#2a2a29" />
      <polygon
         transform="matrix(1.2578124,0,0,1.2499993,297,494.35972)"
         id="polygon7080"
         points="106.82,6.016 106.82,1.184 105.795,2.212 105.795,4.993 "
         style="fill:#474747" />
      <polygon
         transform="matrix(1.2578124,0,0,1.2499993,297,494.35972)"
         id="polygon7082"
         points="101.988,6.016 106.818,6.016 105.793,4.993 103.012,4.993 "
         style="fill:#595959" />
      <polygon
         transform="matrix(1.2578124,0,0,1.2499993,297,494.35972)"
         id="polygon7084"
         points="101.984,1.184 101.984,6.016 103.012,4.991 103.012,2.209 "
         style="fill:#373737" />
      <rect
         id="rect7086"
         height="3.4774983"
         width="3.4979761"
         y="497.12097"
         x="435.62729" />
      <polygon
         transform="matrix(1.2578124,0,0,1.2499993,297,494.35972)"
         id="polygon7088"
         points="114.02,1.184 109.188,1.184 110.211,2.209 112.994,2.209 "
         style="fill:#2a2a29" />
      <polygon
         transform="matrix(1.2578124,0,0,1.2499993,297,494.35972)"
         id="polygon7090"
         points="114.02,6.016 114.02,1.184 112.994,2.212 112.994,4.993 "
         style="fill:#474747" />
      <polygon
         transform="matrix(1.2578124,0,0,1.2499993,297,494.35972)"
         id="polygon7092"
         points="109.188,6.016 114.018,6.016 112.994,4.993 110.211,4.993 "
         style="fill:#595959" />
      <polygon
         transform="matrix(1.2578124,0,0,1.2499993,297,494.35972)"
         id="polygon7094"
         points="109.186,1.184 109.186,6.016 110.211,4.991 110.211,2.209 "
         style="fill:#373737" />
    </g>
  </g>
</svg>
