<?xml version="1.0" encoding="UTF-8" standalone="no"?>
<!-- Created with Inkscape (http://www.inkscape.org/) -->

<svg
   xmlns:dc="http://purl.org/dc/elements/1.1/"
   xmlns:cc="http://creativecommons.org/ns#"
   xmlns:rdf="http://www.w3.org/1999/02/22-rdf-syntax-ns#"
   xmlns:svg="http://www.w3.org/2000/svg"
   xmlns="http://www.w3.org/2000/svg"
   xmlns:sodipodi="http://sodipodi.sourceforge.net/DTD/sodipodi-0.dtd"
   xmlns:inkscape="http://www.inkscape.org/namespaces/inkscape"
   width="162.89999"
   height="17.999989"
   id="svg2"
   version="1.1"
   inkscape:version="0.47 r22583"
   sodipodi:docname="F-20x2.svg">
  <defs
     id="defs4">
    <inkscape:perspective
       sodipodi:type="inkscape:persp3d"
       inkscape:vp_x="0 : 526.18109 : 1"
       inkscape:vp_y="0 : 1000 : 0"
       inkscape:vp_z="744.09448 : 526.18109 : 1"
       inkscape:persp3d-origin="372.04724 : 350.78739 : 1"
       id="perspective10" />
    <inkscape:perspective
       id="perspective3046"
       inkscape:persp3d-origin="0.5 : 0.33333333 : 1"
       inkscape:vp_z="1 : 0.5 : 1"
       inkscape:vp_y="0 : 1000 : 0"
       inkscape:vp_x="0 : 0.5 : 1"
       sodipodi:type="inkscape:persp3d" />
    <inkscape:perspective
       id="perspective3422"
       inkscape:persp3d-origin="0.5 : 0.33333333 : 1"
       inkscape:vp_z="1 : 0.5 : 1"
       inkscape:vp_y="0 : 1000 : 0"
       inkscape:vp_x="0 : 0.5 : 1"
       sodipodi:type="inkscape:persp3d" />
    <inkscape:perspective
       id="perspective3756"
       inkscape:persp3d-origin="0.5 : 0.33333333 : 1"
       inkscape:vp_z="1 : 0.5 : 1"
       inkscape:vp_y="0 : 1000 : 0"
       inkscape:vp_x="0 : 0.5 : 1"
       sodipodi:type="inkscape:persp3d" />
    <inkscape:perspective
       id="perspective4481"
       inkscape:persp3d-origin="0.5 : 0.33333333 : 1"
       inkscape:vp_z="1 : 0.5 : 1"
       inkscape:vp_y="0 : 1000 : 0"
       inkscape:vp_x="0 : 0.5 : 1"
       sodipodi:type="inkscape:persp3d" />
    <inkscape:perspective
       id="perspective4895"
       inkscape:persp3d-origin="0.5 : 0.33333333 : 1"
       inkscape:vp_z="1 : 0.5 : 1"
       inkscape:vp_y="0 : 1000 : 0"
       inkscape:vp_x="0 : 0.5 : 1"
       sodipodi:type="inkscape:persp3d" />
    <inkscape:perspective
       id="perspective5349"
       inkscape:persp3d-origin="0.5 : 0.33333333 : 1"
       inkscape:vp_z="1 : 0.5 : 1"
       inkscape:vp_y="0 : 1000 : 0"
       inkscape:vp_x="0 : 0.5 : 1"
       sodipodi:type="inkscape:persp3d" />
    <inkscape:perspective
       id="perspective5843"
       inkscape:persp3d-origin="0.5 : 0.33333333 : 1"
       inkscape:vp_z="1 : 0.5 : 1"
       inkscape:vp_y="0 : 1000 : 0"
       inkscape:vp_x="0 : 0.5 : 1"
       sodipodi:type="inkscape:persp3d" />
    <inkscape:perspective
       id="perspective6377"
       inkscape:persp3d-origin="0.5 : 0.33333333 : 1"
       inkscape:vp_z="1 : 0.5 : 1"
       inkscape:vp_y="0 : 1000 : 0"
       inkscape:vp_x="0 : 0.5 : 1"
       sodipodi:type="inkscape:persp3d" />
    <inkscape:perspective
       id="perspective7112"
       inkscape:persp3d-origin="0.5 : 0.33333333 : 1"
       inkscape:vp_z="1 : 0.5 : 1"
       inkscape:vp_y="0 : 1000 : 0"
       inkscape:vp_x="0 : 0.5 : 1"
       sodipodi:type="inkscape:persp3d" />
    <inkscape:perspective
       id="perspective16910"
       inkscape:persp3d-origin="0.5 : 0.33333333 : 1"
       inkscape:vp_z="1 : 0.5 : 1"
       inkscape:vp_y="0 : 1000 : 0"
       inkscape:vp_x="0 : 0.5 : 1"
       sodipodi:type="inkscape:persp3d" />
    <inkscape:perspective
       id="perspective34186"
       inkscape:persp3d-origin="0.5 : 0.33333333 : 1"
       inkscape:vp_z="1 : 0.5 : 1"
       inkscape:vp_y="0 : 1000 : 0"
       inkscape:vp_x="0 : 0.5 : 1"
       sodipodi:type="inkscape:persp3d" />
    <inkscape:perspective
       id="perspective35899"
       inkscape:persp3d-origin="0.5 : 0.33333333 : 1"
       inkscape:vp_z="1 : 0.5 : 1"
       inkscape:vp_y="0 : 1000 : 0"
       inkscape:vp_x="0 : 0.5 : 1"
       sodipodi:type="inkscape:persp3d" />
    <inkscape:perspective
       id="perspective35899-7"
       inkscape:persp3d-origin="0.5 : 0.33333333 : 1"
       inkscape:vp_z="1 : 0.5 : 1"
       inkscape:vp_y="0 : 1000 : 0"
       inkscape:vp_x="0 : 0.5 : 1"
       sodipodi:type="inkscape:persp3d" />
    <inkscape:perspective
       id="perspective36866"
       inkscape:persp3d-origin="0.5 : 0.33333333 : 1"
       inkscape:vp_z="1 : 0.5 : 1"
       inkscape:vp_y="0 : 1000 : 0"
       inkscape:vp_x="0 : 0.5 : 1"
       sodipodi:type="inkscape:persp3d" />
    <inkscape:perspective
       id="perspective36866-5"
       inkscape:persp3d-origin="0.5 : 0.33333333 : 1"
       inkscape:vp_z="1 : 0.5 : 1"
       inkscape:vp_y="0 : 1000 : 0"
       inkscape:vp_x="0 : 0.5 : 1"
       sodipodi:type="inkscape:persp3d" />
  </defs>
  <sodipodi:namedview
     id="base"
     pagecolor="#ffffff"
     bordercolor="#666666"
     borderopacity="1.0"
     inkscape:pageopacity="0.0"
     inkscape:pageshadow="2"
     inkscape:zoom="7.9195959"
     inkscape:cx="90.588158"
     inkscape:cy="18.843206"
     inkscape:document-units="in"
     inkscape:current-layer="layer1"
     showgrid="true"
     units="in"
     inkscape:window-width="1680"
     inkscape:window-height="990"
     inkscape:window-x="-4"
     inkscape:window-y="-4"
     inkscape:window-maximized="1"
     showguides="true"
     inkscape:guide-bbox="true">
    <inkscape:grid
       type="xygrid"
       id="grid2816"
       empspacing="10"
       visible="true"
       enabled="true"
       snapvisiblegridlinesonly="false"
       units="in"
       spacingx="0.01in"
       spacingy="0.01in"
       empcolor="#991800"
       empopacity="0.25098039" />
  </sodipodi:namedview>
  <metadata
     id="metadata7">
    <rdf:RDF>
      <cc:Work
         rdf:about="">
        <dc:format>image/svg+xml</dc:format>
        <dc:type
           rdf:resource="http://purl.org/dc/dcmitype/StillImage" />
        <dc:title></dc:title>
      </cc:Work>
    </rdf:RDF>
  </metadata>
  <g
     inkscape:label="Layer 1"
     inkscape:groupmode="layer"
     id="layer1"
     transform="translate(-297,-494.35971)">
    <g
       id="g38027">
      <rect
         id="rect16692"
         height="8.9999876"
         width="162.89999"
         x="297"
         y="494.35971"
         style="fill:#404040" />
      <rect
         id="rect16694"
         height="3.4774954"
         width="3.4936311"
         y="497.12094"
         x="299.77631" />
      <polygon
         transform="matrix(1.25625,0,0,1.2499983,297,494.35967)"
         id="polygon16696"
         points="6.017,1.184 1.185,1.184 2.208,2.209 4.992,2.209 "
         style="fill:#2a2a29" />
      <polygon
         transform="matrix(1.25625,0,0,1.2499983,297,494.35967)"
         id="polygon16698"
         points="6.017,6.016 6.017,1.184 4.992,2.212 4.992,4.993 "
         style="fill:#474747" />
      <polygon
         transform="matrix(1.25625,0,0,1.2499983,297,494.35967)"
         id="polygon16700"
         points="1.185,6.016 6.016,6.016 4.991,4.993 2.208,4.993 "
         style="fill:#595959" />
      <polygon
         transform="matrix(1.25625,0,0,1.2499983,297,494.35967)"
         id="polygon16702"
         points="1.183,1.184 1.183,6.016 2.208,4.991 2.208,2.209 "
         style="fill:#373737" />
      <rect
         id="rect16704"
         height="3.4774954"
         width="3.4923751"
         y="497.12094"
         x="308.8226" />
      <polygon
         transform="matrix(1.25625,0,0,1.2499983,297,494.35967)"
         id="polygon16706"
         points="13.216,1.184 8.384,1.184 9.408,2.209 12.191,2.209 "
         style="fill:#2a2a29" />
      <polygon
         transform="matrix(1.25625,0,0,1.2499983,297,494.35967)"
         id="polygon16708"
         points="13.216,6.016 13.216,1.184 12.191,2.212 12.191,4.993 "
         style="fill:#474747" />
      <polygon
         transform="matrix(1.25625,0,0,1.2499983,297,494.35967)"
         id="polygon16710"
         points="8.384,6.016 13.215,6.016 12.19,4.993 9.408,4.993 "
         style="fill:#595959" />
      <polygon
         transform="matrix(1.25625,0,0,1.2499983,297,494.35967)"
         id="polygon16712"
         points="8.382,1.184 8.382,6.016 9.408,4.991 9.408,2.209 "
         style="fill:#373737" />
      <rect
         id="rect16714"
         height="3.4774954"
         width="3.4936311"
         y="497.12094"
         x="317.86627" />
      <polygon
         transform="matrix(1.25625,0,0,1.2499983,297,494.35967)"
         id="polygon16716"
         points="20.417,1.184 15.584,1.184 16.608,2.209 19.392,2.209 "
         style="fill:#2a2a29" />
      <polygon
         transform="matrix(1.25625,0,0,1.2499983,297,494.35967)"
         id="polygon16718"
         points="20.417,6.016 20.417,1.184 19.392,2.212 19.392,4.993 "
         style="fill:#474747" />
      <polygon
         transform="matrix(1.25625,0,0,1.2499983,297,494.35967)"
         id="polygon16720"
         points="15.584,6.016 20.416,6.016 19.391,4.993 16.608,4.993 "
         style="fill:#595959" />
      <polygon
         transform="matrix(1.25625,0,0,1.2499983,297,494.35967)"
         id="polygon16722"
         points="15.583,1.184 15.583,6.016 16.608,4.991 16.608,2.209 "
         style="fill:#373737" />
      <rect
         id="rect16724"
         height="3.4774954"
         width="3.4936311"
         y="497.12094"
         x="326.9126" />
      <polygon
         transform="matrix(1.25625,0,0,1.2499983,297,494.35967)"
         id="polygon16726"
         points="27.617,1.184 22.785,1.184 23.809,2.209 26.592,2.209 "
         style="fill:#2a2a29" />
      <polygon
         transform="matrix(1.25625,0,0,1.2499983,297,494.35967)"
         id="polygon16728"
         points="27.617,6.016 27.617,1.184 26.592,2.212 26.592,4.993 "
         style="fill:#474747" />
      <polygon
         transform="matrix(1.25625,0,0,1.2499983,297,494.35967)"
         id="polygon16730"
         points="22.785,6.016 27.616,6.016 26.59,4.993 23.809,4.993 "
         style="fill:#595959" />
      <polygon
         transform="matrix(1.25625,0,0,1.2499983,297,494.35967)"
         id="polygon16732"
         points="22.782,1.184 22.782,6.016 23.809,4.991 23.809,2.209 "
         style="fill:#373737" />
      <rect
         id="rect16734"
         height="3.4774954"
         width="3.4936311"
         y="497.12094"
         x="335.9563" />
      <polygon
         transform="matrix(1.25625,0,0,1.2499983,297,494.35967)"
         id="polygon16736"
         points="34.816,1.184 29.984,1.184 31.008,2.209 33.792,2.209 "
         style="fill:#2a2a29" />
      <polygon
         transform="matrix(1.25625,0,0,1.2499983,297,494.35967)"
         id="polygon16738"
         points="34.816,6.016 34.816,1.184 33.792,2.212 33.792,4.993 "
         style="fill:#474747" />
      <polygon
         transform="matrix(1.25625,0,0,1.2499983,297,494.35967)"
         id="polygon16740"
         points="29.984,6.016 34.815,6.016 33.791,4.993 31.008,4.993 "
         style="fill:#595959" />
      <polygon
         transform="matrix(1.25625,0,0,1.2499983,297,494.35967)"
         id="polygon16742"
         points="29.982,1.184 29.982,6.016 31.008,4.991 31.008,2.209 "
         style="fill:#373737" />
      <rect
         id="rect16744"
         height="3.4774954"
         width="3.4936311"
         y="497.12094"
         x="345.00256" />
      <polygon
         transform="matrix(1.25625,0,0,1.2499983,297,494.35967)"
         id="polygon16746"
         points="42.018,1.184 37.186,1.184 38.209,2.209 40.992,2.209 "
         style="fill:#2a2a29" />
      <polygon
         transform="matrix(1.25625,0,0,1.2499983,297,494.35967)"
         id="polygon16748"
         points="42.018,6.016 42.018,1.184 40.992,2.212 40.992,4.993 "
         style="fill:#474747" />
      <polygon
         transform="matrix(1.25625,0,0,1.2499983,297,494.35967)"
         id="polygon16750"
         points="37.186,6.016 42.016,6.016 40.99,4.993 38.209,4.993 "
         style="fill:#595959" />
      <polygon
         transform="matrix(1.25625,0,0,1.2499983,297,494.35967)"
         id="polygon16752"
         points="37.184,1.184 37.184,6.016 38.209,4.991 38.209,2.209 "
         style="fill:#373737" />
      <rect
         id="rect16754"
         height="3.4774954"
         width="3.4923751"
         y="497.12094"
         x="354.0463" />
      <polygon
         transform="matrix(1.25625,0,0,1.2499983,297,494.35967)"
         id="polygon16756"
         points="49.217,1.184 44.385,1.184 45.408,2.209 48.191,2.209 "
         style="fill:#2a2a29" />
      <polygon
         transform="matrix(1.25625,0,0,1.2499983,297,494.35967)"
         id="polygon16758"
         points="49.217,6.016 49.217,1.184 48.191,2.212 48.191,4.993 "
         style="fill:#474747" />
      <polygon
         transform="matrix(1.25625,0,0,1.2499983,297,494.35967)"
         id="polygon16760"
         points="44.385,6.016 49.215,6.016 48.189,4.993 45.408,4.993 "
         style="fill:#595959" />
      <polygon
         transform="matrix(1.25625,0,0,1.2499983,297,494.35967)"
         id="polygon16762"
         points="44.383,1.184 44.383,6.016 45.408,4.991 45.408,2.209 "
         style="fill:#373737" />
      <rect
         id="rect16764"
         height="3.4774954"
         width="3.4936311"
         y="497.12094"
         x="363.09006" />
      <polygon
         transform="matrix(1.25625,0,0,1.2499983,297,494.35967)"
         id="polygon16766"
         points="56.416,1.184 51.584,1.184 52.607,2.209 55.393,2.209 "
         style="fill:#2a2a29" />
      <polygon
         transform="matrix(1.25625,0,0,1.2499983,297,494.35967)"
         id="polygon16768"
         points="56.416,6.016 56.416,1.184 55.393,2.212 55.393,4.993 "
         style="fill:#474747" />
      <polygon
         transform="matrix(1.25625,0,0,1.2499983,297,494.35967)"
         id="polygon16770"
         points="51.584,6.016 56.416,6.016 55.391,4.993 52.607,4.993 "
         style="fill:#595959" />
      <polygon
         transform="matrix(1.25625,0,0,1.2499983,297,494.35967)"
         id="polygon16772"
         points="51.582,1.184 51.582,6.016 52.607,4.991 52.607,2.209 "
         style="fill:#373737" />
      <rect
         id="rect16774"
         height="3.4774954"
         width="3.4936311"
         y="497.12094"
         x="372.13757" />
      <polygon
         transform="matrix(1.25625,0,0,1.2499983,297,494.35967)"
         id="polygon16776"
         points="63.618,1.184 58.786,1.184 59.809,2.209 62.592,2.209 "
         style="fill:#2a2a29" />
      <polygon
         transform="matrix(1.25625,0,0,1.2499983,297,494.35967)"
         id="polygon16778"
         points="63.618,6.016 63.618,1.184 62.592,2.212 62.592,4.993 "
         style="fill:#474747" />
      <polygon
         transform="matrix(1.25625,0,0,1.2499983,297,494.35967)"
         id="polygon16780"
         points="58.786,6.016 63.616,6.016 62.59,4.993 59.809,4.993 "
         style="fill:#595959" />
      <polygon
         transform="matrix(1.25625,0,0,1.2499983,297,494.35967)"
         id="polygon16782"
         points="58.782,1.184 58.782,6.016 59.809,4.991 59.809,2.209 "
         style="fill:#373737" />
      <rect
         id="rect16784"
         height="3.4774954"
         width="3.4936311"
         y="497.12094"
         x="381.1813" />
      <polygon
         transform="matrix(1.25625,0,0,1.2499983,297,494.35967)"
         id="polygon16786"
         points="70.816,1.184 65.984,1.184 67.008,2.209 69.792,2.209 "
         style="fill:#2a2a29" />
      <polygon
         transform="matrix(1.25625,0,0,1.2499983,297,494.35967)"
         id="polygon16788"
         points="70.816,6.016 70.816,1.184 69.792,2.212 69.792,4.993 "
         style="fill:#474747" />
      <polygon
         transform="matrix(1.25625,0,0,1.2499983,297,494.35967)"
         id="polygon16790"
         points="65.984,6.016 70.814,6.016 69.792,4.993 67.008,4.993 "
         style="fill:#595959" />
      <polygon
         transform="matrix(1.25625,0,0,1.2499983,297,494.35967)"
         id="polygon16792"
         points="65.982,1.184 65.982,6.016 67.008,4.991 67.008,2.209 "
         style="fill:#373737" />
      <rect
         id="rect16794"
         height="3.4774954"
         width="3.4936311"
         y="497.12094"
         x="390.2301" />
      <polygon
         transform="matrix(1.25625,0,0,1.2499983,297,494.35967)"
         id="polygon16796"
         points="78.019,1.184 73.187,1.184 74.211,2.209 76.995,2.209 "
         style="fill:#2a2a29" />
      <polygon
         transform="matrix(1.25625,0,0,1.2499983,297,494.35967)"
         id="polygon16798"
         points="78.019,6.016 78.019,1.184 76.995,2.212 76.995,4.993 "
         style="fill:#474747" />
      <polygon
         transform="matrix(1.25625,0,0,1.2499983,297,494.35967)"
         id="polygon16800"
         points="73.187,6.016 78.018,6.016 76.995,4.993 74.211,4.993 "
         style="fill:#595959" />
      <polygon
         transform="matrix(1.25625,0,0,1.2499983,297,494.35967)"
         id="polygon16802"
         points="73.185,1.184 73.185,6.016 74.211,4.991 74.211,2.209 "
         style="fill:#373737" />
      <rect
         id="rect16804"
         height="3.4774954"
         width="3.4911189"
         y="497.12094"
         x="399.27762" />
      <polygon
         transform="matrix(1.25625,0,0,1.2499983,297,494.35967)"
         id="polygon16806"
         points="85.221,1.184 80.389,1.184 81.413,2.209 84.195,2.209 "
         style="fill:#2a2a29" />
      <polygon
         transform="matrix(1.25625,0,0,1.2499983,297,494.35967)"
         id="polygon16808"
         points="85.221,6.016 85.221,1.184 84.195,2.212 84.195,4.993 "
         style="fill:#474747" />
      <polygon
         transform="matrix(1.25625,0,0,1.2499983,297,494.35967)"
         id="polygon16810"
         points="80.389,6.016 85.219,6.016 84.193,4.993 81.413,4.993 "
         style="fill:#595959" />
      <polygon
         transform="matrix(1.25625,0,0,1.2499983,297,494.35967)"
         id="polygon16812"
         points="80.387,1.184 80.387,6.016 81.413,4.991 81.413,2.209 "
         style="fill:#373737" />
      <rect
         id="rect16814"
         height="3.4774954"
         width="3.4936311"
         y="497.12094"
         x="408.3201" />
      <polygon
         transform="matrix(1.25625,0,0,1.2499983,297,494.35967)"
         id="polygon16816"
         points="92.42,1.184 87.588,1.184 88.611,2.209 91.395,2.209 "
         style="fill:#2a2a29" />
      <polygon
         transform="matrix(1.25625,0,0,1.2499983,297,494.35967)"
         id="polygon16818"
         points="92.42,6.016 92.42,1.184 91.395,2.212 91.395,4.993 "
         style="fill:#474747" />
      <polygon
         transform="matrix(1.25625,0,0,1.2499983,297,494.35967)"
         id="polygon16820"
         points="87.588,6.016 92.418,6.016 91.393,4.993 88.611,4.993 "
         style="fill:#595959" />
      <polygon
         transform="matrix(1.25625,0,0,1.2499983,297,494.35967)"
         id="polygon16822"
         points="87.586,1.184 87.586,6.016 88.611,4.991 88.611,2.209 "
         style="fill:#373737" />
      <rect
         id="rect16824"
         height="3.4774954"
         width="3.4923751"
         y="497.12094"
         x="417.36383" />
      <polygon
         transform="matrix(1.25625,0,0,1.2499983,297,494.35967)"
         id="polygon16826"
         points="99.62,1.184 94.788,1.184 95.811,2.209 98.596,2.209 "
         style="fill:#2a2a29" />
      <polygon
         transform="matrix(1.25625,0,0,1.2499983,297,494.35967)"
         id="polygon16828"
         points="99.62,6.016 99.62,1.184 98.596,2.212 98.596,4.993 "
         style="fill:#474747" />
      <polygon
         transform="matrix(1.25625,0,0,1.2499983,297,494.35967)"
         id="polygon16830"
         points="94.788,6.016 99.62,6.016 98.594,4.993 95.811,4.993 "
         style="fill:#595959" />
      <polygon
         transform="matrix(1.25625,0,0,1.2499983,297,494.35967)"
         id="polygon16832"
         points="94.786,1.184 94.786,6.016 95.811,4.991 95.811,2.209 "
         style="fill:#373737" />
      <rect
         id="rect16834"
         height="3.4774954"
         width="3.4936311"
         y="497.12094"
         x="426.41135" />
      <polygon
         transform="matrix(1.25625,0,0,1.2499983,297,494.35967)"
         id="polygon16836"
         points="106.82,1.184 101.988,1.184 103.012,2.209 105.795,2.209 "
         style="fill:#2a2a29" />
      <polygon
         transform="matrix(1.25625,0,0,1.2499983,297,494.35967)"
         id="polygon16838"
         points="106.82,6.016 106.82,1.184 105.795,2.212 105.795,4.993 "
         style="fill:#474747" />
      <polygon
         transform="matrix(1.25625,0,0,1.2499983,297,494.35967)"
         id="polygon16840"
         points="101.988,6.016 106.818,6.016 105.793,4.993 103.012,4.993 "
         style="fill:#595959" />
      <polygon
         transform="matrix(1.25625,0,0,1.2499983,297,494.35967)"
         id="polygon16842"
         points="101.984,1.184 101.984,6.016 103.012,4.991 103.012,2.209 "
         style="fill:#373737" />
      <rect
         id="rect16844"
         height="3.4774954"
         width="3.4936311"
         y="497.12094"
         x="435.45508" />
      <polygon
         transform="matrix(1.25625,0,0,1.2499983,297,494.35967)"
         id="polygon16846"
         points="114.02,1.184 109.188,1.184 110.211,2.209 112.995,2.209 "
         style="fill:#2a2a29" />
      <polygon
         transform="matrix(1.25625,0,0,1.2499983,297,494.35967)"
         id="polygon16848"
         points="114.02,6.016 114.02,1.184 112.995,2.212 112.995,4.993 "
         style="fill:#474747" />
      <polygon
         transform="matrix(1.25625,0,0,1.2499983,297,494.35967)"
         id="polygon16850"
         points="109.188,6.016 114.018,6.016 112.995,4.993 110.211,4.993 "
         style="fill:#595959" />
      <polygon
         transform="matrix(1.25625,0,0,1.2499983,297,494.35967)"
         id="polygon16852"
         points="109.186,1.184 109.186,6.016 110.211,4.991 110.211,2.209 "
         style="fill:#373737" />
      <rect
         id="rect16854"
         height="3.4774954"
         width="3.4923751"
         y="497.12094"
         x="444.50262" />
      <polygon
         transform="matrix(1.25625,0,0,1.2499983,297,494.35967)"
         id="polygon16856"
         points="121.22,1.184 116.388,1.184 117.413,2.209 120.196,2.209 "
         style="fill:#2a2a29" />
      <polygon
         transform="matrix(1.25625,0,0,1.2499983,297,494.35967)"
         id="polygon16858"
         points="121.22,6.016 121.22,1.184 120.196,2.212 120.196,4.993 "
         style="fill:#474747" />
      <polygon
         transform="matrix(1.25625,0,0,1.2499983,297,494.35967)"
         id="polygon16860"
         points="116.388,6.016 121.218,6.016 120.194,4.993 117.413,4.993 "
         style="fill:#595959" />
      <polygon
         transform="matrix(1.25625,0,0,1.2499983,297,494.35967)"
         id="polygon16862"
         points="116.384,1.184 116.384,6.016 117.413,4.991 117.413,2.209 "
         style="fill:#373737" />
      <rect
         id="rect16864"
         height="3.4774954"
         width="3.4936311"
         y="497.12094"
         x="453.54636" />
      <polygon
         transform="matrix(1.25625,0,0,1.2499983,297,494.35967)"
         id="polygon16866"
         points="128.42,1.184 123.588,1.184 124.612,2.209 127.395,2.209 "
         style="fill:#2a2a29" />
      <polygon
         transform="matrix(1.25625,0,0,1.2499983,297,494.35967)"
         id="polygon16868"
         points="128.42,6.016 128.42,1.184 127.395,2.212 127.395,4.993 "
         style="fill:#474747" />
      <polygon
         transform="matrix(1.25625,0,0,1.2499983,297,494.35967)"
         id="polygon16870"
         points="123.588,6.016 128.418,6.016 127.395,4.993 124.612,4.993 "
         style="fill:#595959" />
      <polygon
         transform="matrix(1.25625,0,0,1.2499983,297,494.35967)"
         id="polygon16872"
         points="123.586,1.184 123.586,6.016 124.612,4.991 124.612,2.209 "
         style="fill:#373737" />
      <rect
         id="rect16692-3"
         height="8.9999876"
         width="162.89999"
         x="297"
         y="503.35971"
         style="fill:#404040" />
      <rect
         id="rect16694-2"
         height="3.4774954"
         width="3.4936311"
         y="506.12094"
         x="299.77631" />
      <polygon
         transform="matrix(1.25625,0,0,1.2499983,297,503.35967)"
         id="polygon16696-7"
         points="6.017,1.184 1.185,1.184 2.208,2.209 4.992,2.209 "
         style="fill:#2a2a29" />
      <polygon
         transform="matrix(1.25625,0,0,1.2499983,297,503.35967)"
         id="polygon16698-5"
         points="6.017,6.016 6.017,1.184 4.992,2.212 4.992,4.993 "
         style="fill:#474747" />
      <polygon
         transform="matrix(1.25625,0,0,1.2499983,297,503.35967)"
         id="polygon16700-8"
         points="1.185,6.016 6.016,6.016 4.991,4.993 2.208,4.993 "
         style="fill:#595959" />
      <polygon
         transform="matrix(1.25625,0,0,1.2499983,297,503.35967)"
         id="polygon16702-2"
         points="1.183,1.184 1.183,6.016 2.208,4.991 2.208,2.209 "
         style="fill:#373737" />
      <rect
         id="rect16704-9"
         height="3.4774954"
         width="3.4923751"
         y="506.12094"
         x="308.8226" />
      <polygon
         transform="matrix(1.25625,0,0,1.2499983,297,503.35967)"
         id="polygon16706-8"
         points="13.216,1.184 8.384,1.184 9.408,2.209 12.191,2.209 "
         style="fill:#2a2a29" />
      <polygon
         transform="matrix(1.25625,0,0,1.2499983,297,503.35967)"
         id="polygon16708-1"
         points="13.216,6.016 13.216,1.184 12.191,2.212 12.191,4.993 "
         style="fill:#474747" />
      <polygon
         transform="matrix(1.25625,0,0,1.2499983,297,503.35967)"
         id="polygon16710-6"
         points="8.384,6.016 13.215,6.016 12.19,4.993 9.408,4.993 "
         style="fill:#595959" />
      <polygon
         transform="matrix(1.25625,0,0,1.2499983,297,503.35967)"
         id="polygon16712-1"
         points="8.382,1.184 8.382,6.016 9.408,4.991 9.408,2.209 "
         style="fill:#373737" />
      <rect
         id="rect16714-0"
         height="3.4774954"
         width="3.4936311"
         y="506.12094"
         x="317.86627" />
      <polygon
         transform="matrix(1.25625,0,0,1.2499983,297,503.35967)"
         id="polygon16716-6"
         points="20.417,1.184 15.584,1.184 16.608,2.209 19.392,2.209 "
         style="fill:#2a2a29" />
      <polygon
         transform="matrix(1.25625,0,0,1.2499983,297,503.35967)"
         id="polygon16718-4"
         points="20.417,6.016 20.417,1.184 19.392,2.212 19.392,4.993 "
         style="fill:#474747" />
      <polygon
         transform="matrix(1.25625,0,0,1.2499983,297,503.35967)"
         id="polygon16720-7"
         points="15.584,6.016 20.416,6.016 19.391,4.993 16.608,4.993 "
         style="fill:#595959" />
      <polygon
         transform="matrix(1.25625,0,0,1.2499983,297,503.35967)"
         id="polygon16722-1"
         points="15.583,1.184 15.583,6.016 16.608,4.991 16.608,2.209 "
         style="fill:#373737" />
      <rect
         id="rect16724-0"
         height="3.4774954"
         width="3.4936311"
         y="506.12094"
         x="326.9126" />
      <polygon
         transform="matrix(1.25625,0,0,1.2499983,297,503.35967)"
         id="polygon16726-7"
         points="27.617,1.184 22.785,1.184 23.809,2.209 26.592,2.209 "
         style="fill:#2a2a29" />
      <polygon
         transform="matrix(1.25625,0,0,1.2499983,297,503.35967)"
         id="polygon16728-2"
         points="27.617,6.016 27.617,1.184 26.592,2.212 26.592,4.993 "
         style="fill:#474747" />
      <polygon
         transform="matrix(1.25625,0,0,1.2499983,297,503.35967)"
         id="polygon16730-0"
         points="22.785,6.016 27.616,6.016 26.59,4.993 23.809,4.993 "
         style="fill:#595959" />
      <polygon
         transform="matrix(1.25625,0,0,1.2499983,297,503.35967)"
         id="polygon16732-7"
         points="22.782,1.184 22.782,6.016 23.809,4.991 23.809,2.209 "
         style="fill:#373737" />
      <rect
         id="rect16734-3"
         height="3.4774954"
         width="3.4936311"
         y="506.12094"
         x="335.9563" />
      <polygon
         transform="matrix(1.25625,0,0,1.2499983,297,503.35967)"
         id="polygon16736-7"
         points="34.816,1.184 29.984,1.184 31.008,2.209 33.792,2.209 "
         style="fill:#2a2a29" />
      <polygon
         transform="matrix(1.25625,0,0,1.2499983,297,503.35967)"
         id="polygon16738-6"
         points="34.816,6.016 34.816,1.184 33.792,2.212 33.792,4.993 "
         style="fill:#474747" />
      <polygon
         transform="matrix(1.25625,0,0,1.2499983,297,503.35967)"
         id="polygon16740-1"
         points="29.984,6.016 34.815,6.016 33.791,4.993 31.008,4.993 "
         style="fill:#595959" />
      <polygon
         transform="matrix(1.25625,0,0,1.2499983,297,503.35967)"
         id="polygon16742-6"
         points="29.982,1.184 29.982,6.016 31.008,4.991 31.008,2.209 "
         style="fill:#373737" />
      <rect
         id="rect16744-7"
         height="3.4774954"
         width="3.4936311"
         y="506.12094"
         x="345.00256" />
      <polygon
         transform="matrix(1.25625,0,0,1.2499983,297,503.35967)"
         id="polygon16746-7"
         points="42.018,1.184 37.186,1.184 38.209,2.209 40.992,2.209 "
         style="fill:#2a2a29" />
      <polygon
         transform="matrix(1.25625,0,0,1.2499983,297,503.35967)"
         id="polygon16748-2"
         points="42.018,6.016 42.018,1.184 40.992,2.212 40.992,4.993 "
         style="fill:#474747" />
      <polygon
         transform="matrix(1.25625,0,0,1.2499983,297,503.35967)"
         id="polygon16750-4"
         points="37.186,6.016 42.016,6.016 40.99,4.993 38.209,4.993 "
         style="fill:#595959" />
      <polygon
         transform="matrix(1.25625,0,0,1.2499983,297,503.35967)"
         id="polygon16752-9"
         points="37.184,1.184 37.184,6.016 38.209,4.991 38.209,2.209 "
         style="fill:#373737" />
      <rect
         id="rect16754-5"
         height="3.4774954"
         width="3.4923751"
         y="506.12094"
         x="354.0463" />
      <polygon
         transform="matrix(1.25625,0,0,1.2499983,297,503.35967)"
         id="polygon16756-6"
         points="49.217,1.184 44.385,1.184 45.408,2.209 48.191,2.209 "
         style="fill:#2a2a29" />
      <polygon
         transform="matrix(1.25625,0,0,1.2499983,297,503.35967)"
         id="polygon16758-6"
         points="49.217,6.016 49.217,1.184 48.191,2.212 48.191,4.993 "
         style="fill:#474747" />
      <polygon
         transform="matrix(1.25625,0,0,1.2499983,297,503.35967)"
         id="polygon16760-2"
         points="44.385,6.016 49.215,6.016 48.189,4.993 45.408,4.993 "
         style="fill:#595959" />
      <polygon
         transform="matrix(1.25625,0,0,1.2499983,297,503.35967)"
         id="polygon16762-6"
         points="44.383,1.184 44.383,6.016 45.408,4.991 45.408,2.209 "
         style="fill:#373737" />
      <rect
         id="rect16764-9"
         height="3.4774954"
         width="3.4936311"
         y="506.12094"
         x="363.09006" />
      <polygon
         transform="matrix(1.25625,0,0,1.2499983,297,503.35967)"
         id="polygon16766-3"
         points="56.416,1.184 51.584,1.184 52.607,2.209 55.393,2.209 "
         style="fill:#2a2a29" />
      <polygon
         transform="matrix(1.25625,0,0,1.2499983,297,503.35967)"
         id="polygon16768-6"
         points="56.416,6.016 56.416,1.184 55.393,2.212 55.393,4.993 "
         style="fill:#474747" />
      <polygon
         transform="matrix(1.25625,0,0,1.2499983,297,503.35967)"
         id="polygon16770-2"
         points="51.584,6.016 56.416,6.016 55.391,4.993 52.607,4.993 "
         style="fill:#595959" />
      <polygon
         transform="matrix(1.25625,0,0,1.2499983,297,503.35967)"
         id="polygon16772-9"
         points="51.582,1.184 51.582,6.016 52.607,4.991 52.607,2.209 "
         style="fill:#373737" />
      <rect
         id="rect16774-9"
         height="3.4774954"
         width="3.4936311"
         y="506.12094"
         x="372.13757" />
      <polygon
         transform="matrix(1.25625,0,0,1.2499983,297,503.35967)"
         id="polygon16776-4"
         points="63.618,1.184 58.786,1.184 59.809,2.209 62.592,2.209 "
         style="fill:#2a2a29" />
      <polygon
         transform="matrix(1.25625,0,0,1.2499983,297,503.35967)"
         id="polygon16778-6"
         points="63.618,6.016 63.618,1.184 62.592,2.212 62.592,4.993 "
         style="fill:#474747" />
      <polygon
         transform="matrix(1.25625,0,0,1.2499983,297,503.35967)"
         id="polygon16780-4"
         points="58.786,6.016 63.616,6.016 62.59,4.993 59.809,4.993 "
         style="fill:#595959" />
      <polygon
         transform="matrix(1.25625,0,0,1.2499983,297,503.35967)"
         id="polygon16782-1"
         points="58.782,1.184 58.782,6.016 59.809,4.991 59.809,2.209 "
         style="fill:#373737" />
      <rect
         id="rect16784-9"
         height="3.4774954"
         width="3.4936311"
         y="506.12094"
         x="381.1813" />
      <polygon
         transform="matrix(1.25625,0,0,1.2499983,297,503.35967)"
         id="polygon16786-4"
         points="70.816,1.184 65.984,1.184 67.008,2.209 69.792,2.209 "
         style="fill:#2a2a29" />
      <polygon
         transform="matrix(1.25625,0,0,1.2499983,297,503.35967)"
         id="polygon16788-1"
         points="70.816,6.016 70.816,1.184 69.792,2.212 69.792,4.993 "
         style="fill:#474747" />
      <polygon
         transform="matrix(1.25625,0,0,1.2499983,297,503.35967)"
         id="polygon16790-1"
         points="65.984,6.016 70.814,6.016 69.792,4.993 67.008,4.993 "
         style="fill:#595959" />
      <polygon
         transform="matrix(1.25625,0,0,1.2499983,297,503.35967)"
         id="polygon16792-6"
         points="65.982,1.184 65.982,6.016 67.008,4.991 67.008,2.209 "
         style="fill:#373737" />
      <rect
         id="rect16794-8"
         height="3.4774954"
         width="3.4936311"
         y="506.12094"
         x="390.2301" />
      <polygon
         transform="matrix(1.25625,0,0,1.2499983,297,503.35967)"
         id="polygon16796-5"
         points="78.019,1.184 73.187,1.184 74.211,2.209 76.995,2.209 "
         style="fill:#2a2a29" />
      <polygon
         transform="matrix(1.25625,0,0,1.2499983,297,503.35967)"
         id="polygon16798-5"
         points="78.019,6.016 78.019,1.184 76.995,2.212 76.995,4.993 "
         style="fill:#474747" />
      <polygon
         transform="matrix(1.25625,0,0,1.2499983,297,503.35967)"
         id="polygon16800-4"
         points="73.187,6.016 78.018,6.016 76.995,4.993 74.211,4.993 "
         style="fill:#595959" />
      <polygon
         transform="matrix(1.25625,0,0,1.2499983,297,503.35967)"
         id="polygon16802-8"
         points="73.185,1.184 73.185,6.016 74.211,4.991 74.211,2.209 "
         style="fill:#373737" />
      <rect
         id="rect16804-1"
         height="3.4774954"
         width="3.4911189"
         y="506.12094"
         x="399.27762" />
      <polygon
         transform="matrix(1.25625,0,0,1.2499983,297,503.35967)"
         id="polygon16806-3"
         points="85.221,1.184 80.389,1.184 81.413,2.209 84.195,2.209 "
         style="fill:#2a2a29" />
      <polygon
         transform="matrix(1.25625,0,0,1.2499983,297,503.35967)"
         id="polygon16808-5"
         points="85.221,6.016 85.221,1.184 84.195,2.212 84.195,4.993 "
         style="fill:#474747" />
      <polygon
         transform="matrix(1.25625,0,0,1.2499983,297,503.35967)"
         id="polygon16810-5"
         points="80.389,6.016 85.219,6.016 84.193,4.993 81.413,4.993 "
         style="fill:#595959" />
      <polygon
         transform="matrix(1.25625,0,0,1.2499983,297,503.35967)"
         id="polygon16812-7"
         points="80.387,1.184 80.387,6.016 81.413,4.991 81.413,2.209 "
         style="fill:#373737" />
      <rect
         id="rect16814-5"
         height="3.4774954"
         width="3.4936311"
         y="506.12094"
         x="408.3201" />
      <polygon
         transform="matrix(1.25625,0,0,1.2499983,297,503.35967)"
         id="polygon16816-2"
         points="92.42,1.184 87.588,1.184 88.611,2.209 91.395,2.209 "
         style="fill:#2a2a29" />
      <polygon
         transform="matrix(1.25625,0,0,1.2499983,297,503.35967)"
         id="polygon16818-3"
         points="92.42,6.016 92.42,1.184 91.395,2.212 91.395,4.993 "
         style="fill:#474747" />
      <polygon
         transform="matrix(1.25625,0,0,1.2499983,297,503.35967)"
         id="polygon16820-3"
         points="87.588,6.016 92.418,6.016 91.393,4.993 88.611,4.993 "
         style="fill:#595959" />
      <polygon
         transform="matrix(1.25625,0,0,1.2499983,297,503.35967)"
         id="polygon16822-4"
         points="87.586,1.184 87.586,6.016 88.611,4.991 88.611,2.209 "
         style="fill:#373737" />
      <rect
         id="rect16824-1"
         height="3.4774954"
         width="3.4923751"
         y="506.12094"
         x="417.36383" />
      <polygon
         transform="matrix(1.25625,0,0,1.2499983,297,503.35967)"
         id="polygon16826-4"
         points="99.62,1.184 94.788,1.184 95.811,2.209 98.596,2.209 "
         style="fill:#2a2a29" />
      <polygon
         transform="matrix(1.25625,0,0,1.2499983,297,503.35967)"
         id="polygon16828-7"
         points="99.62,6.016 99.62,1.184 98.596,2.212 98.596,4.993 "
         style="fill:#474747" />
      <polygon
         transform="matrix(1.25625,0,0,1.2499983,297,503.35967)"
         id="polygon16830-7"
         points="94.788,6.016 99.62,6.016 98.594,4.993 95.811,4.993 "
         style="fill:#595959" />
      <polygon
         transform="matrix(1.25625,0,0,1.2499983,297,503.35967)"
         id="polygon16832-8"
         points="94.786,1.184 94.786,6.016 95.811,4.991 95.811,2.209 "
         style="fill:#373737" />
      <rect
         id="rect16834-9"
         height="3.4774954"
         width="3.4936311"
         y="506.12094"
         x="426.41135" />
      <polygon
         transform="matrix(1.25625,0,0,1.2499983,297,503.35967)"
         id="polygon16836-7"
         points="106.82,1.184 101.988,1.184 103.012,2.209 105.795,2.209 "
         style="fill:#2a2a29" />
      <polygon
         transform="matrix(1.25625,0,0,1.2499983,297,503.35967)"
         id="polygon16838-2"
         points="106.82,6.016 106.82,1.184 105.795,2.212 105.795,4.993 "
         style="fill:#474747" />
      <polygon
         transform="matrix(1.25625,0,0,1.2499983,297,503.35967)"
         id="polygon16840-5"
         points="101.988,6.016 106.818,6.016 105.793,4.993 103.012,4.993 "
         style="fill:#595959" />
      <polygon
         transform="matrix(1.25625,0,0,1.2499983,297,503.35967)"
         id="polygon16842-3"
         points="101.984,1.184 101.984,6.016 103.012,4.991 103.012,2.209 "
         style="fill:#373737" />
      <rect
         id="rect16844-4"
         height="3.4774954"
         width="3.4936311"
         y="506.12094"
         x="435.45508" />
      <polygon
         transform="matrix(1.25625,0,0,1.2499983,297,503.35967)"
         id="polygon16846-6"
         points="114.02,1.184 109.188,1.184 110.211,2.209 112.995,2.209 "
         style="fill:#2a2a29" />
      <polygon
         transform="matrix(1.25625,0,0,1.2499983,297,503.35967)"
         id="polygon16848-9"
         points="114.02,6.016 114.02,1.184 112.995,2.212 112.995,4.993 "
         style="fill:#474747" />
      <polygon
         transform="matrix(1.25625,0,0,1.2499983,297,503.35967)"
         id="polygon16850-5"
         points="109.188,6.016 114.018,6.016 112.995,4.993 110.211,4.993 "
         style="fill:#595959" />
      <polygon
         transform="matrix(1.25625,0,0,1.2499983,297,503.35967)"
         id="polygon16852-7"
         points="109.186,1.184 109.186,6.016 110.211,4.991 110.211,2.209 "
         style="fill:#373737" />
      <rect
         id="rect16854-7"
         height="3.4774954"
         width="3.4923751"
         y="506.12094"
         x="444.50262" />
      <polygon
         transform="matrix(1.25625,0,0,1.2499983,297,503.35967)"
         id="polygon16856-5"
         points="121.22,1.184 116.388,1.184 117.413,2.209 120.196,2.209 "
         style="fill:#2a2a29" />
      <polygon
         transform="matrix(1.25625,0,0,1.2499983,297,503.35967)"
         id="polygon16858-4"
         points="121.22,6.016 121.22,1.184 120.196,2.212 120.196,4.993 "
         style="fill:#474747" />
      <polygon
         transform="matrix(1.25625,0,0,1.2499983,297,503.35967)"
         id="polygon16860-2"
         points="116.388,6.016 121.218,6.016 120.194,4.993 117.413,4.993 "
         style="fill:#595959" />
      <polygon
         transform="matrix(1.25625,0,0,1.2499983,297,503.35967)"
         id="polygon16862-9"
         points="116.384,1.184 116.384,6.016 117.413,4.991 117.413,2.209 "
         style="fill:#373737" />
      <rect
         id="rect16864-2"
         height="3.4774954"
         width="3.4936311"
         y="506.12094"
         x="453.54636" />
      <polygon
         transform="matrix(1.25625,0,0,1.2499983,297,503.35967)"
         id="polygon16866-6"
         points="128.42,1.184 123.588,1.184 124.612,2.209 127.395,2.209 "
         style="fill:#2a2a29" />
      <polygon
         transform="matrix(1.25625,0,0,1.2499983,297,503.35967)"
         id="polygon16868-2"
         points="128.42,6.016 128.42,1.184 127.395,2.212 127.395,4.993 "
         style="fill:#474747" />
      <polygon
         transform="matrix(1.25625,0,0,1.2499983,297,503.35967)"
         id="polygon16870-8"
         points="123.588,6.016 128.418,6.016 127.395,4.993 124.612,4.993 "
         style="fill:#595959" />
      <polygon
         transform="matrix(1.25625,0,0,1.2499983,297,503.35967)"
         id="polygon16872-1"
         points="123.586,1.184 123.586,6.016 124.612,4.991 124.612,2.209 "
         style="fill:#373737" />
    </g>
  </g>
</svg>
