<?xml version="1.0" encoding="UTF-8" standalone="no"?>
<!-- Created with Inkscape (http://www.inkscape.org/) -->

<svg
   xmlns:dc="http://purl.org/dc/elements/1.1/"
   xmlns:cc="http://creativecommons.org/ns#"
   xmlns:rdf="http://www.w3.org/1999/02/22-rdf-syntax-ns#"
   xmlns:svg="http://www.w3.org/2000/svg"
   xmlns="http://www.w3.org/2000/svg"
   xmlns:sodipodi="http://sodipodi.sourceforge.net/DTD/sodipodi-0.dtd"
   xmlns:inkscape="http://www.inkscape.org/namespaces/inkscape"
   width="162.89999"
   height="9.0000076"
   id="svg2"
   version="1.1"
   inkscape:version="0.47 r22583"
   sodipodi:docname="F-20x1.svg">
  <defs
     id="defs4">
    <inkscape:perspective
       sodipodi:type="inkscape:persp3d"
       inkscape:vp_x="0 : 526.18109 : 1"
       inkscape:vp_y="0 : 1000 : 0"
       inkscape:vp_z="744.09448 : 526.18109 : 1"
       inkscape:persp3d-origin="372.04724 : 350.78739 : 1"
       id="perspective10" />
    <inkscape:perspective
       id="perspective3046"
       inkscape:persp3d-origin="0.5 : 0.33333333 : 1"
       inkscape:vp_z="1 : 0.5 : 1"
       inkscape:vp_y="0 : 1000 : 0"
       inkscape:vp_x="0 : 0.5 : 1"
       sodipodi:type="inkscape:persp3d" />
    <inkscape:perspective
       id="perspective3422"
       inkscape:persp3d-origin="0.5 : 0.33333333 : 1"
       inkscape:vp_z="1 : 0.5 : 1"
       inkscape:vp_y="0 : 1000 : 0"
       inkscape:vp_x="0 : 0.5 : 1"
       sodipodi:type="inkscape:persp3d" />
    <inkscape:perspective
       id="perspective3756"
       inkscape:persp3d-origin="0.5 : 0.33333333 : 1"
       inkscape:vp_z="1 : 0.5 : 1"
       inkscape:vp_y="0 : 1000 : 0"
       inkscape:vp_x="0 : 0.5 : 1"
       sodipodi:type="inkscape:persp3d" />
    <inkscape:perspective
       id="perspective4481"
       inkscape:persp3d-origin="0.5 : 0.33333333 : 1"
       inkscape:vp_z="1 : 0.5 : 1"
       inkscape:vp_y="0 : 1000 : 0"
       inkscape:vp_x="0 : 0.5 : 1"
       sodipodi:type="inkscape:persp3d" />
    <inkscape:perspective
       id="perspective4895"
       inkscape:persp3d-origin="0.5 : 0.33333333 : 1"
       inkscape:vp_z="1 : 0.5 : 1"
       inkscape:vp_y="0 : 1000 : 0"
       inkscape:vp_x="0 : 0.5 : 1"
       sodipodi:type="inkscape:persp3d" />
    <inkscape:perspective
       id="perspective5349"
       inkscape:persp3d-origin="0.5 : 0.33333333 : 1"
       inkscape:vp_z="1 : 0.5 : 1"
       inkscape:vp_y="0 : 1000 : 0"
       inkscape:vp_x="0 : 0.5 : 1"
       sodipodi:type="inkscape:persp3d" />
    <inkscape:perspective
       id="perspective5843"
       inkscape:persp3d-origin="0.5 : 0.33333333 : 1"
       inkscape:vp_z="1 : 0.5 : 1"
       inkscape:vp_y="0 : 1000 : 0"
       inkscape:vp_x="0 : 0.5 : 1"
       sodipodi:type="inkscape:persp3d" />
    <inkscape:perspective
       id="perspective6377"
       inkscape:persp3d-origin="0.5 : 0.33333333 : 1"
       inkscape:vp_z="1 : 0.5 : 1"
       inkscape:vp_y="0 : 1000 : 0"
       inkscape:vp_x="0 : 0.5 : 1"
       sodipodi:type="inkscape:persp3d" />
    <inkscape:perspective
       id="perspective7112"
       inkscape:persp3d-origin="0.5 : 0.33333333 : 1"
       inkscape:vp_z="1 : 0.5 : 1"
       inkscape:vp_y="0 : 1000 : 0"
       inkscape:vp_x="0 : 0.5 : 1"
       sodipodi:type="inkscape:persp3d" />
    <inkscape:perspective
       id="perspective16910"
       inkscape:persp3d-origin="0.5 : 0.33333333 : 1"
       inkscape:vp_z="1 : 0.5 : 1"
       inkscape:vp_y="0 : 1000 : 0"
       inkscape:vp_x="0 : 0.5 : 1"
       sodipodi:type="inkscape:persp3d" />
    <inkscape:perspective
       id="perspective29023"
       inkscape:persp3d-origin="0.5 : 0.33333333 : 1"
       inkscape:vp_z="1 : 0.5 : 1"
       inkscape:vp_y="0 : 1000 : 0"
       inkscape:vp_x="0 : 0.5 : 1"
       sodipodi:type="inkscape:persp3d" />
  </defs>
  <sodipodi:namedview
     id="base"
     pagecolor="#ffffff"
     bordercolor="#666666"
     borderopacity="1.0"
     inkscape:pageopacity="0.0"
     inkscape:pageshadow="2"
     inkscape:zoom="11.2"
     inkscape:cx="158.73285"
     inkscape:cy="-4.2075116"
     inkscape:document-units="in"
     inkscape:current-layer="layer1"
     showgrid="true"
     units="in"
     inkscape:window-width="1680"
     inkscape:window-height="990"
     inkscape:window-x="-4"
     inkscape:window-y="-4"
     inkscape:window-maximized="1">
    <inkscape:grid
       type="xygrid"
       id="grid2816"
       empspacing="10"
       visible="true"
       enabled="true"
       snapvisiblegridlinesonly="false"
       units="in"
       spacingx="0.01in"
       spacingy="0.01in"
       empcolor="#991800"
       empopacity="0.25098039" />
  </sodipodi:namedview>
  <metadata
     id="metadata7">
    <rdf:RDF>
      <cc:Work
         rdf:about="">
        <dc:format>image/svg+xml</dc:format>
        <dc:type
           rdf:resource="http://purl.org/dc/dcmitype/StillImage" />
        <dc:title></dc:title>
      </cc:Work>
    </rdf:RDF>
  </metadata>
  <g
     inkscape:label="Layer 1"
     inkscape:groupmode="layer"
     id="layer1"
     transform="translate(-297,-494.35968)">
    <g
       id="g29491">
      <rect
         id="rect28825"
         height="9.0000076"
         width="162.89999"
         x="297"
         y="494.35968"
         style="fill:#404040" />
      <rect
         id="rect28827"
         height="3.4775028"
         width="3.4955623"
         y="497.12094"
         x="299.77783" />
      <polygon
         transform="matrix(1.2569444,0,0,1.250001,297,494.35969)"
         id="polygon28829"
         points="4.992,2.209 6.017,1.184 1.185,1.184 2.208,2.209 "
         style="fill:#2a2a29" />
      <polygon
         transform="matrix(1.2569444,0,0,1.250001,297,494.35969)"
         id="polygon28831"
         points="4.992,4.993 6.017,6.016 6.017,1.184 4.992,2.212 "
         style="fill:#474747" />
      <polygon
         transform="matrix(1.2569444,0,0,1.250001,297,494.35969)"
         id="polygon28833"
         points="2.208,4.993 1.185,6.016 6.016,6.016 4.991,4.993 "
         style="fill:#595959" />
      <polygon
         transform="matrix(1.2569444,0,0,1.250001,297,494.35969)"
         id="polygon28835"
         points="2.208,2.209 1.183,1.184 1.183,6.016 2.208,4.991 "
         style="fill:#373737" />
      <rect
         id="rect28837"
         height="3.4775028"
         width="3.4955623"
         y="497.12094"
         x="308.82913" />
      <polygon
         transform="matrix(1.2569444,0,0,1.250001,297,494.35969)"
         id="polygon28839"
         points="12.191,2.209 13.216,1.184 8.384,1.184 9.408,2.209 "
         style="fill:#2a2a29" />
      <polygon
         transform="matrix(1.2569444,0,0,1.250001,297,494.35969)"
         id="polygon28841"
         points="12.191,4.993 13.216,6.016 13.216,1.184 12.191,2.212 "
         style="fill:#474747" />
      <polygon
         transform="matrix(1.2569444,0,0,1.250001,297,494.35969)"
         id="polygon28843"
         points="9.408,4.993 8.384,6.016 13.215,6.016 12.19,4.993 "
         style="fill:#595959" />
      <polygon
         transform="matrix(1.2569444,0,0,1.250001,297,494.35969)"
         id="polygon28845"
         points="9.408,2.209 8.382,1.184 8.382,6.016 9.408,4.991 "
         style="fill:#373737" />
      <rect
         id="rect28847"
         height="3.4775028"
         width="3.4955623"
         y="497.12094"
         x="317.87784" />
      <polygon
         transform="matrix(1.2569444,0,0,1.250001,297,494.35969)"
         id="polygon28849"
         points="19.392,2.209 20.417,1.184 15.584,1.184 16.608,2.209 "
         style="fill:#2a2a29" />
      <polygon
         transform="matrix(1.2569444,0,0,1.250001,297,494.35969)"
         id="polygon28851"
         points="19.392,4.993 20.417,6.016 20.417,1.184 19.392,2.212 "
         style="fill:#474747" />
      <polygon
         transform="matrix(1.2569444,0,0,1.250001,297,494.35969)"
         id="polygon28853"
         points="16.608,4.993 15.584,6.016 20.416,6.016 19.391,4.993 "
         style="fill:#595959" />
      <polygon
         transform="matrix(1.2569444,0,0,1.250001,297,494.35969)"
         id="polygon28855"
         points="16.608,2.209 15.583,1.184 15.583,6.016 16.608,4.991 "
         style="fill:#373737" />
      <rect
         id="rect28857"
         height="3.4775028"
         width="3.4955623"
         y="497.12094"
         x="326.92911" />
      <polygon
         transform="matrix(1.2569444,0,0,1.250001,297,494.35969)"
         id="polygon28859"
         points="26.592,2.209 27.617,1.184 22.785,1.184 23.809,2.209 "
         style="fill:#2a2a29" />
      <polygon
         transform="matrix(1.2569444,0,0,1.250001,297,494.35969)"
         id="polygon28861"
         points="26.592,4.993 27.617,6.016 27.617,1.184 26.592,2.212 "
         style="fill:#474747" />
      <polygon
         transform="matrix(1.2569444,0,0,1.250001,297,494.35969)"
         id="polygon28863"
         points="23.809,4.993 22.785,6.016 27.616,6.016 26.59,4.993 "
         style="fill:#595959" />
      <polygon
         transform="matrix(1.2569444,0,0,1.250001,297,494.35969)"
         id="polygon28865"
         points="23.809,2.209 22.782,1.184 22.782,6.016 23.809,4.991 "
         style="fill:#373737" />
      <rect
         id="rect28867"
         height="3.4775028"
         width="3.4955623"
         y="497.12094"
         x="335.97787" />
      <polygon
         transform="matrix(1.2569444,0,0,1.250001,297,494.35969)"
         id="polygon28869"
         points="33.792,2.209 34.816,1.184 29.984,1.184 31.008,2.209 "
         style="fill:#2a2a29" />
      <polygon
         transform="matrix(1.2569444,0,0,1.250001,297,494.35969)"
         id="polygon28871"
         points="33.792,4.993 34.816,6.016 34.816,1.184 33.792,2.212 "
         style="fill:#474747" />
      <polygon
         transform="matrix(1.2569444,0,0,1.250001,297,494.35969)"
         id="polygon28873"
         points="31.008,4.993 29.984,6.016 34.815,6.016 33.791,4.993 "
         style="fill:#595959" />
      <polygon
         transform="matrix(1.2569444,0,0,1.250001,297,494.35969)"
         id="polygon28875"
         points="31.008,2.209 29.982,1.184 29.982,6.016 31.008,4.991 "
         style="fill:#373737" />
      <rect
         id="rect28877"
         height="3.4775028"
         width="3.4955623"
         y="497.12094"
         x="345.02911" />
      <polygon
         transform="matrix(1.2569444,0,0,1.250001,297,494.35969)"
         id="polygon28879"
         points="40.992,2.209 42.018,1.184 37.186,1.184 38.209,2.209 "
         style="fill:#2a2a29" />
      <polygon
         transform="matrix(1.2569444,0,0,1.250001,297,494.35969)"
         id="polygon28881"
         points="40.992,4.993 42.018,6.016 42.018,1.184 40.992,2.212 "
         style="fill:#474747" />
      <polygon
         transform="matrix(1.2569444,0,0,1.250001,297,494.35969)"
         id="polygon28883"
         points="38.209,4.993 37.186,6.016 42.016,6.016 40.99,4.993 "
         style="fill:#595959" />
      <polygon
         transform="matrix(1.2569444,0,0,1.250001,297,494.35969)"
         id="polygon28885"
         points="38.209,2.209 37.184,1.184 37.184,6.016 38.209,4.991 "
         style="fill:#373737" />
      <rect
         id="rect28887"
         height="3.4775028"
         width="3.4955623"
         y="497.12094"
         x="354.07785" />
      <polygon
         transform="matrix(1.2569444,0,0,1.250001,297,494.35969)"
         id="polygon28889"
         points="48.191,2.209 49.217,1.184 44.385,1.184 45.408,2.209 "
         style="fill:#2a2a29" />
      <polygon
         transform="matrix(1.2569444,0,0,1.250001,297,494.35969)"
         id="polygon28891"
         points="48.191,4.993 49.217,6.016 49.217,1.184 48.191,2.212 "
         style="fill:#474747" />
      <polygon
         transform="matrix(1.2569444,0,0,1.250001,297,494.35969)"
         id="polygon28893"
         points="45.408,4.993 44.385,6.016 49.215,6.016 48.189,4.993 "
         style="fill:#595959" />
      <polygon
         transform="matrix(1.2569444,0,0,1.250001,297,494.35969)"
         id="polygon28895"
         points="45.408,2.209 44.383,1.184 44.383,6.016 45.408,4.991 "
         style="fill:#373737" />
      <rect
         id="rect28897"
         height="3.4775028"
         width="3.4955623"
         y="497.12094"
         x="363.12659" />
      <polygon
         transform="matrix(1.2569444,0,0,1.250001,297,494.35969)"
         id="polygon28899"
         points="55.393,2.209 56.416,1.184 51.584,1.184 52.607,2.209 "
         style="fill:#2a2a29" />
      <polygon
         transform="matrix(1.2569444,0,0,1.250001,297,494.35969)"
         id="polygon28901"
         points="55.393,4.993 56.416,6.016 56.416,1.184 55.393,2.212 "
         style="fill:#474747" />
      <polygon
         transform="matrix(1.2569444,0,0,1.250001,297,494.35969)"
         id="polygon28903"
         points="52.607,4.993 51.584,6.016 56.416,6.016 55.391,4.993 "
         style="fill:#595959" />
      <polygon
         transform="matrix(1.2569444,0,0,1.250001,297,494.35969)"
         id="polygon28905"
         points="52.607,2.209 51.582,1.184 51.582,6.016 52.607,4.991 "
         style="fill:#373737" />
      <rect
         id="rect28907"
         height="3.4775028"
         width="3.4955623"
         y="497.12094"
         x="372.17911" />
      <polygon
         transform="matrix(1.2569444,0,0,1.250001,297,494.35969)"
         id="polygon28909"
         points="62.592,2.209 63.618,1.184 58.786,1.184 59.809,2.209 "
         style="fill:#2a2a29" />
      <polygon
         transform="matrix(1.2569444,0,0,1.250001,297,494.35969)"
         id="polygon28911"
         points="62.592,4.993 63.618,6.016 63.618,1.184 62.592,2.212 "
         style="fill:#474747" />
      <polygon
         transform="matrix(1.2569444,0,0,1.250001,297,494.35969)"
         id="polygon28913"
         points="59.809,4.993 58.786,6.016 63.616,6.016 62.59,4.993 "
         style="fill:#595959" />
      <polygon
         transform="matrix(1.2569444,0,0,1.250001,297,494.35969)"
         id="polygon28915"
         points="59.809,2.209 58.782,1.184 58.782,6.016 59.809,4.991 "
         style="fill:#373737" />
      <rect
         id="rect28917"
         height="3.4775028"
         width="3.4955623"
         y="497.12094"
         x="381.22787" />
      <polygon
         transform="matrix(1.2569444,0,0,1.250001,297,494.35969)"
         id="polygon28919"
         points="69.792,2.209 70.816,1.184 65.984,1.184 67.008,2.209 "
         style="fill:#2a2a29" />
      <polygon
         transform="matrix(1.2569444,0,0,1.250001,297,494.35969)"
         id="polygon28921"
         points="69.792,4.993 70.816,6.016 70.816,1.184 69.792,2.212 "
         style="fill:#474747" />
      <polygon
         transform="matrix(1.2569444,0,0,1.250001,297,494.35969)"
         id="polygon28923"
         points="67.008,4.993 65.984,6.016 70.814,6.016 69.792,4.993 "
         style="fill:#595959" />
      <polygon
         transform="matrix(1.2569444,0,0,1.250001,297,494.35969)"
         id="polygon28925"
         points="67.008,2.209 65.982,1.184 65.982,6.016 67.008,4.991 "
         style="fill:#373737" />
      <rect
         id="rect28927"
         height="3.4775028"
         width="3.4955623"
         y="497.12094"
         x="390.28165" />
      <polygon
         transform="matrix(1.2569444,0,0,1.250001,297,494.35969)"
         id="polygon28929"
         points="76.995,2.209 78.019,1.184 73.187,1.184 74.211,2.209 "
         style="fill:#2a2a29" />
      <polygon
         transform="matrix(1.2569444,0,0,1.250001,297,494.35969)"
         id="polygon28931"
         points="76.995,4.993 78.019,6.016 78.019,1.184 76.995,2.212 "
         style="fill:#474747" />
      <polygon
         transform="matrix(1.2569444,0,0,1.250001,297,494.35969)"
         id="polygon28933"
         points="74.211,4.993 73.187,6.016 78.018,6.016 76.995,4.993 "
         style="fill:#595959" />
      <polygon
         transform="matrix(1.2569444,0,0,1.250001,297,494.35969)"
         id="polygon28935"
         points="74.211,2.209 73.185,1.184 73.185,6.016 74.211,4.991 "
         style="fill:#373737" />
      <rect
         id="rect28937"
         height="3.4775028"
         width="3.4943054"
         y="497.12094"
         x="399.33414" />
      <polygon
         transform="matrix(1.2569444,0,0,1.250001,297,494.35969)"
         id="polygon28939"
         points="84.195,2.209 85.221,1.184 80.389,1.184 81.413,2.209 "
         style="fill:#2a2a29" />
      <polygon
         transform="matrix(1.2569444,0,0,1.250001,297,494.35969)"
         id="polygon28941"
         points="84.195,4.993 85.221,6.016 85.221,1.184 84.195,2.212 "
         style="fill:#474747" />
      <polygon
         transform="matrix(1.2569444,0,0,1.250001,297,494.35969)"
         id="polygon28943"
         points="81.413,4.993 80.389,6.016 85.219,6.016 84.193,4.993 "
         style="fill:#595959" />
      <polygon
         transform="matrix(1.2569444,0,0,1.250001,297,494.35969)"
         id="polygon28945"
         points="81.413,2.209 80.387,1.184 80.387,6.016 81.413,4.991 "
         style="fill:#373737" />
      <rect
         id="rect28947"
         height="3.4775028"
         width="3.4955623"
         y="497.12094"
         x="408.38159" />
      <polygon
         transform="matrix(1.2569444,0,0,1.250001,297,494.35969)"
         id="polygon28949"
         points="91.395,2.209 92.42,1.184 87.588,1.184 88.611,2.209 "
         style="fill:#2a2a29" />
      <polygon
         transform="matrix(1.2569444,0,0,1.250001,297,494.35969)"
         id="polygon28951"
         points="91.395,4.993 92.42,6.016 92.42,1.184 91.395,2.212 "
         style="fill:#474747" />
      <polygon
         transform="matrix(1.2569444,0,0,1.250001,297,494.35969)"
         id="polygon28953"
         points="88.611,4.993 87.588,6.016 92.418,6.016 91.393,4.993 "
         style="fill:#595959" />
      <polygon
         transform="matrix(1.2569444,0,0,1.250001,297,494.35969)"
         id="polygon28955"
         points="88.611,2.209 87.586,1.184 87.586,6.016 88.611,4.991 "
         style="fill:#373737" />
      <rect
         id="rect28957"
         height="3.4775028"
         width="3.4943054"
         y="497.12094"
         x="417.43039" />
      <polygon
         transform="matrix(1.2569444,0,0,1.250001,297,494.35969)"
         id="polygon28959"
         points="98.596,2.209 99.62,1.184 94.788,1.184 95.811,2.209 "
         style="fill:#2a2a29" />
      <polygon
         transform="matrix(1.2569444,0,0,1.250001,297,494.35969)"
         id="polygon28961"
         points="98.596,4.993 99.62,6.016 99.62,1.184 98.596,2.212 "
         style="fill:#474747" />
      <polygon
         transform="matrix(1.2569444,0,0,1.250001,297,494.35969)"
         id="polygon28963"
         points="95.811,4.993 94.788,6.016 99.62,6.016 98.594,4.993 "
         style="fill:#595959" />
      <polygon
         transform="matrix(1.2569444,0,0,1.250001,297,494.35969)"
         id="polygon28965"
         points="95.811,2.209 94.786,1.184 94.786,6.016 95.811,4.991 "
         style="fill:#373737" />
      <rect
         id="rect28967"
         height="3.4775028"
         width="3.4955623"
         y="497.12094"
         x="426.48288" />
      <polygon
         transform="matrix(1.2569444,0,0,1.250001,297,494.35969)"
         id="polygon28969"
         points="105.795,2.209 106.82,1.184 101.988,1.184 103.012,2.209 "
         style="fill:#2a2a29" />
      <polygon
         transform="matrix(1.2569444,0,0,1.250001,297,494.35969)"
         id="polygon28971"
         points="105.795,4.993 106.82,6.016 106.82,1.184 105.795,2.212 "
         style="fill:#474747" />
      <polygon
         transform="matrix(1.2569444,0,0,1.250001,297,494.35969)"
         id="polygon28973"
         points="103.012,4.993 101.988,6.016 106.818,6.016 105.793,4.993 "
         style="fill:#595959" />
      <polygon
         transform="matrix(1.2569444,0,0,1.250001,297,494.35969)"
         id="polygon28975"
         points="103.012,2.209 101.984,1.184 101.984,6.016 103.012,4.991 "
         style="fill:#373737" />
      <rect
         id="rect28977"
         height="3.4775028"
         width="3.4955623"
         y="497.12094"
         x="435.53165" />
      <polygon
         transform="matrix(1.2569444,0,0,1.250001,297,494.35969)"
         id="polygon28979"
         points="112.995,2.209 114.02,1.184 109.188,1.184 110.211,2.209 "
         style="fill:#2a2a29" />
      <polygon
         transform="matrix(1.2569444,0,0,1.250001,297,494.35969)"
         id="polygon28981"
         points="112.995,4.993 114.02,6.016 114.02,1.184 112.995,2.212 "
         style="fill:#474747" />
      <polygon
         transform="matrix(1.2569444,0,0,1.250001,297,494.35969)"
         id="polygon28983"
         points="110.211,4.993 109.188,6.016 114.018,6.016 112.995,4.993 "
         style="fill:#595959" />
      <polygon
         transform="matrix(1.2569444,0,0,1.250001,297,494.35969)"
         id="polygon28985"
         points="110.211,2.209 109.186,1.184 109.186,6.016 110.211,4.991 "
         style="fill:#373737" />
      <rect
         id="rect28987"
         height="3.4775028"
         width="3.4955623"
         y="497.12094"
         x="444.58414" />
      <polygon
         transform="matrix(1.2569444,0,0,1.250001,297,494.35969)"
         id="polygon28989"
         points="120.196,2.209 121.22,1.184 116.388,1.184 117.413,2.209 "
         style="fill:#2a2a29" />
      <polygon
         transform="matrix(1.2569444,0,0,1.250001,297,494.35969)"
         id="polygon28991"
         points="120.196,4.993 121.22,6.016 121.22,1.184 120.196,2.212 "
         style="fill:#474747" />
      <polygon
         transform="matrix(1.2569444,0,0,1.250001,297,494.35969)"
         id="polygon28993"
         points="117.413,4.993 116.388,6.016 121.218,6.016 120.194,4.993 "
         style="fill:#595959" />
      <polygon
         transform="matrix(1.2569444,0,0,1.250001,297,494.35969)"
         id="polygon28995"
         points="117.413,2.209 116.384,1.184 116.384,6.016 117.413,4.991 "
         style="fill:#373737" />
      <rect
         id="rect28997"
         height="3.4775028"
         width="3.4955623"
         y="497.12094"
         x="453.6329" />
      <polygon
         transform="matrix(1.2569444,0,0,1.250001,297,494.35969)"
         id="polygon28999"
         points="127.395,2.209 128.42,1.184 123.588,1.184 124.612,2.209 "
         style="fill:#2a2a29" />
      <polygon
         transform="matrix(1.2569444,0,0,1.250001,297,494.35969)"
         id="polygon29001"
         points="127.395,4.993 128.42,6.016 128.42,1.184 127.395,2.212 "
         style="fill:#474747" />
      <polygon
         transform="matrix(1.2569444,0,0,1.250001,297,494.35969)"
         id="polygon29003"
         points="124.612,4.993 123.588,6.016 128.418,6.016 127.395,4.993 "
         style="fill:#595959" />
      <polygon
         transform="matrix(1.2569444,0,0,1.250001,297,494.35969)"
         id="polygon29005"
         points="124.612,2.209 123.586,1.184 123.586,6.016 124.612,4.991 "
         style="fill:#373737" />
    </g>
  </g>
</svg>
