<?xml version="1.0" encoding="UTF-8" standalone="no"?>
<!-- Created with Inkscape (http://www.inkscape.org/) -->

<svg
   xmlns:dc="http://purl.org/dc/elements/1.1/"
   xmlns:cc="http://creativecommons.org/ns#"
   xmlns:rdf="http://www.w3.org/1999/02/22-rdf-syntax-ns#"
   xmlns:svg="http://www.w3.org/2000/svg"
   xmlns="http://www.w3.org/2000/svg"
   xmlns:sodipodi="http://sodipodi.sourceforge.net/DTD/sodipodi-0.dtd"
   xmlns:inkscape="http://www.inkscape.org/namespaces/inkscape"
   width="180.89999"
   height="8.9999876"
   id="svg2"
   version="1.1"
   inkscape:version="0.47 r22583"
   sodipodi:docname="F-20x1.svg">
  <defs
     id="defs4">
    <inkscape:perspective
       sodipodi:type="inkscape:persp3d"
       inkscape:vp_x="0 : 526.18109 : 1"
       inkscape:vp_y="0 : 1000 : 0"
       inkscape:vp_z="744.09448 : 526.18109 : 1"
       inkscape:persp3d-origin="372.04724 : 350.78739 : 1"
       id="perspective10" />
    <inkscape:perspective
       id="perspective3046"
       inkscape:persp3d-origin="0.5 : 0.33333333 : 1"
       inkscape:vp_z="1 : 0.5 : 1"
       inkscape:vp_y="0 : 1000 : 0"
       inkscape:vp_x="0 : 0.5 : 1"
       sodipodi:type="inkscape:persp3d" />
    <inkscape:perspective
       id="perspective3422"
       inkscape:persp3d-origin="0.5 : 0.33333333 : 1"
       inkscape:vp_z="1 : 0.5 : 1"
       inkscape:vp_y="0 : 1000 : 0"
       inkscape:vp_x="0 : 0.5 : 1"
       sodipodi:type="inkscape:persp3d" />
    <inkscape:perspective
       id="perspective3756"
       inkscape:persp3d-origin="0.5 : 0.33333333 : 1"
       inkscape:vp_z="1 : 0.5 : 1"
       inkscape:vp_y="0 : 1000 : 0"
       inkscape:vp_x="0 : 0.5 : 1"
       sodipodi:type="inkscape:persp3d" />
    <inkscape:perspective
       id="perspective4481"
       inkscape:persp3d-origin="0.5 : 0.33333333 : 1"
       inkscape:vp_z="1 : 0.5 : 1"
       inkscape:vp_y="0 : 1000 : 0"
       inkscape:vp_x="0 : 0.5 : 1"
       sodipodi:type="inkscape:persp3d" />
    <inkscape:perspective
       id="perspective4895"
       inkscape:persp3d-origin="0.5 : 0.33333333 : 1"
       inkscape:vp_z="1 : 0.5 : 1"
       inkscape:vp_y="0 : 1000 : 0"
       inkscape:vp_x="0 : 0.5 : 1"
       sodipodi:type="inkscape:persp3d" />
    <inkscape:perspective
       id="perspective5349"
       inkscape:persp3d-origin="0.5 : 0.33333333 : 1"
       inkscape:vp_z="1 : 0.5 : 1"
       inkscape:vp_y="0 : 1000 : 0"
       inkscape:vp_x="0 : 0.5 : 1"
       sodipodi:type="inkscape:persp3d" />
    <inkscape:perspective
       id="perspective5843"
       inkscape:persp3d-origin="0.5 : 0.33333333 : 1"
       inkscape:vp_z="1 : 0.5 : 1"
       inkscape:vp_y="0 : 1000 : 0"
       inkscape:vp_x="0 : 0.5 : 1"
       sodipodi:type="inkscape:persp3d" />
    <inkscape:perspective
       id="perspective6377"
       inkscape:persp3d-origin="0.5 : 0.33333333 : 1"
       inkscape:vp_z="1 : 0.5 : 1"
       inkscape:vp_y="0 : 1000 : 0"
       inkscape:vp_x="0 : 0.5 : 1"
       sodipodi:type="inkscape:persp3d" />
    <inkscape:perspective
       id="perspective7112"
       inkscape:persp3d-origin="0.5 : 0.33333333 : 1"
       inkscape:vp_z="1 : 0.5 : 1"
       inkscape:vp_y="0 : 1000 : 0"
       inkscape:vp_x="0 : 0.5 : 1"
       sodipodi:type="inkscape:persp3d" />
    <inkscape:perspective
       id="perspective16910"
       inkscape:persp3d-origin="0.5 : 0.33333333 : 1"
       inkscape:vp_z="1 : 0.5 : 1"
       inkscape:vp_y="0 : 1000 : 0"
       inkscape:vp_x="0 : 0.5 : 1"
       sodipodi:type="inkscape:persp3d" />
  </defs>
  <sodipodi:namedview
     id="base"
     pagecolor="#ffffff"
     bordercolor="#666666"
     borderopacity="1.0"
     inkscape:pageopacity="0.0"
     inkscape:pageshadow="2"
     inkscape:zoom="15.839192"
     inkscape:cx="159.83228"
     inkscape:cy="0.84326219"
     inkscape:document-units="in"
     inkscape:current-layer="layer1"
     showgrid="true"
     units="in"
     inkscape:window-width="1680"
     inkscape:window-height="990"
     inkscape:window-x="-4"
     inkscape:window-y="-4"
     inkscape:window-maximized="1">
    <inkscape:grid
       type="xygrid"
       id="grid2816"
       empspacing="10"
       visible="true"
       enabled="true"
       snapvisiblegridlinesonly="false"
       units="in"
       spacingx="0.01in"
       spacingy="0.01in"
       empcolor="#991800"
       empopacity="0.25098039" />
  </sodipodi:namedview>
  <metadata
     id="metadata7">
    <rdf:RDF>
      <cc:Work
         rdf:about="">
        <dc:format>image/svg+xml</dc:format>
        <dc:type
           rdf:resource="http://purl.org/dc/dcmitype/StillImage" />
        <dc:title />
      </cc:Work>
    </rdf:RDF>
  </metadata>
  <g
     inkscape:label="Layer 1"
     inkscape:groupmode="layer"
     id="layer1"
     transform="translate(-297,-494.35971)">
    <g
       id="g29923">
      <rect
         id="rect16692"
         height="8.9999876"
         width="180.89999"
         x="297"
         y="494.35971"
         style="fill:#404040" />
      <rect
         id="rect16694"
         height="3.4774954"
         width="3.4936311"
         y="497.12094"
         x="299.77631" />
      <polygon
         transform="matrix(1.25625,0,0,1.2499983,297,494.35968)"
         id="polygon16696"
         points="2.208,2.209 4.992,2.209 6.017,1.184 1.185,1.184 "
         style="fill:#2a2a29" />
      <polygon
         transform="matrix(1.25625,0,0,1.2499983,297,494.35968)"
         id="polygon16698"
         points="4.992,2.212 4.992,4.993 6.017,6.016 6.017,1.184 "
         style="fill:#474747" />
      <polygon
         transform="matrix(1.25625,0,0,1.2499983,297,494.35968)"
         id="polygon16700"
         points="4.991,4.993 2.208,4.993 1.185,6.016 6.016,6.016 "
         style="fill:#595959" />
      <polygon
         transform="matrix(1.25625,0,0,1.2499983,297,494.35968)"
         id="polygon16702"
         points="2.208,4.991 2.208,2.209 1.183,1.184 1.183,6.016 "
         style="fill:#373737" />
      <rect
         id="rect16704"
         height="3.4774954"
         width="3.4923751"
         y="497.12094"
         x="308.8226" />
      <polygon
         transform="matrix(1.25625,0,0,1.2499983,297,494.35968)"
         id="polygon16706"
         points="9.408,2.209 12.191,2.209 13.216,1.184 8.384,1.184 "
         style="fill:#2a2a29" />
      <polygon
         transform="matrix(1.25625,0,0,1.2499983,297,494.35968)"
         id="polygon16708"
         points="12.191,2.212 12.191,4.993 13.216,6.016 13.216,1.184 "
         style="fill:#474747" />
      <polygon
         transform="matrix(1.25625,0,0,1.2499983,297,494.35968)"
         id="polygon16710"
         points="12.19,4.993 9.408,4.993 8.384,6.016 13.215,6.016 "
         style="fill:#595959" />
      <polygon
         transform="matrix(1.25625,0,0,1.2499983,297,494.35968)"
         id="polygon16712"
         points="9.408,4.991 9.408,2.209 8.382,1.184 8.382,6.016 "
         style="fill:#373737" />
      <rect
         id="rect16714"
         height="3.4774954"
         width="3.4936311"
         y="497.12094"
         x="317.86627" />
      <polygon
         transform="matrix(1.25625,0,0,1.2499983,297,494.35968)"
         id="polygon16716"
         points="16.608,2.209 19.392,2.209 20.417,1.184 15.584,1.184 "
         style="fill:#2a2a29" />
      <polygon
         transform="matrix(1.25625,0,0,1.2499983,297,494.35968)"
         id="polygon16718"
         points="19.392,2.212 19.392,4.993 20.417,6.016 20.417,1.184 "
         style="fill:#474747" />
      <polygon
         transform="matrix(1.25625,0,0,1.2499983,297,494.35968)"
         id="polygon16720"
         points="19.391,4.993 16.608,4.993 15.584,6.016 20.416,6.016 "
         style="fill:#595959" />
      <polygon
         transform="matrix(1.25625,0,0,1.2499983,297,494.35968)"
         id="polygon16722"
         points="16.608,4.991 16.608,2.209 15.583,1.184 15.583,6.016 "
         style="fill:#373737" />
      <rect
         id="rect16724"
         height="3.4774954"
         width="3.4936311"
         y="497.12094"
         x="326.9126" />
      <polygon
         transform="matrix(1.25625,0,0,1.2499983,297,494.35968)"
         id="polygon16726"
         points="23.809,2.209 26.592,2.209 27.617,1.184 22.785,1.184 "
         style="fill:#2a2a29" />
      <polygon
         transform="matrix(1.25625,0,0,1.2499983,297,494.35968)"
         id="polygon16728"
         points="26.592,2.212 26.592,4.993 27.617,6.016 27.617,1.184 "
         style="fill:#474747" />
      <polygon
         transform="matrix(1.25625,0,0,1.2499983,297,494.35968)"
         id="polygon16730"
         points="26.59,4.993 23.809,4.993 22.785,6.016 27.616,6.016 "
         style="fill:#595959" />
      <polygon
         transform="matrix(1.25625,0,0,1.2499983,297,494.35968)"
         id="polygon16732"
         points="23.809,4.991 23.809,2.209 22.782,1.184 22.782,6.016 "
         style="fill:#373737" />
      <rect
         id="rect16734"
         height="3.4774954"
         width="3.4936311"
         y="497.12094"
         x="335.9563" />
      <polygon
         transform="matrix(1.25625,0,0,1.2499983,297,494.35968)"
         id="polygon16736"
         points="31.008,2.209 33.792,2.209 34.816,1.184 29.984,1.184 "
         style="fill:#2a2a29" />
      <polygon
         transform="matrix(1.25625,0,0,1.2499983,297,494.35968)"
         id="polygon16738"
         points="33.792,2.212 33.792,4.993 34.816,6.016 34.816,1.184 "
         style="fill:#474747" />
      <polygon
         transform="matrix(1.25625,0,0,1.2499983,297,494.35968)"
         id="polygon16740"
         points="33.791,4.993 31.008,4.993 29.984,6.016 34.815,6.016 "
         style="fill:#595959" />
      <polygon
         transform="matrix(1.25625,0,0,1.2499983,297,494.35968)"
         id="polygon16742"
         points="31.008,4.991 31.008,2.209 29.982,1.184 29.982,6.016 "
         style="fill:#373737" />
      <rect
         id="rect16744"
         height="3.4774954"
         width="3.4936311"
         y="497.12094"
         x="345.00256" />
      <polygon
         transform="matrix(1.25625,0,0,1.2499983,297,494.35968)"
         id="polygon16746"
         points="38.209,2.209 40.992,2.209 42.018,1.184 37.186,1.184 "
         style="fill:#2a2a29" />
      <polygon
         transform="matrix(1.25625,0,0,1.2499983,297,494.35968)"
         id="polygon16748"
         points="40.992,2.212 40.992,4.993 42.018,6.016 42.018,1.184 "
         style="fill:#474747" />
      <polygon
         transform="matrix(1.25625,0,0,1.2499983,297,494.35968)"
         id="polygon16750"
         points="40.99,4.993 38.209,4.993 37.186,6.016 42.016,6.016 "
         style="fill:#595959" />
      <polygon
         transform="matrix(1.25625,0,0,1.2499983,297,494.35968)"
         id="polygon16752"
         points="38.209,4.991 38.209,2.209 37.184,1.184 37.184,6.016 "
         style="fill:#373737" />
      <rect
         id="rect16754"
         height="3.4774954"
         width="3.4923751"
         y="497.12094"
         x="354.0463" />
      <polygon
         transform="matrix(1.25625,0,0,1.2499983,297,494.35968)"
         id="polygon16756"
         points="45.408,2.209 48.191,2.209 49.217,1.184 44.385,1.184 "
         style="fill:#2a2a29" />
      <polygon
         transform="matrix(1.25625,0,0,1.2499983,297,494.35968)"
         id="polygon16758"
         points="48.191,2.212 48.191,4.993 49.217,6.016 49.217,1.184 "
         style="fill:#474747" />
      <polygon
         transform="matrix(1.25625,0,0,1.2499983,297,494.35968)"
         id="polygon16760"
         points="48.189,4.993 45.408,4.993 44.385,6.016 49.215,6.016 "
         style="fill:#595959" />
      <polygon
         transform="matrix(1.25625,0,0,1.2499983,297,494.35968)"
         id="polygon16762"
         points="45.408,4.991 45.408,2.209 44.383,1.184 44.383,6.016 "
         style="fill:#373737" />
      <rect
         id="rect16764"
         height="3.4774954"
         width="3.4936311"
         y="497.12094"
         x="363.09006" />
      <polygon
         transform="matrix(1.25625,0,0,1.2499983,297,494.35968)"
         id="polygon16766"
         points="52.607,2.209 55.393,2.209 56.416,1.184 51.584,1.184 "
         style="fill:#2a2a29" />
      <polygon
         transform="matrix(1.25625,0,0,1.2499983,297,494.35968)"
         id="polygon16768"
         points="55.393,2.212 55.393,4.993 56.416,6.016 56.416,1.184 "
         style="fill:#474747" />
      <polygon
         transform="matrix(1.25625,0,0,1.2499983,297,494.35968)"
         id="polygon16770"
         points="55.391,4.993 52.607,4.993 51.584,6.016 56.416,6.016 "
         style="fill:#595959" />
      <polygon
         transform="matrix(1.25625,0,0,1.2499983,297,494.35968)"
         id="polygon16772"
         points="52.607,4.991 52.607,2.209 51.582,1.184 51.582,6.016 "
         style="fill:#373737" />
      <rect
         id="rect16774"
         height="3.4774954"
         width="3.4936311"
         y="497.12094"
         x="372.13757" />
      <polygon
         transform="matrix(1.25625,0,0,1.2499983,297,494.35968)"
         id="polygon16776"
         points="59.809,2.209 62.592,2.209 63.618,1.184 58.786,1.184 "
         style="fill:#2a2a29" />
      <polygon
         transform="matrix(1.25625,0,0,1.2499983,297,494.35968)"
         id="polygon16778"
         points="62.592,2.212 62.592,4.993 63.618,6.016 63.618,1.184 "
         style="fill:#474747" />
      <polygon
         transform="matrix(1.25625,0,0,1.2499983,297,494.35968)"
         id="polygon16780"
         points="62.59,4.993 59.809,4.993 58.786,6.016 63.616,6.016 "
         style="fill:#595959" />
      <polygon
         transform="matrix(1.25625,0,0,1.2499983,297,494.35968)"
         id="polygon16782"
         points="59.809,4.991 59.809,2.209 58.782,1.184 58.782,6.016 "
         style="fill:#373737" />
      <rect
         id="rect16784"
         height="3.4774954"
         width="3.4936311"
         y="497.12094"
         x="381.1813" />
      <polygon
         transform="matrix(1.25625,0,0,1.2499983,297,494.35968)"
         id="polygon16786"
         points="67.008,2.209 69.792,2.209 70.816,1.184 65.984,1.184 "
         style="fill:#2a2a29" />
      <polygon
         transform="matrix(1.25625,0,0,1.2499983,297,494.35968)"
         id="polygon16788"
         points="69.792,2.212 69.792,4.993 70.816,6.016 70.816,1.184 "
         style="fill:#474747" />
      <polygon
         transform="matrix(1.25625,0,0,1.2499983,297,494.35968)"
         id="polygon16790"
         points="69.792,4.993 67.008,4.993 65.984,6.016 70.814,6.016 "
         style="fill:#595959" />
      <polygon
         transform="matrix(1.25625,0,0,1.2499983,297,494.35968)"
         id="polygon16792"
         points="67.008,4.991 67.008,2.209 65.982,1.184 65.982,6.016 "
         style="fill:#373737" />
      <rect
         id="rect16794"
         height="3.4774954"
         width="3.4936311"
         y="497.12094"
         x="390.2301" />
      <polygon
         transform="matrix(1.25625,0,0,1.2499983,297,494.35968)"
         id="polygon16796"
         points="74.211,2.209 76.995,2.209 78.019,1.184 73.187,1.184 "
         style="fill:#2a2a29" />
      <polygon
         transform="matrix(1.25625,0,0,1.2499983,297,494.35968)"
         id="polygon16798"
         points="76.995,2.212 76.995,4.993 78.019,6.016 78.019,1.184 "
         style="fill:#474747" />
      <polygon
         transform="matrix(1.25625,0,0,1.2499983,297,494.35968)"
         id="polygon16800"
         points="76.995,4.993 74.211,4.993 73.187,6.016 78.018,6.016 "
         style="fill:#595959" />
      <polygon
         transform="matrix(1.25625,0,0,1.2499983,297,494.35968)"
         id="polygon16802"
         points="74.211,4.991 74.211,2.209 73.185,1.184 73.185,6.016 "
         style="fill:#373737" />
      <rect
         id="rect16804"
         height="3.4774954"
         width="3.4911189"
         y="497.12094"
         x="399.27762" />
      <polygon
         transform="matrix(1.25625,0,0,1.2499983,297,494.35968)"
         id="polygon16806"
         points="81.413,2.209 84.195,2.209 85.221,1.184 80.389,1.184 "
         style="fill:#2a2a29" />
      <polygon
         transform="matrix(1.25625,0,0,1.2499983,297,494.35968)"
         id="polygon16808"
         points="84.195,2.212 84.195,4.993 85.221,6.016 85.221,1.184 "
         style="fill:#474747" />
      <polygon
         transform="matrix(1.25625,0,0,1.2499983,297,494.35968)"
         id="polygon16810"
         points="84.193,4.993 81.413,4.993 80.389,6.016 85.219,6.016 "
         style="fill:#595959" />
      <polygon
         transform="matrix(1.25625,0,0,1.2499983,297,494.35968)"
         id="polygon16812"
         points="81.413,4.991 81.413,2.209 80.387,1.184 80.387,6.016 "
         style="fill:#373737" />
      <rect
         id="rect16814"
         height="3.4774954"
         width="3.4936311"
         y="497.12094"
         x="408.3201" />
      <polygon
         transform="matrix(1.25625,0,0,1.2499983,297,494.35968)"
         id="polygon16816"
         points="88.611,2.209 91.395,2.209 92.42,1.184 87.588,1.184 "
         style="fill:#2a2a29" />
      <polygon
         transform="matrix(1.25625,0,0,1.2499983,297,494.35968)"
         id="polygon16818"
         points="91.395,2.212 91.395,4.993 92.42,6.016 92.42,1.184 "
         style="fill:#474747" />
      <polygon
         transform="matrix(1.25625,0,0,1.2499983,297,494.35968)"
         id="polygon16820"
         points="91.393,4.993 88.611,4.993 87.588,6.016 92.418,6.016 "
         style="fill:#595959" />
      <polygon
         transform="matrix(1.25625,0,0,1.2499983,297,494.35968)"
         id="polygon16822"
         points="88.611,4.991 88.611,2.209 87.586,1.184 87.586,6.016 "
         style="fill:#373737" />
      <rect
         id="rect16824"
         height="3.4774954"
         width="3.4923751"
         y="497.12094"
         x="417.36383" />
      <polygon
         transform="matrix(1.25625,0,0,1.2499983,297,494.35968)"
         id="polygon16826"
         points="95.811,2.209 98.596,2.209 99.62,1.184 94.788,1.184 "
         style="fill:#2a2a29" />
      <polygon
         transform="matrix(1.25625,0,0,1.2499983,297,494.35968)"
         id="polygon16828"
         points="98.596,2.212 98.596,4.993 99.62,6.016 99.62,1.184 "
         style="fill:#474747" />
      <polygon
         transform="matrix(1.25625,0,0,1.2499983,297,494.35968)"
         id="polygon16830"
         points="98.594,4.993 95.811,4.993 94.788,6.016 99.62,6.016 "
         style="fill:#595959" />
      <polygon
         transform="matrix(1.25625,0,0,1.2499983,297,494.35968)"
         id="polygon16832"
         points="95.811,4.991 95.811,2.209 94.786,1.184 94.786,6.016 "
         style="fill:#373737" />
      <rect
         id="rect16834"
         height="3.4774954"
         width="3.4936311"
         y="497.12094"
         x="426.41135" />
      <polygon
         transform="matrix(1.25625,0,0,1.2499983,297,494.35968)"
         id="polygon16836"
         points="103.012,2.209 105.795,2.209 106.82,1.184 101.988,1.184 "
         style="fill:#2a2a29" />
      <polygon
         transform="matrix(1.25625,0,0,1.2499983,297,494.35968)"
         id="polygon16838"
         points="105.795,2.212 105.795,4.993 106.82,6.016 106.82,1.184 "
         style="fill:#474747" />
      <polygon
         transform="matrix(1.25625,0,0,1.2499983,297,494.35968)"
         id="polygon16840"
         points="105.793,4.993 103.012,4.993 101.988,6.016 106.818,6.016 "
         style="fill:#595959" />
      <polygon
         transform="matrix(1.25625,0,0,1.2499983,297,494.35968)"
         id="polygon16842"
         points="103.012,4.991 103.012,2.209 101.984,1.184 101.984,6.016 "
         style="fill:#373737" />
      <rect
         id="rect16844"
         height="3.4774954"
         width="3.4936311"
         y="497.12094"
         x="435.45508" />
      <polygon
         transform="matrix(1.25625,0,0,1.2499983,297,494.35968)"
         id="polygon16846"
         points="110.211,2.209 112.995,2.209 114.02,1.184 109.188,1.184 "
         style="fill:#2a2a29" />
      <polygon
         transform="matrix(1.25625,0,0,1.2499983,297,494.35968)"
         id="polygon16848"
         points="112.995,2.212 112.995,4.993 114.02,6.016 114.02,1.184 "
         style="fill:#474747" />
      <polygon
         transform="matrix(1.25625,0,0,1.2499983,297,494.35968)"
         id="polygon16850"
         points="112.995,4.993 110.211,4.993 109.188,6.016 114.018,6.016 "
         style="fill:#595959" />
      <polygon
         transform="matrix(1.25625,0,0,1.2499983,297,494.35968)"
         id="polygon16852"
         points="110.211,4.991 110.211,2.209 109.186,1.184 109.186,6.016 "
         style="fill:#373737" />
      <rect
         id="rect16854"
         height="3.4774954"
         width="3.4923751"
         y="497.12094"
         x="444.50262" />
      <polygon
         transform="matrix(1.25625,0,0,1.2499983,297,494.35968)"
         id="polygon16856"
         points="117.413,2.209 120.196,2.209 121.22,1.184 116.388,1.184 "
         style="fill:#2a2a29" />
      <polygon
         transform="matrix(1.25625,0,0,1.2499983,297,494.35968)"
         id="polygon16858"
         points="120.196,2.212 120.196,4.993 121.22,6.016 121.22,1.184 "
         style="fill:#474747" />
      <polygon
         transform="matrix(1.25625,0,0,1.2499983,297,494.35968)"
         id="polygon16860"
         points="120.194,4.993 117.413,4.993 116.388,6.016 121.218,6.016 "
         style="fill:#595959" />
      <polygon
         transform="matrix(1.25625,0,0,1.2499983,297,494.35968)"
         id="polygon16862"
         points="117.413,4.991 117.413,2.209 116.384,1.184 116.384,6.016 "
         style="fill:#373737" />
      <rect
         id="rect16864"
         height="3.4774954"
         width="3.4936311"
         y="497.12094"
         x="453.54636" />
      <polygon
         transform="matrix(1.25625,0,0,1.2499983,297,494.35968)"
         id="polygon16866"
         points="124.612,2.209 127.395,2.209 128.42,1.184 123.588,1.184 "
         style="fill:#2a2a29" />
      <polygon
         transform="matrix(1.25625,0,0,1.2499983,297,494.35968)"
         id="polygon16868"
         points="127.395,2.212 127.395,4.993 128.42,6.016 128.42,1.184 "
         style="fill:#474747" />
      <polygon
         transform="matrix(1.25625,0,0,1.2499983,297,494.35968)"
         id="polygon16870"
         points="127.395,4.993 124.612,4.993 123.588,6.016 128.418,6.016 "
         style="fill:#595959" />
      <polygon
         transform="matrix(1.25625,0,0,1.2499983,297,494.35968)"
         id="polygon16872"
         points="124.612,4.991 124.612,2.209 123.586,1.184 123.586,6.016 "
         style="fill:#373737" />
      <rect
         id="rect16874"
         height="3.4774954"
         width="3.4923751"
         y="497.12094"
         x="462.59384" />
      <polygon
         transform="matrix(1.25625,0,0,1.2499983,297,494.35968)"
         id="polygon16876"
         points="131.814,2.209 134.596,2.209 135.62,1.184 130.788,1.184 "
         style="fill:#2a2a29" />
      <polygon
         transform="matrix(1.25625,0,0,1.2499983,297,494.35968)"
         id="polygon16878"
         points="134.596,2.212 134.596,4.993 135.62,6.016 135.62,1.184 "
         style="fill:#474747" />
      <polygon
         transform="matrix(1.25625,0,0,1.2499983,297,494.35968)"
         id="polygon16880"
         points="134.594,4.993 131.814,4.993 130.788,6.016 135.618,6.016 "
         style="fill:#595959" />
      <polygon
         transform="matrix(1.25625,0,0,1.2499983,297,494.35968)"
         id="polygon16882"
         points="131.814,4.991 131.814,2.209 130.784,1.184 130.784,6.016 "
         style="fill:#373737" />
      <rect
         id="rect16884"
         height="3.4774954"
         width="3.4936311"
         y="497.12094"
         x="471.63632" />
      <polygon
         transform="matrix(1.25625,0,0,1.2499983,297,494.35968)"
         id="polygon16886"
         points="139.012,2.209 141.795,2.209 142.821,1.184 137.989,1.184 "
         style="fill:#2a2a29" />
      <polygon
         transform="matrix(1.25625,0,0,1.2499983,297,494.35968)"
         id="polygon16888"
         points="141.795,2.212 141.795,4.993 142.821,6.016 142.821,1.184 "
         style="fill:#474747" />
      <polygon
         transform="matrix(1.25625,0,0,1.2499983,297,494.35968)"
         id="polygon16890"
         points="141.795,4.993 139.012,4.993 137.989,6.016 142.819,6.016 "
         style="fill:#595959" />
      <polygon
         transform="matrix(1.25625,0,0,1.2499983,297,494.35968)"
         id="polygon16892"
         points="139.012,4.991 139.012,2.209 137.987,1.184 137.987,6.016 "
         style="fill:#373737" />
    </g>
  </g>
</svg>
