<?xml version="1.0" encoding="UTF-8" standalone="no"?>
<!-- Created with Inkscape (http://www.inkscape.org/) -->

<svg
   xmlns:dc="http://purl.org/dc/elements/1.1/"
   xmlns:cc="http://creativecommons.org/ns#"
   xmlns:rdf="http://www.w3.org/1999/02/22-rdf-syntax-ns#"
   xmlns:svg="http://www.w3.org/2000/svg"
   xmlns="http://www.w3.org/2000/svg"
   xmlns:sodipodi="http://sodipodi.sourceforge.net/DTD/sodipodi-0.dtd"
   xmlns:inkscape="http://www.inkscape.org/namespaces/inkscape"
   width="27.900005"
   height="9.0000143"
   id="svg2"
   version="1.1"
   inkscape:version="0.47 r22583"
   sodipodi:docname="F-3x1.svg">
  <defs
     id="defs4">
    <inkscape:perspective
       sodipodi:type="inkscape:persp3d"
       inkscape:vp_x="0 : 526.18109 : 1"
       inkscape:vp_y="0 : 1000 : 0"
       inkscape:vp_z="744.09448 : 526.18109 : 1"
       inkscape:persp3d-origin="372.04724 : 350.78739 : 1"
       id="perspective10" />
    <inkscape:perspective
       id="perspective3046"
       inkscape:persp3d-origin="0.5 : 0.33333333 : 1"
       inkscape:vp_z="1 : 0.5 : 1"
       inkscape:vp_y="0 : 1000 : 0"
       inkscape:vp_x="0 : 0.5 : 1"
       sodipodi:type="inkscape:persp3d" />
  </defs>
  <sodipodi:namedview
     id="base"
     pagecolor="#ffffff"
     bordercolor="#666666"
     borderopacity="1.0"
     inkscape:pageopacity="0.0"
     inkscape:pageshadow="2"
     inkscape:zoom="31.678384"
     inkscape:cx="9.7613352"
     inkscape:cy="0.84331681"
     inkscape:document-units="in"
     inkscape:current-layer="layer1"
     showgrid="true"
     units="in"
     inkscape:window-width="1680"
     inkscape:window-height="990"
     inkscape:window-x="-4"
     inkscape:window-y="-4"
     inkscape:window-maximized="1">
    <inkscape:grid
       type="xygrid"
       id="grid2816"
       empspacing="10"
       visible="true"
       enabled="true"
       snapvisiblegridlinesonly="false"
       units="in"
       spacingx="0.01in"
       spacingy="0.01in"
       empcolor="#991800"
       empopacity="0.25098039" />
  </sodipodi:namedview>
  <metadata
     id="metadata7">
    <rdf:RDF>
      <cc:Work
         rdf:about="">
        <dc:format>image/svg+xml</dc:format>
        <dc:type
           rdf:resource="http://purl.org/dc/dcmitype/StillImage" />
        <dc:title></dc:title>
      </cc:Work>
    </rdf:RDF>
  </metadata>
  <g
     inkscape:label="Layer 1"
     inkscape:groupmode="layer"
     id="layer1"
     transform="translate(-297,-494.35974)">
    <g
       id="g3208">
      <rect
         id="rect2998"
         height="9.0000143"
         width="27.900005"
         y="494.35974"
         x="297"
         style="fill:#404040" />
      <rect
         id="rect3000"
         height="3.4779887"
         width="3.5921257"
         y="497.12137"
         x="299.85461" />
      <polygon
         transform="matrix(1.291667,0,0,1.2501756,297.00001,494.35974)"
         id="polygon3002"
         points="1.185,1.184 2.208,2.209 4.991,2.209 6.017,1.184 "
         style="fill:#2a2a29" />
      <polygon
         transform="matrix(1.291667,0,0,1.2501756,297.00001,494.35974)"
         id="polygon3004"
         points="6.017,1.184 4.991,2.212 4.991,4.993 6.017,6.016 "
         style="fill:#474747" />
      <polygon
         transform="matrix(1.291667,0,0,1.2501756,297.00001,494.35974)"
         id="polygon3006"
         points="6.016,6.016 4.99,4.993 2.208,4.993 1.185,6.016 "
         style="fill:#595959" />
      <polygon
         transform="matrix(1.291667,0,0,1.2501756,297.00001,494.35974)"
         id="polygon3008"
         points="1.183,6.016 2.208,4.991 2.208,2.209 1.183,1.184 "
         style="fill:#373737" />
      <rect
         id="rect3010"
         height="3.4779887"
         width="3.5921257"
         y="497.12137"
         x="309.15457" />
      <polygon
         transform="matrix(1.291667,0,0,1.2501756,297.00001,494.35974)"
         id="polygon3012"
         points="8.384,1.184 9.408,2.209 12.192,2.209 13.216,1.184 "
         style="fill:#2a2a29" />
      <polygon
         transform="matrix(1.291667,0,0,1.2501756,297.00001,494.35974)"
         id="polygon3014"
         points="13.216,1.184 12.192,2.212 12.192,4.993 13.216,6.016 "
         style="fill:#474747" />
      <polygon
         transform="matrix(1.291667,0,0,1.2501756,297.00001,494.35974)"
         id="polygon3016"
         points="13.215,6.016 12.191,4.993 9.408,4.993 8.384,6.016 "
         style="fill:#595959" />
      <polygon
         transform="matrix(1.291667,0,0,1.2501756,297.00001,494.35974)"
         id="polygon3018"
         points="8.382,6.016 9.408,4.991 9.408,2.209 8.382,1.184 "
         style="fill:#373737" />
      <rect
         id="rect3020"
         height="3.4779887"
         width="3.5921257"
         y="497.12137"
         x="318.45593" />
      <polygon
         transform="matrix(1.291667,0,0,1.2501756,297.00001,494.35974)"
         id="polygon3022"
         points="15.584,1.184 16.609,2.209 19.392,2.209 20.416,1.184 "
         style="fill:#2a2a29" />
      <polygon
         transform="matrix(1.291667,0,0,1.2501756,297.00001,494.35974)"
         id="polygon3024"
         points="20.416,1.184 19.392,2.212 19.392,4.993 20.416,6.016 "
         style="fill:#474747" />
      <polygon
         transform="matrix(1.291667,0,0,1.2501756,297.00001,494.35974)"
         id="polygon3026"
         points="20.415,6.016 19.391,4.993 16.609,4.993 15.584,6.016 "
         style="fill:#595959" />
      <polygon
         transform="matrix(1.291667,0,0,1.2501756,297.00001,494.35974)"
         id="polygon3028"
         points="15.582,6.016 16.609,4.991 16.609,2.209 15.582,1.184 "
         style="fill:#373737" />
    </g>
  </g>
</svg>
