<?xml version="1.0" encoding="UTF-8" standalone="no"?>
<!-- Created with Inkscape (http://www.inkscape.org/) -->

<svg
   xmlns:dc="http://purl.org/dc/elements/1.1/"
   xmlns:cc="http://creativecommons.org/ns#"
   xmlns:rdf="http://www.w3.org/1999/02/22-rdf-syntax-ns#"
   xmlns:svg="http://www.w3.org/2000/svg"
   xmlns="http://www.w3.org/2000/svg"
   xmlns:sodipodi="http://sodipodi.sourceforge.net/DTD/sodipodi-0.dtd"
   xmlns:inkscape="http://www.inkscape.org/namespaces/inkscape"
   width="63.900009"
   height="9.0000076"
   id="svg2"
   version="1.1"
   inkscape:version="0.47 r22583"
   sodipodi:docname="F-6x1.svg">
  <defs
     id="defs4">
    <inkscape:perspective
       sodipodi:type="inkscape:persp3d"
       inkscape:vp_x="0 : 526.18109 : 1"
       inkscape:vp_y="0 : 1000 : 0"
       inkscape:vp_z="744.09448 : 526.18109 : 1"
       inkscape:persp3d-origin="372.04724 : 350.78739 : 1"
       id="perspective10" />
    <inkscape:perspective
       id="perspective3046"
       inkscape:persp3d-origin="0.5 : 0.33333333 : 1"
       inkscape:vp_z="1 : 0.5 : 1"
       inkscape:vp_y="0 : 1000 : 0"
       inkscape:vp_x="0 : 0.5 : 1"
       sodipodi:type="inkscape:persp3d" />
    <inkscape:perspective
       id="perspective3422"
       inkscape:persp3d-origin="0.5 : 0.33333333 : 1"
       inkscape:vp_z="1 : 0.5 : 1"
       inkscape:vp_y="0 : 1000 : 0"
       inkscape:vp_x="0 : 0.5 : 1"
       sodipodi:type="inkscape:persp3d" />
    <inkscape:perspective
       id="perspective3756"
       inkscape:persp3d-origin="0.5 : 0.33333333 : 1"
       inkscape:vp_z="1 : 0.5 : 1"
       inkscape:vp_y="0 : 1000 : 0"
       inkscape:vp_x="0 : 0.5 : 1"
       sodipodi:type="inkscape:persp3d" />
    <inkscape:perspective
       id="perspective4481"
       inkscape:persp3d-origin="0.5 : 0.33333333 : 1"
       inkscape:vp_z="1 : 0.5 : 1"
       inkscape:vp_y="0 : 1000 : 0"
       inkscape:vp_x="0 : 0.5 : 1"
       sodipodi:type="inkscape:persp3d" />
    <inkscape:perspective
       id="perspective4895"
       inkscape:persp3d-origin="0.5 : 0.33333333 : 1"
       inkscape:vp_z="1 : 0.5 : 1"
       inkscape:vp_y="0 : 1000 : 0"
       inkscape:vp_x="0 : 0.5 : 1"
       sodipodi:type="inkscape:persp3d" />
  </defs>
  <sodipodi:namedview
     id="base"
     pagecolor="#ffffff"
     bordercolor="#666666"
     borderopacity="1.0"
     inkscape:pageopacity="0.0"
     inkscape:pageshadow="2"
     inkscape:zoom="22.4"
     inkscape:cx="34.819464"
     inkscape:cy="0.84331135"
     inkscape:document-units="in"
     inkscape:current-layer="layer1"
     showgrid="true"
     units="in"
     inkscape:window-width="1680"
     inkscape:window-height="990"
     inkscape:window-x="-4"
     inkscape:window-y="-4"
     inkscape:window-maximized="1">
    <inkscape:grid
       type="xygrid"
       id="grid2816"
       empspacing="10"
       visible="true"
       enabled="true"
       snapvisiblegridlinesonly="false"
       units="in"
       spacingx="0.01in"
       spacingy="0.01in"
       empcolor="#991800"
       empopacity="0.25098039" />
  </sodipodi:namedview>
  <metadata
     id="metadata7">
    <rdf:RDF>
      <cc:Work
         rdf:about="">
        <dc:format>image/svg+xml</dc:format>
        <dc:type
           rdf:resource="http://purl.org/dc/dcmitype/StillImage" />
        <dc:title></dc:title>
      </cc:Work>
    </rdf:RDF>
  </metadata>
  <g
     inkscape:label="Layer 1"
     inkscape:groupmode="layer"
     id="layer1"
     transform="translate(-297,-494.35974)">
    <g
       id="g5014">
      <rect
         id="rect4807"
         height="9.0000076"
         width="63.900009"
         y="494.35974"
         x="297"
         style="fill:#404040" />
      <rect
         id="rect4809"
         height="3.4779861"
         width="3.5259111"
         y="497.1214"
         x="299.80322" />
      <polygon
         transform="matrix(1.2678573,0,0,1.2501747,297,494.35975)"
         id="polygon4811"
         points="6.016,1.184 1.184,1.184 2.209,2.209 4.992,2.209 "
         style="fill:#2a2a29" />
      <polygon
         transform="matrix(1.2678573,0,0,1.2501747,297,494.35975)"
         id="polygon4813"
         points="6.016,6.016 6.016,1.184 4.992,2.212 4.992,4.993 "
         style="fill:#474747" />
      <polygon
         transform="matrix(1.2678573,0,0,1.2501747,297,494.35975)"
         id="polygon4815"
         points="1.184,6.016 6.015,6.016 4.991,4.993 2.209,4.993 "
         style="fill:#595959" />
      <polygon
         transform="matrix(1.2678573,0,0,1.2501747,297,494.35975)"
         id="polygon4817"
         points="1.182,1.184 1.182,6.016 2.209,4.991 2.209,2.209 "
         style="fill:#373737" />
      <rect
         id="rect4819"
         height="3.4779861"
         width="3.5246432"
         y="497.1214"
         x="308.93182" />
      <polygon
         transform="matrix(1.2678573,0,0,1.2501747,297,494.35975)"
         id="polygon4821"
         points="13.217,1.184 8.385,1.184 9.408,2.209 12.191,2.209 "
         style="fill:#2a2a29" />
      <polygon
         transform="matrix(1.2678573,0,0,1.2501747,297,494.35975)"
         id="polygon4823"
         points="13.217,6.016 13.217,1.184 12.191,2.212 12.191,4.993 "
         style="fill:#474747" />
      <polygon
         transform="matrix(1.2678573,0,0,1.2501747,297,494.35975)"
         id="polygon4825"
         points="8.385,6.016 13.216,6.016 12.19,4.993 9.408,4.993 "
         style="fill:#595959" />
      <polygon
         transform="matrix(1.2678573,0,0,1.2501747,297,494.35975)"
         id="polygon4827"
         points="8.383,1.184 8.383,6.016 9.408,4.991 9.408,2.209 "
         style="fill:#373737" />
      <rect
         id="rect4829"
         height="3.4779861"
         width="3.5259111"
         y="497.1214"
         x="318.05908" />
      <polygon
         transform="matrix(1.2678573,0,0,1.2501747,297,494.35975)"
         id="polygon4831"
         points="20.417,1.184 15.585,1.184 16.608,2.209 19.391,2.209 "
         style="fill:#2a2a29" />
      <polygon
         transform="matrix(1.2678573,0,0,1.2501747,297,494.35975)"
         id="polygon4833"
         points="20.417,6.016 20.417,1.184 19.391,2.212 19.391,4.993 "
         style="fill:#474747" />
      <polygon
         transform="matrix(1.2678573,0,0,1.2501747,297,494.35975)"
         id="polygon4835"
         points="15.585,6.016 20.416,6.016 19.39,4.993 16.608,4.993 "
         style="fill:#595959" />
      <polygon
         transform="matrix(1.2678573,0,0,1.2501747,297,494.35975)"
         id="polygon4837"
         points="15.583,1.184 15.583,6.016 16.608,4.991 16.608,2.209 "
         style="fill:#373737" />
      <rect
         id="rect4839"
         height="3.4779861"
         width="3.5259111"
         y="497.1214"
         x="327.18768" />
      <polygon
         transform="matrix(1.2678573,0,0,1.2501747,297,494.35975)"
         id="polygon4841"
         points="27.617,1.184 22.785,1.184 23.808,2.209 26.592,2.209 "
         style="fill:#2a2a29" />
      <polygon
         transform="matrix(1.2678573,0,0,1.2501747,297,494.35975)"
         id="polygon4843"
         points="27.617,6.016 27.617,1.184 26.592,2.212 26.592,4.993 "
         style="fill:#474747" />
      <polygon
         transform="matrix(1.2678573,0,0,1.2501747,297,494.35975)"
         id="polygon4845"
         points="22.785,6.016 27.616,6.016 26.591,4.993 23.808,4.993 "
         style="fill:#595959" />
      <polygon
         transform="matrix(1.2678573,0,0,1.2501747,297,494.35975)"
         id="polygon4847"
         points="22.782,1.184 22.782,6.016 23.808,4.991 23.808,2.209 "
         style="fill:#373737" />
      <rect
         id="rect4849"
         height="3.4779861"
         width="3.5259111"
         y="497.1214"
         x="336.31625" />
      <polygon
         transform="matrix(1.2678573,0,0,1.2501747,297,494.35975)"
         id="polygon4851"
         points="34.816,1.184 29.984,1.184 31.009,2.209 33.792,2.209 "
         style="fill:#2a2a29" />
      <polygon
         transform="matrix(1.2678573,0,0,1.2501747,297,494.35975)"
         id="polygon4853"
         points="34.816,6.016 34.816,1.184 33.792,2.212 33.792,4.993 "
         style="fill:#474747" />
      <polygon
         transform="matrix(1.2678573,0,0,1.2501747,297,494.35975)"
         id="polygon4855"
         points="29.984,6.016 34.815,6.016 33.791,4.993 31.009,4.993 "
         style="fill:#595959" />
      <polygon
         transform="matrix(1.2678573,0,0,1.2501747,297,494.35975)"
         id="polygon4857"
         points="29.982,1.184 29.982,6.016 31.009,4.991 31.009,2.209 "
         style="fill:#373737" />
      <rect
         id="rect4859"
         height="3.4779861"
         width="3.5259111"
         y="497.1214"
         x="345.44611" />
      <polygon
         transform="matrix(1.2678573,0,0,1.2501747,297,494.35975)"
         id="polygon4861"
         points="42.016,1.184 37.184,1.184 38.209,2.209 40.992,2.209 "
         style="fill:#2a2a29" />
      <polygon
         transform="matrix(1.2678573,0,0,1.2501747,297,494.35975)"
         id="polygon4863"
         points="42.016,6.016 42.016,1.184 40.992,2.212 40.992,4.993 "
         style="fill:#474747" />
      <polygon
         transform="matrix(1.2678573,0,0,1.2501747,297,494.35975)"
         id="polygon4865"
         points="37.184,6.016 42.015,6.016 40.991,4.993 38.209,4.993 "
         style="fill:#595959" />
      <polygon
         transform="matrix(1.2678573,0,0,1.2501747,297,494.35975)"
         id="polygon4867"
         points="37.182,1.184 37.182,6.016 38.209,4.991 38.209,2.209 "
         style="fill:#373737" />
      <rect
         id="rect4869"
         height="3.4779861"
         width="3.5246432"
         y="497.1214"
         x="354.57468" />
      <polygon
         transform="matrix(1.2678573,0,0,1.2501747,297,494.35975)"
         id="polygon4871"
         points="49.217,1.184 44.385,1.184 45.408,2.209 48.191,2.209 "
         style="fill:#2a2a29" />
      <polygon
         transform="matrix(1.2678573,0,0,1.2501747,297,494.35975)"
         id="polygon4873"
         points="49.217,6.016 49.217,1.184 48.191,2.212 48.191,4.993 "
         style="fill:#474747" />
      <polygon
         transform="matrix(1.2678573,0,0,1.2501747,297,494.35975)"
         id="polygon4875"
         points="44.385,6.016 49.216,6.016 48.19,4.993 45.408,4.993 "
         style="fill:#595959" />
      <polygon
         transform="matrix(1.2678573,0,0,1.2501747,297,494.35975)"
         id="polygon4877"
         points="44.383,1.184 44.383,6.016 45.408,4.991 45.408,2.209 "
         style="fill:#373737" />
    </g>
  </g>
</svg>
